<svg xmlns="http://www.w3.org/2000/svg" viewBox="0 0 172.95 154.71"><defs><style>.cls-1{fill:#3c1c0f;}.cls-2{fill:#38050e;}.cls-3{fill:#440613;}.cls-4{fill:#eb5a2d;}</style></defs><g id="Capa_2" data-name="Capa 2"><g id="Capa_1-2" data-name="Capa 1"><path class="cls-1" d="M144.32,145c-.19-.54-.2-.57-.15-.42s.07.21.11.32A.42.42,0,0,0,144.32,145Z"/><path class="cls-2" d="M120.52,69.6c-12.65.43-17.06-9.34-17-9.52,3.79-11.89,7.68-23.53,8.86-35.85.7-7.33,1-17.91-6-22.54a11.59,11.59,0,0,0-12.18.08C88.91,5,87.72,12.33,87.41,18a62.21,62.21,0,0,0,.39,10.48c1.19,10,2.73,20.6,6.08,30.34h0L82.73,100.39h0L66.15,57.47h0a12.69,12.69,0,0,0-8.2,0h0L41.47,100.2h0L29,53.68a3.74,3.74,0,0,0-.22-1c-.06-.17-.12-.35-.19-.52l-1.34-5h0A43.25,43.25,0,0,0,37.77,26.08c1.36-7.8.71-19.56-9.39-20.73a12.7,12.7,0,0,0-11.55,5.54c-2.52,3.55-3.12,8.07-3.2,12.32a85.77,85.77,0,0,0,2.42,21.5h0A83.77,83.77,0,0,1,.9,55.65a1.78,1.78,0,0,0-.66,2.44L3.35,63.4A1.76,1.76,0,0,0,5.88,64c3.2-2.14,10.44-7,14-10h0c.05.12.21.72.93,3.62L36.3,115.22h0a12.16,12.16,0,0,0,4.09.69,13.67,13.67,0,0,0,4.2-.69h0L62.05,69.86h0l17.56,45.36h0a12.21,12.21,0,0,0,4.1.69,13.66,13.66,0,0,0,4.19-.69h0L99.84,70.34c6.75,5.71,11.4,6.7,14.08,7.38C114.2,74.33,120.31,73,120.52,69.6ZM23.71,30.79a47,47,0,0,1,0-10.86,8.75,8.75,0,0,1,1.16-3.35c.38-.58.82-1.25,1.39-1.44.3-.1,1.83-.14,2.1,1.11,0,0,.13.73.17,1.36s.11,2.59,0,3.79a25.09,25.09,0,0,1-.72,4.4,34.43,34.43,0,0,1-3.66,8.89C24,33.4,23.81,32.1,23.71,30.79Zm77.67,3.3c-.5,3-1.66,9.62-2.27,12.62-1.77-8.11-2.39-19.62-2.14-28a25.11,25.11,0,0,1,.86-5.91,7.43,7.43,0,0,1,1-2.48c.19-.29.1-.2.2-.26h-.19a.67.67,0,0,0,.3-.07l.08,0c.37-.28.45-.24.37-.13l.13-.05c.18,0,.39-.08.59-.12h.34l.3.08.08,0,.23.2c.1.1.1.09,0,0h0l0,0a12.71,12.71,0,0,0,.69,1.19c.11.39.26.77.37,1.16.17.64.3,1.29.41,1.94,0,.21.07.55.09.75,0,.62.1,1.23.12,1.85C103.28,22.63,102.32,28.39,101.38,34.09Z"/><path class="cls-3" d="M99.07,10a.78.78,0,0,0,.56-.26l-.45.18Z"/><path class="cls-4" d="M93.86,58.71,82.71,100.34,66.09,57.21a12.47,12.47,0,0,0-8.24,0L41.6,99.57,27.25,47.31c.08-.09-7.48,6.77-7.35,6.66.3,1.14.26,1.1,1,4.05L36.06,115.8a12.33,12.33,0,0,0,4.12.69,13.79,13.79,0,0,0,4.22-.69L62.05,70l17.59,45.8a12.33,12.33,0,0,0,4.12.69A13.84,13.84,0,0,0,88,115.8L99.85,70.33C95.35,66.45,93.78,58.46,93.86,58.71Z"/><path class="cls-2" d="M172.9,33.8a21.65,21.65,0,0,0-6.17-14,19.06,19.06,0,0,0-14.51-5.3c-21.56,1-27.76,26.25-30.42,43.53-.6,3.87-1,7.77-1.4,11.69a37.79,37.79,0,0,1-7.19-.92c-.38,3-1.11,5.31-1.51,8.32a48.47,48.47,0,0,0,8,1.72,282.7,282.7,0,0,0,.51,32.16,231.78,231.78,0,0,0,2.89,25.48c.91,5.23,1.94,10.74,4,15.72a1.91,1.91,0,0,0,2.57,1l5.45-2.54a1.91,1.91,0,0,0,1-2.44l-.21-.56c-.16-.43-.3-.87-.45-1.3l0-.12c0,.08,0,.14.07.24,0-.11-.07-.23-.1-.35s-.08-.24-.1-.32l-.06-.23c-.7-2.44-1.26-4.92-1.76-7.41-1.25-6.29-2.09-12.66-2.72-19a265.22,265.22,0,0,1-1-40,26.47,26.47,0,0,0,5.44-1,50.44,50.44,0,0,0,26.34-15.43C168.32,54.88,173.55,44.33,172.9,33.8ZM157.8,51.18A41.24,41.24,0,0,1,136.05,68a38.09,38.09,0,0,1-5.73,1.34c0-.32.05-.64.08-1a154,154,0,0,1,3-19.08,1,1,0,0,1,0-.11c.11-.46.23-.91.34-1.37.28-1.06.57-2.12.88-3.17a63.87,63.87,0,0,1,2.37-6.86A25.7,25.7,0,0,1,143.71,28c5.06-4.28,13.4-5.94,17.48.4C165.57,35.19,162,44.76,157.8,51.18Z"/><path class="cls-4" d="M119.55,78.77l.68.15a40.11,40.11,0,0,0,9.15.12l.28-.05s-1.2,50,7.43,71.66a11.56,11.56,0,0,1-4.53,3.58,11.64,11.64,0,0,1-5.58.25C124.59,149,117.44,125.36,119.55,78.77Z"/><path class="cls-4" d="M120.81,72.16c.91-.63.22-.14,0,0Z"/><path class="cls-4" d="M131.19,70.11a1,1,0,0,0,.3.08l-.21-.07Z"/><path class="cls-4" d="M99.78,8.79,99.33,9l-.11.08A.84.84,0,0,0,99.78,8.79Z"/><path class="cls-4" d="M93.86,58.71s1.67,7.33,6,11.62l-6.61.15Z"/></g></g></svg>