<svg xmlns="http://www.w3.org/2000/svg" viewBox="0 0 612.73 176.78"><defs><style>.cls-1{fill:#eb5a2d;}.cls-2{fill:#4c1c30;}.cls-3{fill:#38050e;}.cls-4{fill:#a72666;}</style></defs><g id="Capa_2" data-name="Capa 2"><g id="Capa_1-2" data-name="Capa 1"><path class="cls-1" d="M609.94,104.39s0,0,0,0c-1.65,1-9.54,6.06-9.27-7.61v-8.2c.06-1.45,1.21-14.12-.73-20.24-3-9.33-19.78-15.44-37.4-2.46-.34,2.64,1.66,7.18,4,8h0c2-.93,3.8-2.16,6.1-3.25l-.42.31.43-.31c5.05-2.39,10.9-4.25,14.37-2,1.86,1.18,2.75,3.37,3.33,5.4a21.81,21.81,0,0,1,.64,3.37,36.35,36.35,0,0,1,.28,4.65s0,0,0,0a44.69,44.69,0,0,0-6-1.86,31.53,31.53,0,0,0-14.58.24c-5.82,1.54-12.44,6-12.8,16.3h0c-2.23,5.51-4.8,8.64-7.79,9.64a6.82,6.82,0,0,1-5.31-.85h0a4.84,4.84,0,0,1-1.07-1.25q-1.44-2.37-1.44-7.81V80.46q0-6.83-3.06-10.84a10,10,0,0,0-8.41-4,27.47,27.47,0,0,0-3.32.24q-1.92.26-5.09.94a43.91,43.91,0,0,1-8,1.29h0a34.21,34.21,0,0,0-3.06-8.69h0a10.88,10.88,0,0,0-5.78.55,7.62,7.62,0,0,0-3.81,2.91h0a12.11,12.11,0,0,0,.74,3.61,28.17,28.17,0,0,0,1.78,4.2,11.81,11.81,0,0,0,1.93,2.87h0a15.8,15.8,0,0,1,.49,2.47,23.38,23.38,0,0,1,.2,3.26,44.33,44.33,0,0,1-2,13.85,25.61,25.61,0,0,1-5.44,9.85,10.41,10.41,0,0,1-7.77,3.61q-3.56,0-3.56,4.25a5.48,5.48,0,0,0,.79,3.07,2.42,2.42,0,0,0,2.08,1.19,20.24,20.24,0,0,0,13-4.45,28.49,28.49,0,0,0,8.66-12.47,52.06,52.06,0,0,0,3.07-18.7c0-1,0-2.1-.1-3.15v0a67.6,67.6,0,0,0,7.31-1.18c1.85-.4,3.13-.66,3.86-.8a11.35,11.35,0,0,1,2-.19,3.71,3.71,0,0,1,3.56,1.78q1,1.77,1,6.23V97.48q0,17.34,13.91,17.59h.44l.17,0a18.33,18.33,0,0,0,4.42-.74,17.86,17.86,0,0,0,9-7.08,0,0,0,0,1,0,0,18.89,18.89,0,0,0,5.18,4.84,21.88,21.88,0,0,0,19.94.92,20,20,0,0,0,6.9-5.52s0,0,0,0c3.77,12.35,17.89,7.27,19.37,4.78h0C612.83,106.75,610.17,104.55,609.94,104.39ZM590.48,94.8c-1.85,11.9-8.27,11.9-12.67,11.9a11.84,11.84,0,0,1-8.86-3.9,6.87,6.87,0,0,1-1.84-6.09c.07-.31.15-.63.24-.94s.27-.84.43-1.25a2.21,2.21,0,0,0,.18-.34c2.44-5.43,10.09-5.73,11-5.69a17.26,17.26,0,0,1,4.55.7,39.5,39.5,0,0,1,7.19,2.74C590.66,92.89,590.63,93.85,590.48,94.8Z"/><path class="cls-2" d="M582.57,68.34a1.05,1.05,0,0,0,.3.06l-.21-.06Z"/><path class="cls-2" d="M545.52,9.66l-.12.08a.8.8,0,0,0,.57-.26Z"/><path class="cls-3" d="M493.93,108a2.25,2.25,0,0,0-2.28-1.38,5.78,5.78,0,0,1-5.49-2.92q-1.64-2.91-1.63-8.16V67a15,15,0,0,0-4.55-.69,15.16,15.16,0,0,0-2.47.2,10.19,10.19,0,0,0-2,.49V85.6q0,20.69-14.15,20.68-5.94,0-8.71-3.91T449.9,89.86V67a14.66,14.66,0,0,0-4.45-.69,15.37,15.37,0,0,0-2.48.2,13.18,13.18,0,0,0-2.07.49V81.65A49.66,49.66,0,0,1,439.76,92a24.3,24.3,0,0,1-4,9.31,14.36,14.36,0,0,1-4.45,4,16,16,0,0,1-6.3,1.76,10.09,10.09,0,0,0,.58,8,2.62,2.62,0,0,0,.57.07,18.27,18.27,0,0,0,7.57-1.58,20.84,20.84,0,0,0,6.19-4.26,21.44,21.44,0,0,0,3.56-4.85q4.65,10.69,17.22,10.69A23.22,23.22,0,0,0,471,113a18.21,18.21,0,0,0,7.12-6.18q3.36,8.31,12.86,8.31a3,3,0,0,0,2.72-1.29,5.11,5.11,0,0,0,.84-2.87A7.43,7.43,0,0,0,493.93,108Z"/><path class="cls-3" d="M219.53,110.35a5.2,5.2,0,0,1-.17-1.32,4.63,4.63,0,0,1-1.68-1.67c-1-1.58-1.43-4.18-1.43-7.81V83.62q0-6.83-3.07-10.84a10,10,0,0,0-8.41-4,27.47,27.47,0,0,0-3.32.24q-1.92.26-5.09.94a44.13,44.13,0,0,1-8,1.29,34.38,34.38,0,0,0-3.06-8.71,10.82,10.82,0,0,0-5.79.55A7.58,7.58,0,0,0,175.68,66a12.23,12.23,0,0,0,.74,3.61,29.26,29.26,0,0,0,1.78,4.2,12.1,12.1,0,0,0,1.93,2.87,17.08,17.08,0,0,1,.5,2.48,25.11,25.11,0,0,1,.19,3.26,44.63,44.63,0,0,1-2,13.85,25.75,25.75,0,0,1-5.45,9.85,10.41,10.41,0,0,1-7.76,3.61,4.94,4.94,0,0,1-4.6-2.38q-1.44-2.37-1.44-7.81V91.13c1.59-24.65-10.77-36.92-32.2-27-16.56,7.64-19.19-.59-18.56-3.16,3-12.29,7.78-23.87,9-36.37.71-7.43,1-18.16-6.12-22.86a11.76,11.76,0,0,0-12.36.09C94,5.1,92.77,12.51,92.46,18.2a62,62,0,0,0,.4,10.64C94.06,39,95.58,49.65,99,59.52l-11.26,42.3L70.9,58.29a12.85,12.85,0,0,0-8.31,0L45.86,101.63,31.41,47.84c5.3-6.08,9.26-13.14,10.7-21.38,1.38-7.92.73-19.85-9.52-21a12.88,12.88,0,0,0-11.71,5.63c-2.56,3.6-3.17,8.18-3.25,12.49a87.12,87.12,0,0,0,2.45,21.8A107,107,0,0,1,.24,60c-.34.21-1.14,5.77,4.67,7.81a41.49,41.49,0,0,0,5.73-3.14c4.59-3,10.19-7.35,13.34-10,.05.13.21.73.94,3.68l15.7,58.43a12.53,12.53,0,0,0,4.16.7,14,14,0,0,0,4.25-.7l17.71-46,17.81,46a12.53,12.53,0,0,0,4.16.7,14,14,0,0,0,4.25-.7l12.1-45.52c6.47,5.46,14.37,4.4,20.82,2.24,4.22-1.41,12.72-7.85,20-3,1.86,1.22,2.75,3.47,3.32,5.55a23,23,0,0,1,.65,3.46,37.59,37.59,0,0,1,.27,4.8,43.67,43.67,0,0,0-6-1.92c-4.6-1.09-10.09-1.49-14.58.25a21.2,21.2,0,0,0-10.82,9.21c-.21.39-.4.8-.58,1.2-4.43,11,2.48,19.23,7.16,22.19a20.35,20.35,0,0,0,26.86-4.75q3.27,7.73,12.66,7.72a20.35,20.35,0,0,0,13-4.45,28.56,28.56,0,0,0,8.65-12.47,52.06,52.06,0,0,0,3.07-18.7c0-1.06,0-2.11-.1-3.17a63.84,63.84,0,0,0,7.32-1.19c1.85-.39,3.14-.65,3.86-.79a11.35,11.35,0,0,1,2-.19,3.7,3.7,0,0,1,3.56,1.78q1,1.77,1,6.23v15.34q0,17.27,13.82,17.59A78.82,78.82,0,0,0,219.53,110.35ZM27.85,31.23a47.79,47.79,0,0,1,0-11A8.9,8.9,0,0,1,29,16.81c.38-.59.83-1.26,1.41-1.45.3-.1,1.85-.15,2.13,1.12,0,0,.13.75.17,1.38s.12,2.63,0,3.85A25.84,25.84,0,0,1,32,26.16a34.79,34.79,0,0,1-3.71,9C28.11,33.87,28,32.55,27.85,31.23Zm78.78,3.35c-.51,3.06-1.69,9.75-2.3,12.79-1.79-8.23-2.43-19.89-2.18-28.45a25.88,25.88,0,0,1,.88-6,7.07,7.07,0,0,1,1-2.52,2,2,0,0,1,2-.71c1.22.19,1.67,2.38,1.77,2.77a19.18,19.18,0,0,1,.42,2l.09.77c.05.62.1,1.24.12,1.86C108.55,23,107.58,28.8,106.63,34.58Zm42.74,62.94c-1.85,12.22-8.27,12.22-12.68,12.22a11.69,11.69,0,0,1-8.85-4A7.15,7.15,0,0,1,126,99.48q.1-.48.24-1c.12-.43.27-.87.43-1.29a3.84,3.84,0,0,0,.18-.35c2.44-5.57,10.09-5.88,11-5.84a16.41,16.41,0,0,1,4.54.72,38.76,38.76,0,0,1,7.2,2.81C149.55,95.55,149.52,96.54,149.37,97.52Z"/><path class="cls-3" d="M325.78,118.25c2.7,0,23.09,1,23.64-28.68V70.17a14.62,14.62,0,0,0-4.45-.7,15.16,15.16,0,0,0-2.47.2,13.26,13.26,0,0,0-2.08.5V88a48.06,48.06,0,0,1-1.43,8.8,22.42,22.42,0,0,1-3.62,7.72c-1.38,1.78-4.42,5.14-9.34,4.89"/><path class="cls-1" d="M325.78,118.25q-14.36,0-14.35-17.61V88q0-5.15-1.88-7.92a6.06,6.06,0,0,0-5.34-2.77q-5.25,0-8.26,6t-3,16.57v17a17.19,17.19,0,0,1-2.18.49,14,14,0,0,1-2.27.2,15,15,0,0,1-4.56-.69V89.36c0-3.89-.67-6.88-2-9a6.7,6.7,0,0,0-6-3.12,8.43,8.43,0,0,0-6.33,2.82A19.5,19.5,0,0,0,265.37,88a41.14,41.14,0,0,0-1.53,11.82v17a17.19,17.19,0,0,1-2.18.49,14,14,0,0,1-2.27.2,13.51,13.51,0,0,1-4.46-.69V85.31q0-8-4.55-8a4.43,4.43,0,0,0-3.56,1.88,16.82,16.82,0,0,0-2.57,6l-3.66,14.24c-1.72,6.53-3.88,11.18-7.2,13.86-.9.73-3.15,2.16-4.11,2.76-.41-2.75.57-5.68-.11-8.37a5.08,5.08,0,0,0-.8-1.74c1.52-2.18,2.85-5.56,4-10.17l3-11.57q4.16-15.43,15.83-15.44a11.31,11.31,0,0,1,7.28,2.42,13.26,13.26,0,0,1,4.3,6.68,17.32,17.32,0,0,1,6-6.73,15.19,15.19,0,0,1,8.36-2.37q9.69,0,13.16,10a18.25,18.25,0,0,1,6.43-7.37,16.63,16.63,0,0,1,9.2-2.62q7,0,10.79,4.45t3.75,12.57V99.55c0,3.63.43,10.14,5.86,9.8h0c.92,1.92,1,6.51-.47,8.86Z"/><path class="cls-3" d="M349.92,44.34a7.13,7.13,0,0,0-9.65,0,6.81,6.81,0,1,0,11.53,4.85A6.59,6.59,0,0,0,349.92,44.34Z"/><path class="cls-1" d="M99,59.57,87.71,101.78,71,58.23a12.91,12.91,0,0,0-4.11-.7,12.76,12.76,0,0,0-4.25.69L45.87,101.56,33.19,54.36a12,12,0,0,0-.41-1.54l-1.32-5c.07-.08-7.6,7.07-7.48,7,.05.13.19.67.92,3.63L40.62,117a12.53,12.53,0,0,0,4.16.7,14.28,14.28,0,0,0,4.34-.69L66.74,70.84,84.55,117a12.53,12.53,0,0,0,4.16.7A14,14,0,0,0,93,117l12.1-45.59a22.75,22.75,0,0,1-3.65-5.16A34.84,34.84,0,0,1,99,59.57Z"/><path class="cls-4" d="M557.92,96.65c-.25.34-2.38,7.47-8.1,9.66a4.94,4.94,0,0,1-5.6-1.92,12.24,12.24,0,0,1-1.88-7.19V80.73q0-7-3.17-11.2a10.34,10.34,0,0,0-8.69-4.14,27.47,27.47,0,0,0-3.43.25q-2,.26-5.27,1a43.94,43.94,0,0,1-6.85,1.22A50.38,50.38,0,0,0,513.5,63a28.44,28.44,0,0,0-1.84-4.14,17.31,17.31,0,0,0-5.73,1.08,9.06,9.06,0,0,0-4.19,2.5A13.51,13.51,0,0,0,502.4,66a22.77,22.77,0,0,0,1.79,4.35,12.25,12.25,0,0,0,2.35,3.22,18.51,18.51,0,0,1,.41,3.12c.07,1.19.11,2.23.11,3.12,0,6.07-3.05,14.89-3.2,15.24-5.7,13.09-13.44,11.47-14,11.36-1.66,2.24-1.66,6.29-.24,8.63.28,0,15.56,2.34,22.47-15.15.47-1.18,2.64-3.15,4.07-19.88a28.32,28.32,0,0,0-.1-3.68c1.49-.2,3.58-.58,6.23-1.12,1.91-.41,3.24-.68,4-.82a11.31,11.31,0,0,1,2.05-.21A3.84,3.84,0,0,1,532,76q1,1.83,1,6.44V98.32c1,25,25,17.27,28.31,9C560.52,106,558.2,103.52,557.92,96.65Z"/><path class="cls-4" d="M164.17,118.25c-1.52-5.57.46-8.55.44-8.56,3.15.19,8.16-1,12.91-11.49.16-.34,3.2-9.16,3.2-15.23,0-.89,0-1.93-.1-3.12a19.59,19.59,0,0,0-.41-3.12,12,12,0,0,1-2.35-3.22,22.77,22.77,0,0,1-1.79-4.35,13.19,13.19,0,0,1-.67-3.58,9.19,9.19,0,0,1,4.2-2.51A17.49,17.49,0,0,1,185.32,62a27.4,27.4,0,0,1,1.84,4.14A47.68,47.68,0,0,1,188.6,71a43.18,43.18,0,0,0,6.85-1.23c2.18-.47,3.94-.8,5.27-1a27.46,27.46,0,0,1,3.42-.25c3.68,0,7,1.2,9.11,4s3.17,6.5,3.17,11.2l-.08,16.69c0,3.75.41,5.6,1.54,7.14,3.76,5.12,10.53-.68,11.91-4.1,5.41,1.09,6.36,4.86,6.58,6.56-4.5,8.53-28.68,16.51-29.67-8.52V85.63q0-4.6-1-6.45A3.87,3.87,0,0,0,202,77.34a11.21,11.21,0,0,0-2,.21c-.75.13-2.08.41-4,.82-2.66.54-4.74.92-6.24,1.12a25.18,25.18,0,0,1,.1,3.68c-1.43,16.73-3.54,18.73-4.06,19.87C179.11,117.56,170.05,118.32,164.17,118.25Z"/><path class="cls-3" d="M387,172.5c-.49-1.53-8.85-26.69-10.22-53.37a36,36,0,0,1-22.13-10.66v-.08a7.36,7.36,0,0,1,6.75-5.86h0c.33.38,5.47,5.94,15.17,7.44.09-10.13,1.31-20.18,4.37-29,8.25-23.79,22.57-25.63,30.37-24.62a20.09,20.09,0,0,1,17.17,17c1.18,7.25-.25,14.61-4.25,21.87a44.84,44.84,0,0,1-21.06,19.07,55.47,55.47,0,0,1-17.36,4.93,270.22,270.22,0,0,0,8.14,50.1ZM408.06,65.11c-8,0-14.27,6.31-18.59,18.79-2.73,7.86-3.8,16.94-3.87,26.2a46.23,46.23,0,0,0,13.85-4,36,36,0,0,0,16.92-15.21c3-5.46,4.09-10.88,3.25-16.1a11.16,11.16,0,0,0-9.45-9.49A17,17,0,0,0,408.06,65.11Z"/><path class="cls-1" d="M397.15,172.16c-9-16.22-11.3-53-11.3-53l-.26,0a43.86,43.86,0,0,1-8.84-.11h0c1.67,36.52,9.75,53.6,12.39,57.51a7.94,7.94,0,0,0,5-.61A8.08,8.08,0,0,0,397.15,172.16Z"/></g></g></svg>