<svg xmlns="http://www.w3.org/2000/svg" viewBox="0 0 612.73 332.84"><defs><style>.cls-1{fill:#eb5a2d;}.cls-2{fill:#4c1c30;}.cls-3{fill:#38050e;}.cls-4{fill:#a72666;}.cls-5{fill:#a62767;}.cls-6{fill:#ea5a2f;}.cls-7{fill:#e95a30;}</style></defs><g id="Capa_2" data-name="Capa 2"><g id="Capa_1-2" data-name="Capa 1"><path class="cls-1" d="M609.94,260.45h0c-1.65,1-9.54,6.06-9.27-7.62v-8.19c.06-1.45,1.21-14.13-.73-20.24-3-9.33-19.78-15.44-37.4-2.46-.34,2.64,1.66,7.18,4,7.94h0c2-.93,3.8-2.16,6.1-3.25l-.42.31.43-.32c5.05-2.38,10.9-4.25,14.37-2,1.86,1.19,2.75,3.38,3.33,5.41a21.69,21.69,0,0,1,.64,3.36,36.41,36.41,0,0,1,.28,4.66h0a44.69,44.69,0,0,0-6-1.86,31.39,31.39,0,0,0-14.58.24c-5.82,1.53-12.44,6-12.8,16.3h0c-2.23,5.51-4.8,8.63-7.79,9.63a6.82,6.82,0,0,1-5.31-.84h0a4.79,4.79,0,0,1-1.07-1.24q-1.44-2.37-1.44-7.81V236.52q0-6.83-3.06-10.84a10,10,0,0,0-8.41-4,27.47,27.47,0,0,0-3.32.24q-1.92.26-5.09.94a43.91,43.91,0,0,1-8,1.29v0a34.12,34.12,0,0,0-3.06-8.68h0a10.88,10.88,0,0,0-5.78.54,7.69,7.69,0,0,0-3.81,2.92h0a12.23,12.23,0,0,0,.74,3.61,28.17,28.17,0,0,0,1.78,4.2,12,12,0,0,0,1.93,2.87h0a16,16,0,0,1,.49,2.47,23.53,23.53,0,0,1,.2,3.27,44.33,44.33,0,0,1-2,13.85,25.61,25.61,0,0,1-5.44,9.85,10.41,10.41,0,0,1-7.77,3.61q-3.56,0-3.56,4.25a5.48,5.48,0,0,0,.79,3.07,2.42,2.42,0,0,0,2.08,1.19,20.25,20.25,0,0,0,13-4.46,28.4,28.4,0,0,0,8.66-12.46,52.1,52.1,0,0,0,3.07-18.7c0-1.05,0-2.1-.1-3.15v0a65.71,65.71,0,0,0,7.31-1.19c1.85-.39,3.13-.66,3.86-.79a11.44,11.44,0,0,1,2-.2,3.72,3.72,0,0,1,3.56,1.79q1,1.77,1,6.23v15.34q0,17.32,13.91,17.59h.44l.17,0a18.83,18.83,0,0,0,4.42-.74,17.86,17.86,0,0,0,9-7.08h0a18.89,18.89,0,0,0,5.18,4.84,21.88,21.88,0,0,0,19.94.92,20.16,20.16,0,0,0,6.9-5.52h0c3.77,12.35,17.89,7.28,19.37,4.79h0C612.83,262.8,610.17,260.61,609.94,260.45Zm-19.46-9.59c-1.85,11.9-8.27,11.9-12.67,11.9a11.84,11.84,0,0,1-8.86-3.9,6.87,6.87,0,0,1-1.84-6.09c.07-.31.15-.63.24-.94s.27-.84.43-1.25a2.21,2.21,0,0,0,.18-.34c2.44-5.43,10.09-5.73,11-5.69a17.26,17.26,0,0,1,4.55.7,39.5,39.5,0,0,1,7.19,2.74C590.66,249,590.63,249.91,590.48,250.86Z"/><path class="cls-2" d="M582.57,224.4a1.05,1.05,0,0,0,.3.06l-.21-.06Z"/><path class="cls-2" d="M545.52,165.72l-.12.07a.84.84,0,0,0,.57-.25Z"/><path class="cls-3" d="M493.93,264a2.25,2.25,0,0,0-2.28-1.38,5.78,5.78,0,0,1-5.49-2.92q-1.64-2.93-1.63-8.16v-28.5a15,15,0,0,0-4.55-.69,14.12,14.12,0,0,0-2.47.2,10.19,10.19,0,0,0-2,.49v18.6q0,20.68-14.15,20.68-5.94,0-8.71-3.91t-2.77-12.51V223.06a14.66,14.66,0,0,0-4.45-.69,14.32,14.32,0,0,0-2.48.2,13.18,13.18,0,0,0-2.07.49V237.7a49.68,49.68,0,0,1-1.14,10.39,24.19,24.19,0,0,1-4,9.3,14.53,14.53,0,0,1-4.45,4,16,16,0,0,1-6.3,1.76,10.06,10.06,0,0,0,.58,8,2.12,2.12,0,0,0,.57.08,18.12,18.12,0,0,0,7.57-1.59,20.63,20.63,0,0,0,6.19-4.25,21.67,21.67,0,0,0,3.56-4.85q4.65,10.69,17.22,10.69A23.22,23.22,0,0,0,471,269a18.21,18.21,0,0,0,7.12-6.18q3.36,8.31,12.86,8.31a3,3,0,0,0,2.72-1.29,5.13,5.13,0,0,0,.84-2.87A7.43,7.43,0,0,0,493.93,264Z"/><path class="cls-3" d="M219.53,266.41a5.2,5.2,0,0,1-.17-1.32,4.71,4.71,0,0,1-1.68-1.67c-1-1.58-1.43-4.18-1.43-7.81V239.68q0-6.84-3.07-10.84a10,10,0,0,0-8.41-4,27.47,27.47,0,0,0-3.32.24q-1.92.25-5.09.94a44.13,44.13,0,0,1-8,1.29,34.24,34.24,0,0,0-3.06-8.71,10.92,10.92,0,0,0-5.79.54,7.69,7.69,0,0,0-3.81,2.92,12.23,12.23,0,0,0,.74,3.62,29.26,29.26,0,0,0,1.78,4.2,12.1,12.1,0,0,0,1.93,2.87,16.91,16.91,0,0,1,.5,2.47,25.27,25.27,0,0,1,.19,3.27,44.63,44.63,0,0,1-2,13.85,25.75,25.75,0,0,1-5.45,9.85,10.41,10.41,0,0,1-7.76,3.61,4.94,4.94,0,0,1-4.6-2.38q-1.44-2.37-1.44-7.81v-8.42c1.59-24.65-10.77-36.92-32.2-27-16.56,7.64-19.19-.6-18.56-3.17,3-12.29,7.78-23.86,9-36.36.71-7.43,1-18.16-6.12-22.86a11.78,11.78,0,0,0-12.36.08c-5.31,3.31-6.52,10.72-6.83,16.41a62,62,0,0,0,.4,10.64c1.2,10.19,2.72,20.81,6.12,30.68l-11.26,42.3L70.9,214.35a12.89,12.89,0,0,0-4.06-.7,12.76,12.76,0,0,0-4.25.7L45.86,257.68,31.41,203.89a43.86,43.86,0,0,0,10.7-21.38c1.38-7.91.73-19.84-9.52-21a12.9,12.9,0,0,0-11.71,5.62c-2.56,3.61-3.17,8.19-3.25,12.5a87.12,87.12,0,0,0,2.45,21.8A106.85,106.85,0,0,1,.24,216.08c-.34.21-1.14,5.78,4.67,7.81a40.34,40.34,0,0,0,5.73-3.14c4.59-3,10.19-7.35,13.34-9.94.05.12.21.73.94,3.68l15.7,58.43a12.52,12.52,0,0,0,4.16.69,14,14,0,0,0,4.25-.69l17.71-46,17.81,46a12.52,12.52,0,0,0,4.16.69,14,14,0,0,0,4.25-.69l12.1-45.52c6.47,5.46,14.37,4.4,20.82,2.24,4.22-1.42,12.72-7.85,20-3,1.86,1.22,2.75,3.47,3.32,5.55a23,23,0,0,1,.65,3.46,37.59,37.59,0,0,1,.27,4.8,42.33,42.33,0,0,0-6-1.92c-4.6-1.09-10.09-1.49-14.58.25A21.15,21.15,0,0,0,118.79,248c-.21.39-.4.79-.58,1.2-4.43,11,2.48,19.23,7.16,22.19a20.35,20.35,0,0,0,26.86-4.75q3.27,7.71,12.66,7.72a20.3,20.3,0,0,0,13-4.46,28.46,28.46,0,0,0,8.65-12.46,52.1,52.1,0,0,0,3.07-18.7c0-1.06,0-2.11-.1-3.17a66.17,66.17,0,0,0,7.32-1.19c1.85-.39,3.14-.66,3.86-.79a11.44,11.44,0,0,1,2-.2,3.72,3.72,0,0,1,3.56,1.78q1,1.78,1,6.24V256.7q0,17.26,13.82,17.59A78.27,78.27,0,0,0,219.53,266.41ZM27.85,187.29a47.79,47.79,0,0,1,0-11,8.9,8.9,0,0,1,1.18-3.4c.38-.59.83-1.27,1.41-1.46.3-.09,1.85-.14,2.13,1.13,0,0,.13.74.17,1.37s.12,2.64,0,3.86a25.84,25.84,0,0,1-.74,4.45,34.79,34.79,0,0,1-3.71,9C28.11,189.93,28,188.61,27.85,187.29Zm78.78,3.34c-.51,3.07-1.69,9.76-2.3,12.8-1.79-8.23-2.43-19.89-2.18-28.45a25.88,25.88,0,0,1,.88-6,7.07,7.07,0,0,1,1-2.52,2,2,0,0,1,2-.71c1.22.19,1.67,2.38,1.77,2.77a19.18,19.18,0,0,1,.42,2l.09.76c.05.63.1,1.25.12,1.87C108.55,179,107.58,184.86,106.63,190.63Zm42.74,62.94c-1.85,12.23-8.27,12.23-12.68,12.23a11.69,11.69,0,0,1-8.85-4,7.15,7.15,0,0,1-1.84-6.25c.07-.32.15-.65.24-1s.27-.86.43-1.28c0-.09.14-.26.18-.35,2.44-5.58,10.09-5.88,11-5.84a16.41,16.41,0,0,1,4.54.72,38.76,38.76,0,0,1,7.2,2.81C149.55,251.61,149.52,252.6,149.37,253.57Z"/><path class="cls-3" d="M325.78,274.31c2.7,0,23.09,1,23.64-28.68V226.22a14.61,14.61,0,0,0-4.45-.69,15.16,15.16,0,0,0-2.47.2,14.56,14.56,0,0,0-2.08.49V244a48,48,0,0,1-1.43,8.81,22.51,22.51,0,0,1-3.62,7.72c-1.38,1.78-4.42,5.14-9.34,4.89"/><path class="cls-1" d="M325.78,274.31q-14.36,0-14.35-17.61V244q0-5.13-1.88-7.91a6.06,6.06,0,0,0-5.34-2.77q-5.25,0-8.26,6t-3,16.58v17a19.11,19.11,0,0,1-2.18.49,14,14,0,0,1-2.27.2,15,15,0,0,1-4.56-.69V245.42q0-5.83-2-9a6.71,6.71,0,0,0-6-3.11,8.43,8.43,0,0,0-6.33,2.82,19.52,19.52,0,0,0-4.21,7.91,41.26,41.26,0,0,0-1.53,11.83v17a19.11,19.11,0,0,1-2.18.49,14,14,0,0,1-2.27.2,13.51,13.51,0,0,1-4.46-.69V241.36q0-8-4.55-8a4.43,4.43,0,0,0-3.56,1.88,16.76,16.76,0,0,0-2.57,6l-3.66,14.25c-1.72,6.53-3.88,11.18-7.2,13.86-.9.73-3.15,2.16-4.11,2.76-.41-2.75.57-5.68-.11-8.37a5.08,5.08,0,0,0-.8-1.74c1.52-2.18,2.85-5.56,4-10.17l3-11.58q4.16-15.44,15.83-15.43a11.31,11.31,0,0,1,7.28,2.42,13.26,13.26,0,0,1,4.3,6.68,17.32,17.32,0,0,1,6-6.73,15.19,15.19,0,0,1,8.36-2.37q9.69,0,13.16,10a18.25,18.25,0,0,1,6.43-7.37,16.55,16.55,0,0,1,9.2-2.62q7,0,10.79,4.45t3.75,12.57v13.75c0,3.63.43,10.14,5.86,9.8h0c.92,1.92,1,6.5-.47,8.86Z"/><path class="cls-3" d="M349.92,200.4a7.13,7.13,0,0,0-9.65,0,6.81,6.81,0,1,0,11.53,4.85A6.57,6.57,0,0,0,349.92,200.4Z"/><path class="cls-1" d="M99,215.63,87.71,257.84,71,214.28a13.19,13.19,0,0,0-4.11-.7,12.76,12.76,0,0,0-4.25.7L45.87,257.62l-12.68-47.2a12,12,0,0,0-.41-1.54l-1.32-5c.07-.08-7.6,7.07-7.48,7,.05.13.19.67.92,3.63l15.72,58.64a12.52,12.52,0,0,0,4.16.69,14.58,14.58,0,0,0,4.34-.68l17.62-46.2,17.81,46.19a12.52,12.52,0,0,0,4.16.69,14,14,0,0,0,4.25-.69l12.1-45.59a22.75,22.75,0,0,1-3.65-5.16A34.84,34.84,0,0,1,99,215.63Z"/><path class="cls-4" d="M557.92,252.71c-.25.33-2.38,7.47-8.1,9.66a4.93,4.93,0,0,1-5.6-1.93,12.19,12.19,0,0,1-1.88-7.19V236.79q0-7.06-3.17-11.2a10.34,10.34,0,0,0-8.69-4.14,27.47,27.47,0,0,0-3.43.25c-1.33.17-3.09.5-5.27,1a43,43,0,0,1-6.85,1.23A50.38,50.38,0,0,0,513.5,219a28.44,28.44,0,0,0-1.84-4.14,17.55,17.55,0,0,0-5.73,1.07,9.14,9.14,0,0,0-4.19,2.51,13.51,13.51,0,0,0,.66,3.58,22.77,22.77,0,0,0,1.79,4.35,12.42,12.42,0,0,0,2.35,3.22,18.51,18.51,0,0,1,.41,3.12c.07,1.19.11,2.23.11,3.12,0,6.07-3.05,14.89-3.2,15.23-5.7,13.1-13.44,11.47-14,11.37-1.66,2.24-1.66,6.29-.24,8.63.28,0,15.56,2.34,22.47-15.16.47-1.17,2.64-3.14,4.07-19.87a28.32,28.32,0,0,0-.1-3.68c1.49-.2,3.58-.58,6.23-1.13,1.91-.4,3.24-.68,4-.81a11.31,11.31,0,0,1,2.05-.21,3.85,3.85,0,0,1,3.68,1.84q1,1.84,1,6.45v15.85c1,25,25,17.27,28.31,8.95C560.52,262.09,558.2,259.58,557.92,252.71Z"/><path class="cls-4" d="M164.17,274.3c-1.52-5.57.46-8.54.44-8.55,3.15.19,8.16-1,12.91-11.49.16-.34,3.2-9.16,3.2-15.23,0-.89,0-1.93-.1-3.12a19.28,19.28,0,0,0-.41-3.12,12.19,12.19,0,0,1-2.35-3.22,22.77,22.77,0,0,1-1.79-4.35,13.19,13.19,0,0,1-.67-3.58,9.1,9.1,0,0,1,4.2-2.51,17.49,17.49,0,0,1,5.72-1.07,27.4,27.4,0,0,1,1.84,4.14,47.68,47.68,0,0,1,1.44,4.86,45.61,45.61,0,0,0,6.85-1.23c2.18-.47,3.94-.8,5.27-1a27.69,27.69,0,0,1,3.42-.26c3.68,0,7,1.21,9.11,4s3.17,6.49,3.17,11.2l-.08,16.68c0,3.75.41,5.61,1.54,7.15,3.76,5.12,10.53-.69,11.91-4.1,5.41,1.08,6.36,4.86,6.58,6.55-4.5,8.54-28.68,16.51-29.67-8.51V241.68q0-4.59-1-6.44A3.85,3.85,0,0,0,202,233.4a12.09,12.09,0,0,0-2,.2c-.75.14-2.08.41-4,.82-2.66.55-4.74.92-6.24,1.13a25.18,25.18,0,0,1,.1,3.68c-1.43,16.73-3.54,18.72-4.06,19.87C179.11,273.62,170.05,274.38,164.17,274.3Z"/><path class="cls-3" d="M387,328.56c-.49-1.53-8.85-26.69-10.22-53.37a36,36,0,0,1-22.13-10.66v-.08a7.36,7.36,0,0,1,6.75-5.86h0c.33.38,5.47,5.93,15.17,7.44.09-10.13,1.31-20.18,4.37-29,8.25-23.78,22.57-25.63,30.37-24.61a20.09,20.09,0,0,1,17.17,17c1.18,7.25-.25,14.61-4.25,21.87a44.84,44.84,0,0,1-21.06,19.07,55.47,55.47,0,0,1-17.36,4.93,270.42,270.42,0,0,0,8.14,50.1Zm21.05-107.39c-8,0-14.27,6.31-18.59,18.78-2.73,7.86-3.8,16.95-3.87,26.21a46.23,46.23,0,0,0,13.85-4.05,36,36,0,0,0,16.92-15.21c3-5.47,4.09-10.88,3.25-16.1a11.16,11.16,0,0,0-9.45-9.49A17,17,0,0,0,408.06,221.17Z"/><path class="cls-1" d="M397.15,328.21c-9-16.21-11.3-53-11.3-53l-.26,0a43.1,43.1,0,0,1-8.84-.1h0c1.67,36.52,9.75,53.6,12.39,57.51a7.94,7.94,0,0,0,5-.61A8,8,0,0,0,397.15,328.21Z"/><path class="cls-5" d="M315.91,35.77l21.54,6.71-1.4,11.75,8.67,12.3L342.2,82.2l-17.34,5.87L322.07,73l-7.55-4.48s3.07-6.71,3.35-5.87S317,45.84,317,45.84Z"/><path class="cls-5" d="M210,130.48a2.57,2.57,0,0,0,1.77,2.18c17.17,6.68,35.42,0,44.2-16.16q9.95-18.34,19.81-36.75c.27-.5.49-1,.84-1.75a8.78,8.78,0,0,0-.9.14c-14.36,4.31-28.81,8.34-43.06,13C216.44,96.47,206.72,113.81,210,130.48Z"/><path class="cls-5" d="M201.88,68.15a2.58,2.58,0,0,0-.29,2.79C209,87.8,226.61,96,244.27,90.76q20-6,40-12c.55-.16,1.08-.37,1.84-.65a7.39,7.39,0,0,0-.74-.53c-13.2-7.11-26.28-14.47-39.65-21.24C230.48,48.65,211.34,54,201.88,68.15Z"/><path class="cls-5" d="M263.17,33.48A35.09,35.09,0,0,0,226.11,11c-3,.34-4.28,1.59-5.13,4.32C215.75,32.1,222.51,49,238.06,57.38q18.27,9.9,36.58,19.73c.5.27,1,.49,2,.94l-12.3-41C264,35.87,263.61,34.66,263.17,33.48Z"/><polygon class="cls-6" points="266.84 4.07 238.23 28.48 236.63 45.37 239.09 55.24 236.75 64.36 242.79 79.03 249.45 92.72 252.29 97.78 256.23 99.87 257.46 110.11 252.16 115.9 265.36 147.59 281.45 154.25 316.59 149.81 335.82 137.78 327.5 107.08 323.58 94.13 322.51 93.17 307.77 42.54 266.84 4.07"/><path class="cls-3" d="M333.45,131.87l-.68.09c-.69,5-5.31,10.36-9.81,12.12-5.23,2-9.54-2.19-9.28-8a2.63,2.63,0,0,1,.61-1.63l-1.87.25a1.42,1.42,0,0,1,.26,1.14,15.43,15.43,0,0,0,3,15.73,3.11,3.11,0,0,0-.42,3.56,15.62,15.62,0,0,0-4.69,6.28,16.37,16.37,0,0,0,1.11,14.1c.95,1.74.81,2.55-.69,3.89-.5.45-1.08.81-1.63,1.22,1.91,1.58,5.61,1.18,8.31-.84a14.85,14.85,0,0,0,4.92-7.32c.18,2.59-.85,4.8-2.3,7.05a7.92,7.92,0,0,0,4.61-2.36c3.5-3.57,5.36-14.21.49-22a8.46,8.46,0,0,1,1-2.73S334.86,150.87,333.45,131.87Z"/><path class="cls-3" d="M324.28,133.5a6.48,6.48,0,0,0,.79-.49l-2.4.33C322.89,134,323.2,134.07,324.28,133.5Z"/><path class="cls-3" d="M309.56,102.28s-4.81,6.65.37,14.79"/><path class="cls-3" d="M268.41,96.56c-5.67,2.74-10.66,2.78-14.42.12A10.41,10.41,0,0,1,250.41,92c-2.45-6.11-8.22-17-8.47-17.42a24.05,24.05,0,0,1-2.87-15.15,13.83,13.83,0,0,1,.91-3.06,9.89,9.89,0,0,0,.58-4.58,15.87,15.87,0,0,1,2.65-.95,5.52,5.52,0,0,0-.26,1.71c0,2.39,1.44,4.34,3.21,4.34s3.21-2,3.21-4.34a5.75,5.75,0,0,0-.2-1.52,7.07,7.07,0,0,1,3,3.15A5.43,5.43,0,0,0,250,49.09a6.82,6.82,0,0,0-2.8-1.19l-.74-.09a4.47,4.47,0,0,0-.73,0,14.09,14.09,0,0,0-1.45.08,10.37,10.37,0,0,0-4.21,1.57l0-.08a44.77,44.77,0,0,1-.59-5.26c1.76-.87,7.49-2.77,13.41,5a10.3,10.3,0,0,1,.38,1.23c0,.54.05,1.17,0,1.77s-.07,1.24-.13,1.86a25.65,25.65,0,0,1-.69,3.68c-.14.6-.35,1.19-.53,1.79l-.34.87a9.19,9.19,0,0,1-.36.86s-1.45,2.47-1.78,3a10.79,10.79,0,0,0-.56.93,4.34,4.34,0,0,0-.4,1.13,4.12,4.12,0,0,0,1.65,4.27c3,2.13,5.62,1,6.18.6a3.63,3.63,0,0,1,1.62-.8,2.39,2.39,0,0,1,1.79.41,1.74,1.74,0,0,0-1.55-1.33,4.1,4.1,0,0,0-2,.6,3.37,3.37,0,0,1-2.5.32,6.09,6.09,0,0,1-.82-.31c-3.68-1.56-1.72-4.72-1.51-5a18.52,18.52,0,0,0,3.18-6.78,22,22,0,0,0,.74-4c.06-.68.09-1.37.1-2a16.93,16.93,0,0,0-.1-2.1v-.08l0,0a12.18,12.18,0,0,0-1.52-3.35v-.07s-5.94-10.56-14.28-6c.45-8.41,3.91-12.32,3.95-12.37l-1-.93-1-.93c-.28.31-6.89,7.59-4,23.72l.06.24a7.21,7.21,0,0,1,.32,1.29l-.12.13-.23.25a1.88,1.88,0,0,0-.18.23,1.66,1.66,0,0,1-.79.59,1.51,1.51,0,0,1-.55.09.56.56,0,0,1-.51-.24.73.73,0,0,0,.37.63,2,2,0,0,0,.71.27,2.25,2.25,0,0,0,1.41-.2,6.29,6.29,0,0,1-.43,2.16A16.91,16.91,0,0,0,236.38,59a26.74,26.74,0,0,0,3.16,16.87c.06.11,6,11.17,8.34,17.15a13.13,13.13,0,0,0,4.53,5.88,13.54,13.54,0,0,0,8,2.48A21.2,21.2,0,0,0,269.6,99c.9-.44,22.13-11,29.16-25.09l-2.44-1.22C289.7,85.92,268.61,96.46,268.41,96.56Z"/><path class="cls-3" d="M271.62,75.66a8.05,8.05,0,0,1-3.18.69l-9.74-.58a2,2,0,0,0-1,.21l-.38.21a1.91,1.91,0,0,1-1.89-.09l-.24-.16a1.9,1.9,0,0,0-1.21-.29c-1.25.13-4.07.28-5.95-.65a3.22,3.22,0,0,0,1.74,2.61,33.25,33.25,0,0,0,.8,3.4c2.5,8.28,11.22,5.61,11.22,5.61,6.08-2.2,11.3-10.19,11.3-10.19C274.09,75.31,272.42,75,271.62,75.66Zm-10.76,7c-7.34,1.81-9.24-4.06-9.24-4.06l-.63-.34a16.07,16.07,0,0,0,5.46,1c7,.28,10.54-.42,11.61-.7l-.3.3C265.34,81.87,260.86,82.65,260.86,82.65Z"/><path class="cls-3" d="M286.28,47.38S279,33.91,261.89,43.81c0,0-.92,2.3.34,3.68C262.23,47.49,275.58,39.44,286.28,47.38Z"/><path class="cls-3" d="M281.36,53.89a2.47,2.47,0,0,0,1.77-.21,1.73,1.73,0,0,0,.91-1.31,1.63,1.63,0,0,1-1.15.66,1.81,1.81,0,0,1-1.11-.3,4.51,4.51,0,0,1-.95-.82,14.7,14.7,0,0,0-1.05-1.1A11.78,11.78,0,0,0,274.07,48a11.31,11.31,0,0,0-3.29-.11,7.54,7.54,0,0,0-3.2,1.15,6.16,6.16,0,0,0-2.2,2.54,5.8,5.8,0,0,0-.5,3.1,7.39,7.39,0,0,1,3.34-3.57,6.1,6.1,0,0,0-.26,1.79c0,2.61,1.56,4.73,3.49,4.73s3.5-2.12,3.5-4.73a6.11,6.11,0,0,0-.33-2,16.82,16.82,0,0,1,3.93,1.62A10.35,10.35,0,0,0,281.36,53.89Z"/><path class="cls-3" d="M353.51,121a56.12,56.12,0,0,0-18.45-13.38,19,19,0,0,0-5-.89,15.29,15.29,0,0,0-6.54-12.6,19.76,19.76,0,0,1-2,5.92,22.8,22.8,0,0,1-1.31,2.09l-1.82,2.3-.2-1.93a6.75,6.75,0,0,0-2.06-4c-.14-.13-6.33-5.87-7.31-7.33-.25-.36-.47-.75-.7-1.12s-.42-.77-.61-1.17a23.9,23.9,0,0,1-.68-3.7,23.24,23.24,0,0,0,3,4.15,38.93,38.93,0,0,0,3.61,3.54c.63.55,1.3,1.06,1.95,1.59l1,.75.26.19.15.11.15.11c.19.16.36.32.53.49a8.79,8.79,0,0,1,1.65,2.3,10.65,10.65,0,0,1,.5,1.37,30.8,30.8,0,0,0,3.24-6.17c.12-.12,6-7.64-1.11-20.9-1.53-2.82-2-4.74-1.52-6.27a41,41,0,0,0,1.75-9c.11-1.7.19-3.44.15-4.82-.34-12.24-1.68-25.36-12.13-37.89h0S287.92-10,254.81,4.62c0,0-12.2,5.37-19.05,20.53,0,0-12,17.08,1.85,30.21l1.67-1L238.35,37l1.85-4.44s6.48-11.28,17.2-13.69c0,0,2.22-6.29,10.55-12.76,0,0-7.59,8.51-8.51,12.76,0,0,6.07.49,8.32,5.18,6.66,13.87,26.87,24.06,28,25.55,3.42,4.47,2.45,11.72,2.47,11.75.71,1.18,7,5.1,8,5.93.22.19-.42,2.9-1.93,4.27-2.86,2.61-4.75,2.78-8.1.62-.16.42-.34.82-.5,1.23v0l0,.1a5.9,5.9,0,0,0-.23.67,26.69,26.69,0,0,1-2.22,5.46c.14.54,1,.6,1.79.71-.17,4.87,2,12.67,4.87,16.49,0,0-4.61,15.28-22.74,18.6,0,0-3.08.18-3,4,0,1.93-.54,15.29-.74,21.21-.18,1.7-.8,1.88-1.72,1.88h-.16c-1-.08-1.31-.94-1.35-2l-1.73-19.79c0-.1,0-.2,0-.31V120c.12-4.19-2.78-4.56-2.78-4.56l-.85-.16c-5.06-1.82-6-4.28-5.93-6.75,0-1.63-.23-8-.32-8a7.41,7.41,0,0,1-3.19-1.25,92.21,92.21,0,0,1,.74,11.42c0,.19-2.82,2.41-2.84,2.47-.28.32-12.69,4.35-16.41,5.38l-.07,0h0l-3,.84v.08A113.66,113.66,0,0,0,217.47,127a42.61,42.61,0,0,0-6.46,3.32c-1,.73-.61,1.92-.09,3a80,80,0,0,0,10.86,16.95,151.64,151.64,0,0,0,13.06,13.32,83.42,83.42,0,0,0,11.36,8.21,50.18,50.18,0,0,0,22.43,7c10.15.71,19.78-1.46,29-5.53a123.17,123.17,0,0,0,25.05-15.27l16.09-16.54c1.21-1.2,2.43-2.39,3.71-3.51,4.76-4.15,9.82-7.77,16.11-9.25.19-.05.36-.15.85-.35C357.4,125.82,355.61,123.26,353.51,121Zm-72.07-1.37a1.42,1.42,0,0,0-1.31,1.2L277.86,143a6,6,0,0,1-5.92,5.21h-.14a5.94,5.94,0,0,1-6-5.06l-2.91-22.55a1.44,1.44,0,0,0-1-1.11,20.16,20.16,0,0,1-6.52-4.52l1.54-1.54a18.09,18.09,0,0,0,5.77,4,3.63,3.63,0,0,1,2.34,2.86l2.91,22.55a4,4,0,0,0,7.76-.09L278,120.59a3.58,3.58,0,0,1,3.21-3.15c6.42-.79,15.43-4.49,21.85-17.65l1.72,1.33C297.9,115.16,288.4,118.75,281.44,119.61Zm29.31-12.22a9.33,9.33,0,0,1-.27-3.7,24.39,24.39,0,0,0,2.89,4.66A39.79,39.79,0,0,0,317,112.4c.64.63,1.33,1.23,2,1.84l1,.87.26.22.15.12.15.14a5.49,5.49,0,0,1,.53.55,9.41,9.41,0,0,1,1.61,2.55c.11.28.3,1.23.37,1.51.23,0,2.15-1.14,4.65-7.38a10.54,10.54,0,0,1-1.3,6,24.6,24.6,0,0,1-1.36,2.26l0,0a11.28,11.28,0,0,1-3.37,3.3l-.31.2-.08-1.94a7.21,7.21,0,0,0-1.94-4.47c-.14-.16-2-1.8-2-1.8l-2-2a26.62,26.62,0,0,1-3.38-4.52c-.25-.4-.45-.83-.68-1.24S310.93,107.82,310.75,107.39Zm12.86,34.27-2.36,2.12.08-1.94a7.22,7.22,0,0,0-1.59-4.61l-.49-.58s-2.88-3.15-3.18-3.51a26.69,26.69,0,0,1-3-4.78c-.22-.42-.39-.86-.59-1.28s-.33-.88-.47-1.33a8.58,8.58,0,0,1-.11-3.78,24.41,24.41,0,0,0,2.52,4.87,39.36,39.36,0,0,0,3.29,4.32c.59.68,1.23,1.33,1.84,2l1,.95.25.24.14.14.14.14c.17.19.33.39.48.59a9.14,9.14,0,0,1,1.4,2.68,6.8,6.8,0,0,1,.29,1.28l.6-.62c.58-.62,1.15-1.25,1.71-1.9s1.09-1.31,1.57-2a13.59,13.59,0,0,0,1.3-2.22C328.61,133.75,328,137.59,323.61,141.66Z"/><path class="cls-7" d="M390,20.39l1.81,5.35.1,15.34L390.31,48l.64,10.4-5.6,16.95-1.6,4-3.84,1.92-2.4.8.32,8.79,5.6,3-8.32,6.56L372.4,129,353.53,123,335.3,81.7,342,78.82s3.52-8.48,2.24-13.44-7.2-8.47-7.2-8.47V47.63l-1.39-23.69,1.23-3.59s33.35-8.86,52.5-.46"/><path class="cls-3" d="M374.75,46.07a4.22,4.22,0,0,0-1.34-1.64,4.59,4.59,0,0,0-2-.8,6.62,6.62,0,0,0-2.09.06,10.08,10.08,0,0,0-3.64,1.47,10.5,10.5,0,0,0-2.82,2.58c1.23-.4,2.36-.84,3.48-1.23.44-.15.86-.29,1.29-.42a2.84,2.84,0,0,0-.08.66,2.47,2.47,0,1,0,4.94,0,2.77,2.77,0,0,0-.25-1.16,3.22,3.22,0,0,1,.44.14,4.55,4.55,0,0,1,1.33.87A11.19,11.19,0,0,1,375.17,48,4.82,4.82,0,0,0,374.75,46.07Z"/><path class="cls-3" d="M376.78,41.25c.69-1.24-.39-2.78-.39-2.78-10-2.94-14.56,1.48-16.25,4.56-.11.2,4.5-1.86,8.93-2.38A22.35,22.35,0,0,1,376.78,41.25Z"/><path class="cls-3" d="M390.16,20.81s-1.67-4.76-2.79-7.74a11.31,11.31,0,0,0-10.07-8,81.63,81.63,0,0,0-9.38-.92,79.81,79.81,0,0,0-12.56.06c-4.56.25-11.22,0-14.61,5.91a67.25,67.25,0,0,0-2.87,7.29c-.39,1.16-.78,2.32-1.18,3.48C366.52,14.12,390.16,20.81,390.16,20.81Z"/><path class="cls-3" d="M411,102.42a31.89,31.89,0,0,0-4.79-2.46,82.67,82.67,0,0,0-12.07-5.5V94.4l-2.25-.62h-.05c-2.76-.76-7.2-2-8.79-2.39a8,8,0,0,1-1.77-.66h0a4.19,4.19,0,0,1-2.35-3.53,26.36,26.36,0,0,1,.47-5.33c.14,0,1.17-.22,1.27-.24,2.88-.59,4.48-2.45,5.43-5.14,1.41-4,3-7.94,4.38-11.94q-.16-3.64-.3-6.5a31.31,31.31,0,0,1-1.08,3.9c-1.54,4.61-3.31,9.14-5,13.72a5.82,5.82,0,0,1-4.45,3.77,15.18,15.18,0,0,1-6.47-.09,41.69,41.69,0,0,1-16.05-6.87,20.78,20.78,0,0,1-8.72-11.66c-.14-.49-.38-1-.57-1.46-2.48,1.6-3.88,1.47-6-.46a8,8,0,0,1-2.06-3.75l-.05-.29,8.47-5.05c2-1.42,3.37-9.48,4.95-10.72a44.55,44.55,0,0,1,8.93-4.9,50.58,50.58,0,0,1,11.68-2.68A47,47,0,0,1,388.19,33a1,1,0,0,1,.51.31,10,10,0,0,1,1.24,3.78,20.94,20.94,0,0,0-6.16,1.22v0c-2.44,1-2.84,5-2.9,5.77a13.36,13.36,0,0,0-.1,1.41,13.7,13.7,0,0,0,.67,4.4,30,30,0,0,0,1.69,4s2.39,3.67-1,4.3a2.82,2.82,0,0,1-.41,0c-.15,0-.24,0-.45,0a7.78,7.78,0,0,0-2.26,0c-.35.06-1,.26-1.35.34a1.32,1.32,0,0,1-1.57-1.19c0-.23,0-.41,0-.47a6,6,0,0,0-.16.88c-.16,1.57,1,1.7,1.51,1.62,0,0,2.43-.53,3.59.25.13,0,5.8,1,4.74-4.47a15.1,15.1,0,0,0-.9-2.07,36.25,36.25,0,0,1-1.57-3.74,14.81,14.81,0,0,1-.67-3.05l1.39-.49c.65-.23,1.3-.44,1.95-.62a2.72,2.72,0,0,0-.14.86,2.56,2.56,0,0,0,2.47,2.63,2.35,2.35,0,0,0,1.44-.5c.24,2.38.71,4.72.76,5.38a15.5,15.5,0,0,1-.3,4.52l.3,6.5.55-1.6a28.88,28.88,0,0,0,1.55-10.36c0-1-.93-5.19-.44-7.39.06-.26.43-.41.74-.46a39.77,39.77,0,0,0,10.78-4,20.07,20.07,0,0,0,4.6-3.68,4.64,4.64,0,0,0-.78-7l-.05,0c-4.09-2.77-8.69-4.38-13.37-5.79l-.08,0c-26-7-62.8-.46-62.8-.46-10.26,1.83-15.76,4.92-16.47,7.89-.67,2.77,3.07,5.47,4.12,6.12,5.83,3.6,15.19,6.36,15.19,6.36,0,14.81,9.19,17.29,9.39,22.53.45,12-5.94,13.24-5.94,13.24s-7.23,2.24-12.61,3.93c0,.07,0,.14,0,.22,0,3.92-4.83,6.73-2.06,9.5.1.09,1.51,1.3,2.48,2,1.67,7.81,2.92,11.75,3.51,19.76.95,1-.63,7.62-.55,7.67a91.5,91.5,0,0,0,18.56,11.31,44.78,44.78,0,0,0,21.48,4.1,37.19,37.19,0,0,0,16.62-5.22,62.43,62.43,0,0,0,8.42-6.08,113.9,113.9,0,0,0,9.67-9.86,59.61,59.61,0,0,0,8-12.56C411.42,103.84,411.69,103,411,102.42ZM389.88,43.06a6.2,6.2,0,0,0-.83-.19,6.34,6.34,0,0,0-2.09.05,10.26,10.26,0,0,0-3.64,1.47c-.27.18-.54.37-.79.57a10,10,0,0,1,.1-1.44,6.84,6.84,0,0,1,.45-1.82c.07-.17.16-.34.25-.51a22.39,22.39,0,0,1,6.79-1.14A22.33,22.33,0,0,1,389.88,43.06Zm-45,34.43a47.39,47.39,0,0,0,1.67-6.92c0-.18.12-.35.15-.54.21-1.46.41-2.92.61-4.35,5.23,10.12,22.24,17,29.85,16.29a25.24,25.24,0,0,0,0,7.61,35.58,35.58,0,0,1-6.58,1.76c-1.78.37-2.44,1.3-2.33,3.85L368,101l-.81,11.87a1.62,1.62,0,0,1-1.51,1.57h-.13a1.27,1.27,0,0,1-1.27-.92L362.84,95c0-3.66-1.82-3.23-3-3.58-11.5-3.4-14.76-9.37-15.69-12.47A7.28,7.28,0,0,0,344.85,77.49Zm29.34,17.59-.34.06c-.61.1-1.25.4-1.38,1.91L371,114.91a5.59,5.59,0,0,1-5.35,5.28h-.22c-2.43,0-4.63-2.27-4.94-5.22l-2.09-18.31c-.12-.64-1.09-.91-1.76-1.13-13-4.33-17.56-13.33-17.75-13.74l1.69-.62c0,.09,4.51,8.84,16.89,13,1.16.38,2.51,1.07,2.72,2.27l2.1,18.36c.18,1.71,1.12,3.68,3.22,3.64h.1a3.58,3.58,0,0,0,3.59-3.63l1.48-17.88c.21-2.34,1.52-3,2.58-3.22l.35-.05a10.51,10.51,0,0,0,5.63-2l1.71.8A14,14,0,0,1,374.19,95.08Z"/><path class="cls-3" d="M368.23,95.28a1.85,1.85,0,0,1,0,.24Z"/><path class="cls-3" d="M362.85,96.2c0-.2,0-.47,0-.82C362.85,95.62,362.85,95.94,362.85,96.2Z"/><path class="cls-3" d="M362.84,95.23v0Z"/><path class="cls-3" d="M385,64.32a1.54,1.54,0,0,0,.11-1,.22.22,0,0,0-.36-.12,8.68,8.68,0,0,1-2.64,1,46.41,46.41,0,0,1-11.44-.59,2.76,2.76,0,0,1-1-.74,1.13,1.13,0,0,0-1.14-.25s-1.55,1.22,2.68,2.25h0a24.16,24.16,0,0,0,9.48,1.4,6.74,6.74,0,0,0,3.71-1.35A2.57,2.57,0,0,0,385,64.32Z"/><path class="cls-3" d="M381.81,68.12l-7.41.35S379.54,71.13,381.81,68.12Z"/></g></g></svg>