<svg xmlns="http://www.w3.org/2000/svg" viewBox="0 0 421.78 181.63"><defs><style>.cls-1{fill:#a62767;}.cls-2{fill:#ea5a2f;}.cls-3,.cls-6{fill:#38050e;}.cls-4{fill:#400f18;}.cls-5{fill:#e95a30;}.cls-6{font-size:37.95px;font-family:HelveticaNeue-Bold, Helvetica Neue;font-weight:700;}.cls-7{fill:#eb5a2d;font-family:HelveticaNeue-MediumItalic, Helvetica Neue;font-weight:500;font-style:italic;}</style></defs><g id="Capa_2" data-name="Capa 2"><g id="Capa_1-2" data-name="Capa 1"><path class="cls-1" d="M114.61,35.77l21.53,6.71-1.4,11.75,8.67,12.3L140.89,82.2l-17.33,5.87L120.76,73l-7.55-4.48s3.07-6.71,3.35-5.87-.83-16.78-.83-16.78Z"/><path class="cls-1" d="M8.69,130.48a2.6,2.6,0,0,0,1.77,2.18c17.17,6.68,35.42,0,44.2-16.16q9.95-18.34,19.81-36.75c.27-.5.5-1,.84-1.75a8.78,8.78,0,0,0-.9.14c-14.36,4.31-28.81,8.34-43.06,13C15.13,96.47,5.41,113.81,8.69,130.48Z"/><path class="cls-1" d="M.57,68.15a2.58,2.58,0,0,0-.29,2.79C7.71,87.8,25.31,96,43,90.76q20-6,40-12c.54-.16,1.07-.37,1.83-.65a7.61,7.61,0,0,0-.73-.53C70.85,70.48,57.78,63.12,44.4,56.35,29.17,48.65,10,54,.57,68.15Z"/><path class="cls-1" d="M61.87,33.48A35.1,35.1,0,0,0,24.8,11c-3,.34-4.28,1.59-5.13,4.32C14.44,32.1,21.2,49,36.75,57.38Q55,67.28,73.33,77.11c.51.27,1,.49,2,.94-4.19-14-8.24-27.48-12.3-41C62.67,35.87,62.31,34.66,61.87,33.48Z"/><polygon class="cls-2" points="65.53 4.07 36.92 28.48 35.32 45.37 37.79 55.24 35.44 64.36 41.49 79.03 48.14 92.72 50.98 97.78 54.92 99.87 56.16 110.11 50.86 115.9 64.05 147.59 80.14 154.25 115.28 149.81 134.51 137.78 126.19 107.08 122.27 94.13 121.2 93.17 106.46 42.54 65.53 4.07"/><path class="cls-3" d="M132.14,131.87l-.68.09c-.69,5-5.31,10.36-9.8,12.12-5.24,2-9.55-2.19-9.29-8a2.63,2.63,0,0,1,.61-1.63l-1.87.25a1.46,1.46,0,0,1,.27,1.14,15.4,15.4,0,0,0,3,15.73,3.1,3.1,0,0,0-.41,3.56,15.56,15.56,0,0,0-4.7,6.28,16.34,16.34,0,0,0,1.12,14.1c.94,1.74.8,2.55-.7,3.89-.5.45-1.08.81-1.63,1.22,1.91,1.58,5.62,1.18,8.32-.84a15,15,0,0,0,4.92-7.32c.17,2.59-.86,4.8-2.31,7.05a7.92,7.92,0,0,0,4.61-2.36c3.5-3.57,5.37-14.21.5-22a8,8,0,0,1,1-2.73S133.55,150.87,132.14,131.87Z"/><path class="cls-4" d="M123,133.5a7.34,7.34,0,0,0,.79-.49l-2.41.33C121.59,134,121.89,134.07,123,133.5Z"/><path class="cls-3" d="M108.25,102.28s-4.81,6.65.37,14.79"/><path class="cls-3" d="M67.1,96.56c-5.67,2.74-10.66,2.78-14.42.12A10.48,10.48,0,0,1,49.1,92c-2.45-6.11-8.22-17-8.46-17.42a24,24,0,0,1-2.88-15.15,13.83,13.83,0,0,1,.91-3.06,9.76,9.76,0,0,0,.58-4.58,15.87,15.87,0,0,1,2.65-.95,5.84,5.84,0,0,0-.26,1.71c0,2.39,1.44,4.34,3.21,4.34s3.21-2,3.21-4.34a5.75,5.75,0,0,0-.2-1.52,7.07,7.07,0,0,1,3,3.15,5.45,5.45,0,0,0-2.18-5.09,6.87,6.87,0,0,0-2.8-1.19l-.74-.09a4.65,4.65,0,0,0-.74,0,14.09,14.09,0,0,0-1.45.08,10.37,10.37,0,0,0-4.21,1.57l0-.08a42.86,42.86,0,0,1-.6-5.26c1.77-.87,7.5-2.77,13.42,5A12.53,12.53,0,0,1,52,50.31c0,.54,0,1.17,0,1.77s-.06,1.24-.13,1.86a27.08,27.08,0,0,1-.68,3.68c-.15.6-.35,1.19-.54,1.79-.1.29-.22.58-.34.87a7.12,7.12,0,0,1-.36.86s-1.45,2.47-1.78,3a10.79,10.79,0,0,0-.56.93,4.34,4.34,0,0,0-.4,1.13,4.12,4.12,0,0,0,1.65,4.27c3,2.13,5.62,1,6.19.6a3.55,3.55,0,0,1,1.61-.8,2.41,2.41,0,0,1,1.8.41,1.75,1.75,0,0,0-1.56-1.33,4.13,4.13,0,0,0-2,.6,3.32,3.32,0,0,1-1.66.43,3.2,3.2,0,0,1-.83-.11,5.23,5.23,0,0,1-.82-.31c-3.68-1.56-1.73-4.72-1.51-5a18.85,18.85,0,0,0,3.18-6.78,21.92,21.92,0,0,0,.73-4c.06-.68.1-1.37.1-2A15.19,15.19,0,0,0,54,50v-.08l0,0a12.18,12.18,0,0,0-1.52-3.35v-.07s-5.93-10.56-14.28-6c.46-8.41,3.91-12.32,4-12.37l-1-.93-1-.93c-.28.31-6.88,7.59-4,23.72l.07.24a9.31,9.31,0,0,1,.31,1.29l-.12.13-.22.25c-.07.09-.16.18-.19.23a1.63,1.63,0,0,1-.78.59,1.56,1.56,0,0,1-.56.09.54.54,0,0,1-.5-.24.7.7,0,0,0,.36.63,2,2,0,0,0,.71.27,2.29,2.29,0,0,0,1.42-.2,6.53,6.53,0,0,1-.43,2.16A17,17,0,0,0,35.07,59a26.84,26.84,0,0,0,3.17,16.87C38.3,76,44.18,87,46.58,93a13.06,13.06,0,0,0,4.53,5.88,13.48,13.48,0,0,0,8,2.48A21.16,21.16,0,0,0,68.29,99c.9-.44,22.13-11,29.16-25.09L95,72.69C88.4,85.92,67.3,96.46,67.1,96.56Z"/><path class="cls-3" d="M70.31,75.66a8,8,0,0,1-3.18.69l-9.74-.58a2,2,0,0,0-1,.21l-.38.21a1.91,1.91,0,0,1-1.89-.09l-.23-.16a1.93,1.93,0,0,0-1.22-.29c-1.25.13-4.07.28-5.94-.65a3.22,3.22,0,0,0,1.73,2.61,33.25,33.25,0,0,0,.8,3.4c2.5,8.28,11.22,5.61,11.22,5.61,6.08-2.2,11.3-10.19,11.3-10.19C72.78,75.31,71.11,75,70.31,75.66Zm-10.76,7c-7.34,1.81-9.24-4.06-9.24-4.06l-.63-.34a16.08,16.08,0,0,0,5.47,1c7,.28,10.53-.42,11.6-.7l-.3.3C64,81.87,59.55,82.65,59.55,82.65Z"/><path class="cls-3" d="M85,47.38s-7.25-13.47-24.4-3.57c0,0-.92,2.3.35,3.68C60.93,47.49,74.27,39.44,85,47.38Z"/><path class="cls-3" d="M80.06,53.89a2.45,2.45,0,0,0,1.76-.21,1.73,1.73,0,0,0,.91-1.31,1.63,1.63,0,0,1-1.15.66,1.83,1.83,0,0,1-1.11-.3,4.51,4.51,0,0,1-1-.82,14.7,14.7,0,0,0-1-1.1A11.73,11.73,0,0,0,72.76,48a11.24,11.24,0,0,0-3.28-.11A7.58,7.58,0,0,0,66.27,49a6.24,6.24,0,0,0-2.2,2.54,5.8,5.8,0,0,0-.5,3.1,7.39,7.39,0,0,1,3.34-3.57,6.1,6.1,0,0,0-.26,1.79c0,2.61,1.57,4.73,3.5,4.73s3.49-2.12,3.49-4.73a6.11,6.11,0,0,0-.33-2,16.89,16.89,0,0,1,3.94,1.62A10.21,10.21,0,0,0,80.06,53.89Z"/><path class="cls-3" d="M152.2,121a55.92,55.92,0,0,0-18.45-13.38,18.89,18.89,0,0,0-5-.89,15.27,15.27,0,0,0-6.54-12.6,19.32,19.32,0,0,1-2,5.92,22.9,22.9,0,0,1-1.32,2.09l-1.82,2.3-.2-1.93a6.74,6.74,0,0,0-2-4c-.14-.13-6.34-5.87-7.32-7.33-.25-.36-.47-.75-.7-1.12s-.42-.77-.61-1.17a23.9,23.9,0,0,1-.68-3.7,23.75,23.75,0,0,0,3,4.15,40.21,40.21,0,0,0,3.61,3.54c.63.55,1.3,1.06,2,1.59l1,.75.25.19.15.11.15.11a6.27,6.27,0,0,1,.53.49,8.79,8.79,0,0,1,1.65,2.3,10.65,10.65,0,0,1,.5,1.37,30.23,30.23,0,0,0,3.24-6.17c.13-.12,6-7.64-1.11-20.9-1.52-2.82-2-4.74-1.51-6.27a41,41,0,0,0,1.74-9c.12-1.7.19-3.44.15-4.82-.33-12.24-1.68-25.36-12.13-37.89h0S86.61-10,53.51,4.62c0,0-12.21,5.37-19,20.53,0,0-12,17.08,1.85,30.21l1.66-1L37.05,37l1.85-4.44s6.47-11.28,17.2-13.69c0,0,2.22-6.29,10.54-12.76,0,0-7.58,8.51-8.51,12.76,0,0,6.07.49,8.32,5.18,6.66,13.87,26.88,24.06,28,25.55,3.43,4.47,2.45,11.72,2.47,11.75.71,1.18,7,5.1,8,5.93.22.19-.42,2.9-1.93,4.27-2.86,2.61-4.75,2.78-8.09.62-.17.42-.35.82-.51,1.23v0l0,.1c-.08.22-.16.45-.23.67a26.13,26.13,0,0,1-2.22,5.46c.15.54,1,.6,1.79.71-.17,4.87,2,12.67,4.87,16.49,0,0-4.61,15.28-22.73,18.6,0,0-3.09.18-3,4,0,1.93-.54,15.29-.74,21.21-.18,1.7-.8,1.88-1.72,1.88h-.16c-1-.08-1.31-.94-1.35-2l-1.73-19.79c0-.1,0-.2,0-.31V120c.12-4.19-2.78-4.56-2.78-4.56l-.85-.16c-5.06-1.82-6-4.28-5.92-6.75,0-1.63-.24-8-.33-8a7.41,7.41,0,0,1-3.19-1.25,92.21,92.21,0,0,1,.74,11.42c0,.19-2.82,2.41-2.83,2.47-.29.32-12.7,4.35-16.42,5.38l-.07,0h0l-3,.84v.08A112.68,112.68,0,0,0,16.17,127a42.64,42.64,0,0,0-6.47,3.32c-1,.73-.61,1.92-.09,3a79.66,79.66,0,0,0,10.87,16.95A151.88,151.88,0,0,0,33.53,163.6a84,84,0,0,0,11.36,8.21,50.18,50.18,0,0,0,22.44,7c10.14.71,19.77-1.46,29-5.53a123.52,123.52,0,0,0,25.06-15.27l16.09-16.54c1.2-1.2,2.42-2.39,3.7-3.51,4.76-4.15,9.82-7.77,16.12-9.25.18-.05.35-.15.84-.35C156.09,125.82,154.3,123.26,152.2,121Zm-72.07-1.37a1.41,1.41,0,0,0-1.3,1.2L76.55,143a6,6,0,0,1-5.92,5.21h-.14a6,6,0,0,1-6-5.06l-2.91-22.55a1.45,1.45,0,0,0-1-1.11,20.26,20.26,0,0,1-6.53-4.52l1.54-1.54a18.09,18.09,0,0,0,5.77,4,3.61,3.61,0,0,1,2.34,2.86l2.91,22.55a4,4,0,0,0,7.76-.09l2.28-22.16a3.6,3.6,0,0,1,3.21-3.15c6.43-.79,15.44-4.49,21.85-17.65l1.72,1.33C96.6,115.16,87.1,118.75,80.13,119.61Zm29.31-12.22a9.15,9.15,0,0,1-.26-3.7,23.86,23.86,0,0,0,2.88,4.66,39.79,39.79,0,0,0,3.62,4.05c.65.63,1.33,1.23,2,1.84l1,.87.26.22.15.12.15.14a7,7,0,0,1,.54.55,9.37,9.37,0,0,1,1.6,2.55c.11.28.3,1.23.38,1.51.23,0,2.14-1.14,4.64-7.38a10.54,10.54,0,0,1-1.3,6,24.6,24.6,0,0,1-1.36,2.26v0a11.43,11.43,0,0,1-3.38,3.3l-.3.2L120,122.7a7.21,7.21,0,0,0-1.94-4.47c-.15-.16-2-1.8-2-1.8s-1.68-1.66-2-2a26.1,26.1,0,0,1-3.38-4.52c-.25-.4-.46-.83-.69-1.24S109.62,107.82,109.44,107.39Zm12.86,34.27L120,143.78l.07-1.94a7.21,7.21,0,0,0-1.58-4.61l-.5-.58s-2.88-3.15-3.17-3.51a26.19,26.19,0,0,1-3-4.78c-.22-.42-.39-.86-.58-1.28s-.34-.88-.48-1.33a8.44,8.44,0,0,1-.1-3.78,24.37,24.37,0,0,0,2.51,4.87,40.65,40.65,0,0,0,3.29,4.32c.59.68,1.23,1.33,1.84,2l1,.95.25.24.14.14.14.14a6.66,6.66,0,0,1,.49.59,9.38,9.38,0,0,1,1.4,2.68,7.66,7.66,0,0,1,.28,1.28l.6-.62c.58-.62,1.16-1.25,1.71-1.9s1.09-1.31,1.57-2a12.91,12.91,0,0,0,1.3-2.22C127.3,133.75,126.7,137.59,122.3,141.66Z"/><path class="cls-5" d="M188.69,20.39l1.82,5.35.09,15.34L189,48l.64,10.4L184,75.3l-1.6,4-3.84,1.92-2.39.8.32,8.79,5.59,3-8.31,6.56L171.09,129,152.22,123,134,81.7l6.71-2.88s3.52-8.48,2.24-13.44-7.19-8.47-7.19-8.47V47.63l-1.39-23.69,1.23-3.59s33.34-8.86,52.49-.46"/><path class="cls-3" d="M173.44,46.07a4.13,4.13,0,0,0-1.34-1.64,4.59,4.59,0,0,0-2-.8,6.63,6.63,0,0,0-2.09.06,10.08,10.08,0,0,0-3.64,1.47,10.46,10.46,0,0,0-2.81,2.58c1.22-.4,2.35-.84,3.48-1.23l1.28-.42a2.84,2.84,0,0,0-.08.66,2.48,2.48,0,1,0,4.95,0,2.78,2.78,0,0,0-.26-1.16,3.88,3.88,0,0,1,.45.14,4.64,4.64,0,0,1,1.32.87A11.19,11.19,0,0,1,173.86,48,4.65,4.65,0,0,0,173.44,46.07Z"/><path class="cls-3" d="M175.48,41.25c.68-1.24-.4-2.78-.4-2.78-10-2.94-14.55,1.48-16.25,4.56-.11.2,4.5-1.86,8.93-2.38A22.43,22.43,0,0,1,175.48,41.25Z"/><path class="cls-3" d="M188.85,20.81s-1.67-4.76-2.78-7.74a11.32,11.32,0,0,0-10.08-8,81.63,81.63,0,0,0-9.38-.92,79.81,79.81,0,0,0-12.56.06c-4.56.25-11.22,0-14.61,5.91a69.31,69.31,0,0,0-2.86,7.29c-.4,1.16-.79,2.32-1.18,3.48C165.21,14.12,188.85,20.81,188.85,20.81Z"/><path class="cls-3" d="M209.66,102.42a31.42,31.42,0,0,0-4.79-2.46,82.87,82.87,0,0,0-12.06-5.5V94.4l-2.26-.62h-.05c-2.75-.76-7.19-2-8.78-2.39a8.31,8.31,0,0,1-1.78-.66h0a4.19,4.19,0,0,1-2.35-3.53,26.36,26.36,0,0,1,.47-5.33c.14,0,1.18-.22,1.28-.24,2.87-.59,4.47-2.45,5.42-5.14,1.41-4,3-7.94,4.38-11.94q-.17-3.64-.29-6.5a33.14,33.14,0,0,1-1.08,3.9c-1.55,4.61-3.32,9.14-5,13.72a5.86,5.86,0,0,1-4.45,3.77,15.22,15.22,0,0,1-6.48-.09,41.58,41.58,0,0,1-16-6.87,20.8,20.8,0,0,1-8.73-11.66c-.14-.49-.37-1-.57-1.46-2.48,1.6-3.88,1.47-6-.46a7.86,7.86,0,0,1-2.06-3.75s0-.11-.06-.29l8.47-5.05c2-1.42,3.37-9.48,5-10.72a44.82,44.82,0,0,1,8.93-4.9,50.58,50.58,0,0,1,11.68-2.68A47,47,0,0,1,186.88,33a1,1,0,0,1,.51.31,9.82,9.82,0,0,1,1.24,3.78,20.82,20.82,0,0,0-6.15,1.22v0c-2.44,1-2.84,5-2.9,5.77-.05.47-.09.94-.1,1.41a14,14,0,0,0,.67,4.4,28.74,28.74,0,0,0,1.7,4s2.39,3.67-1,4.3a2.75,2.75,0,0,1-.41,0c-.14,0-.24,0-.45,0a7.78,7.78,0,0,0-2.26,0c-.35.06-1,.26-1.35.34a1.31,1.31,0,0,1-1.56-1.19,3.58,3.58,0,0,1,0-.47,6,6,0,0,0-.16.88c-.16,1.57,1,1.7,1.51,1.62,0,0,2.43-.53,3.59.25.13,0,5.8,1,4.75-4.47a16.23,16.23,0,0,0-.91-2.07A36.25,36.25,0,0,1,182,49.28a14.17,14.17,0,0,1-.66-3.05l1.38-.49c.65-.23,1.31-.44,1.95-.62a2.72,2.72,0,0,0-.14.86A2.56,2.56,0,0,0,187,48.61a2.39,2.39,0,0,0,1.44-.5c.23,2.38.7,4.72.76,5.38a15.85,15.85,0,0,1-.31,4.52l.3,6.5c.18-.53.38-1.07.55-1.6a28.89,28.89,0,0,0,1.56-10.36c-.05-1-.94-5.19-.45-7.39.06-.26.43-.41.74-.46a39.65,39.65,0,0,0,10.78-4,20.07,20.07,0,0,0,4.6-3.68,4.64,4.64,0,0,0-.78-7l0,0c-4.09-2.77-8.69-4.38-13.37-5.79l-.07,0c-26-7-62.81-.46-62.81-.46-10.26,1.83-15.75,4.92-16.47,7.89-.66,2.77,3.07,5.47,4.12,6.12,5.84,3.6,15.19,6.36,15.19,6.36,0,14.81,9.2,17.29,9.39,22.53.46,12-5.94,13.24-5.94,13.24s-7.22,2.24-12.61,3.93c0,.07,0,.14,0,.22,0,3.92-4.83,6.73-2,9.5.09.09,1.5,1.3,2.47,2,1.68,7.81,2.92,11.75,3.51,19.76,1,1-.62,7.62-.55,7.67a91.5,91.5,0,0,0,18.56,11.31,44.78,44.78,0,0,0,21.48,4.1,37.11,37.11,0,0,0,16.62-5.22,61.8,61.8,0,0,0,8.42-6.08,113.9,113.9,0,0,0,9.67-9.86,59.65,59.65,0,0,0,8-12.56C210.11,103.84,210.39,103,209.66,102.42ZM188.57,43.06a5.87,5.87,0,0,0-.83-.19,6.35,6.35,0,0,0-2.09.05A10.13,10.13,0,0,0,182,44.39c-.28.18-.54.37-.8.57a11.61,11.61,0,0,1,.1-1.44,6.84,6.84,0,0,1,.45-1.82c.07-.17.16-.34.25-.51a22.41,22.41,0,0,1,6.8-1.14A24.21,24.21,0,0,1,188.57,43.06Zm-45,34.43a47.39,47.39,0,0,0,1.67-6.92c0-.18.11-.35.14-.54.21-1.46.41-2.92.61-4.35,5.24,10.12,22.24,17,29.86,16.29a25.19,25.19,0,0,0,0,7.61,35.58,35.58,0,0,1-6.58,1.76c-1.77.37-2.44,1.3-2.33,3.85l-.19,5.83-.8,11.87a1.64,1.64,0,0,1-1.52,1.57h-.13a1.27,1.27,0,0,1-1.27-.92L161.53,95c0-3.66-1.81-3.23-3-3.58C147,88.05,143.76,82.08,142.83,79A7.32,7.32,0,0,0,143.55,77.49Zm29.33,17.59-.33.06c-.61.1-1.25.4-1.39,1.91l-1.48,17.86a5.59,5.59,0,0,1-5.34,5.28h-.23c-2.43,0-4.62-2.27-4.94-5.22l-2.09-18.31c-.11-.64-1.09-.91-1.75-1.13-13-4.33-17.57-13.33-17.75-13.74l1.68-.62c0,.09,4.51,8.84,16.89,13,1.17.38,2.51,1.07,2.72,2.27l2.1,18.36c.18,1.71,1.12,3.68,3.22,3.64h.1a3.58,3.58,0,0,0,3.59-3.63l1.48-17.88c.21-2.34,1.52-3,2.58-3.22l.36-.05a10.51,10.51,0,0,0,5.62-2l1.71.8A14,14,0,0,1,172.88,95.08Z"/><path class="cls-3" d="M166.92,95.28v0Z"/><path class="cls-3" d="M161.54,96.2v0Z"/><path class="cls-3" d="M161.54,95.23v0Z"/><path class="cls-3" d="M183.66,64.32a1.54,1.54,0,0,0,.11-1,.22.22,0,0,0-.35-.12,8.8,8.8,0,0,1-2.65,1,46.5,46.5,0,0,1-11.44-.59,2.85,2.85,0,0,1-1-.74c-.38-.49-1.14-.25-1.14-.25s-1.55,1.22,2.68,2.25h0a24.19,24.19,0,0,0,9.48,1.4,6.74,6.74,0,0,0,3.71-1.35A2.39,2.39,0,0,0,183.66,64.32Z"/><path class="cls-3" d="M180.5,68.12l-7.41.35S178.23,71.13,180.5,68.12Z"/><text class="cls-6" transform="translate(229.17 35.74)">Unión que<tspan x="0" y="39.6">construye</tspan><tspan class="cls-7"><tspan x="0" y="79.2">realidades </tspan><tspan x="0" y="118.8">más justas</tspan></tspan></text></g></g></svg>