<svg xmlns="http://www.w3.org/2000/svg" viewBox="0 0 253.6 167.04"><defs><style>.cls-1{fill:#202670;}.cls-2{fill:#e53b33;}.cls-3{fill:#fe7f30;}.cls-4{font-size:30.43px;font-family:HelveticaNeue-Medium, Helvetica Neue;font-weight:500;letter-spacing:0.6em;}.cls-5{letter-spacing:0.51em;}.cls-6{letter-spacing:0.6em;}</style></defs><g id="Capa_2" data-name="Capa 2"><g id="Capa_1-2" data-name="Capa 1"><path d="M15.28,53.6,0,1.17H9.39L20.2,40.59h.32L32.24,1.17h8.22L52.89,40.59h.26L63.83,1.17h9.45L58,53.6h-9.2L36.45,13.4h-.26L24.47,53.6Z"/><path d="M121.32,53.6v-30h-4.47V14.76H126v7.45h2.72a11.67,11.67,0,0,1,5-5.83,15,15,0,0,1,7.8-2h3.23V22h-3.62c-3.67,0-6.44,1.05-8.32,3.17A12.28,12.28,0,0,0,130,33.6v20Z"/><path d="M153.3,53.6v-30h-4.47V14.76H158v6.15h3a12.55,12.55,0,0,1,5.08-5.08,18.56,18.56,0,0,1,15.8,0A13.23,13.23,0,0,1,187.16,21h.19q4.28-7,13.34-7,7.31,0,11.52,4.24t4.21,11.55V53.6h-8.81V31.4q0-9.58-9.19-9.58t-9.19,9.58V53.6h-8.81V31.4q0-9.58-9.25-9.58-4.47,0-6.77,2.42t-2.3,7.16V53.6Z"/><path d="M230.47,10.1a4.94,4.94,0,0,1-3.57-1.46,4.83,4.83,0,0,1-1.48-3.59,4.91,4.91,0,0,1,1.45-3.56A4.84,4.84,0,0,1,230.47,0,4.93,4.93,0,0,1,234,1.46a4.84,4.84,0,0,1,1.49,3.59,4.92,4.92,0,0,1-1.46,3.56A4.84,4.84,0,0,1,230.47,10.1Zm-4.41,43.5V14.76h8.81V53.6Z"/><path d="M14,116.08V63.64H38.11q8.74,0,13.56,4.37T56.5,80q0,7.58-4.83,12T38.11,96.4H23v19.68ZM23,88.7H37.59q4.86,0,7.38-2.33A8.21,8.21,0,0,0,47.5,80,8.15,8.15,0,0,0,45,73.65q-2.52-2.3-7.38-2.3H23Z"/><path d="M79.28,116.79q-7.75,0-12.07-4.2t-4.3-11.46V77.24h8.8V99.38q0,4.78,2.46,7.22T81.49,109c3.32,0,5.9-.87,7.73-2.59A9.47,9.47,0,0,0,92,99.19v-22h8.81v30h4.46v8.87H96.12v-6.15H93.4a14.61,14.61,0,0,1-5.63,5.12A18.66,18.66,0,0,1,79.28,116.79Z"/><path d="M114.11,116.08v-30h-4.46V77.24h9.19v7.44h2.72a11.62,11.62,0,0,1,5-5.82,15.05,15.05,0,0,1,7.8-2h3.24v7.58h-3.63c-3.67,0-6.44,1-8.32,3.17a12.33,12.33,0,0,0-2.81,8.48v20Z"/><path d="M106.81,38.69a48.35,48.35,0,0,0,1.25-9.7q0-8.68-5.63-13.45a18.15,18.15,0,0,0-12-4q-8,0-12.73,2.94-2.49,1.56-2.49,3.21a7.84,7.84,0,0,0,1,2.95c.63,1.33,1.28,2,2,2a3.41,3.41,0,0,0,1.59-.49,19.8,19.8,0,0,1,9.37-2.53q5.13,0,8,2.53A8.67,8.67,0,0,1,99.3,25.4a10.54,10.54,0,0,1,.75,3.85c0,1.29,0,2.36-.11,3.21a16.89,16.89,0,0,0-11.26-3.89q-6.65,0-10.88,3-5.13,3.69-5.13,10.69a12.82,12.82,0,0,0,4.68,10.31,14.34,14.34,0,0,0,4.76,2.62,17.06,17.06,0,0,0,5.36.89,18.82,18.82,0,0,0,4.91-.6,14.43,14.43,0,0,0,9.26-7.14h7.93A73.62,73.62,0,0,0,106.81,38.69Zm-11,7.52A10.33,10.33,0,0,1,93,47.76a12.73,12.73,0,0,1-4.25.6,7.41,7.41,0,0,1-4.67-1.62,5.56,5.56,0,0,1-1.53-2A6.54,6.54,0,0,1,82,42a5.17,5.17,0,0,1,.66-2.66,8,8,0,0,1,2.21-2.29,7,7,0,0,1,4.3-1.15,12,12,0,0,1,6.16,1.51,5.48,5.48,0,0,1,3.13,4.46C98.46,43.42,97.6,44.85,95.86,46.21Z"/><rect x="103.95" y="44.93" width="9.13" height="9.13"/><path d="M174.11,100.85a47.72,47.72,0,0,0,1.25-9.71q0-8.69-5.63-13.44a18.08,18.08,0,0,0-12-4q-8,0-12.73,3-2.49,1.54-2.49,3.21a7.87,7.87,0,0,0,1,2.94c.63,1.34,1.29,2,2,2a3.5,3.5,0,0,0,1.59-.49,19.84,19.84,0,0,1,9.37-2.54q5.13,0,8,2.54a8.48,8.48,0,0,1,2.15,3.21,10.5,10.5,0,0,1,.75,3.85c0,1.28,0,2.35-.11,3.21A16.86,16.86,0,0,0,156,90.73q-6.66,0-10.88,3Q140,97.42,140,104.4a12.8,12.8,0,0,0,4.68,10.31,14.37,14.37,0,0,0,4.76,2.63,17.06,17.06,0,0,0,5.37.88,18.93,18.93,0,0,0,4.91-.6,14.41,14.41,0,0,0,9.25-7.14h7.93A72,72,0,0,0,174.11,100.85Zm-11,7.52a10.45,10.45,0,0,1-2.87,1.55,12.69,12.69,0,0,1-4.25.6,7.38,7.38,0,0,1-4.66-1.62,5.29,5.29,0,0,1-1.53-2,6.35,6.35,0,0,1-.55-2.72,5.2,5.2,0,0,1,.66-2.66,7.94,7.94,0,0,1,2.21-2.28,7.08,7.08,0,0,1,4.31-1.16,12.13,12.13,0,0,1,6.15,1.51,5.5,5.5,0,0,1,3.14,4.46Q165.77,106.32,163.16,108.37Z"/><rect x="171.25" y="107.08" width="9.13" height="9.13"/><rect class="cls-1" x="103.95" y="44.93" width="9.13" height="9.13"/><rect class="cls-2" x="96.12" y="107.08" width="9.13" height="9.13"/><rect class="cls-3" x="171.22" y="107.08" width="9.19" height="9.13"/><text class="cls-4" transform="translate(10.79 158.3)">DIGI<tspan class="cls-5" x="135.02" y="0">T</tspan><tspan class="cls-6" x="168.53" y="0">AL</tspan></text><circle class="cls-3" cx="213.09" cy="89.23" r="14.69"/><rect class="cls-3" x="206.22" y="105.89" width="13.15" height="2.21" transform="translate(1.8 -3.51) rotate(0.95)"/><rect class="cls-3" x="206.13" y="108.92" width="13.15" height="2.21" transform="translate(1.85 -3.5) rotate(0.95)"/><rect class="cls-3" x="206.67" y="111.13" width="11.53" height="2.21" transform="translate(1.89 -3.5) rotate(0.95)"/><rect class="cls-3" x="209.04" y="113.35" width="7.52" height="2.72" transform="translate(1.93 -3.5) rotate(0.95)"/><path d="M207.91,105l3.08,0c-.18-.89-.36-1.76-.55-2.63-.58-2.68-1.17-5.36-1.75-8-.11-.53-.3-.93-.91-1.06a.79.79,0,0,1-.41-.63c0-.36.29-.54.66-.52a1.81,1.81,0,0,1,1.34.78c.18.23.32.48.49.71.4.56.72.57,1.14,0,.19-.24.35-.49.55-.72a1.72,1.72,0,0,1,2.86.06c.22.28.39.59.61.86s.61.36.92,0a4.92,4.92,0,0,1,.62-.79,4.83,4.83,0,0,1,1.25-.75.6.6,0,1,1,.22,1.18c-.5.07-.68.44-.79.86-.48,2-1,3.93-1.42,5.89-.39,1.59-.77,3.18-1.17,4.81l3,0a28.1,28.1,0,0,1,.48-2.82A9.15,9.15,0,0,1,221,97.8a11.74,11.74,0,0,0-5.44-20.19,11.7,11.7,0,0,0-9.3,2c-.43.31-.79.29-1,0s-.12-.65.32-1a13,13,0,0,1,20.24,8,12.54,12.54,0,0,1-3.89,12,8.84,8.84,0,0,0-2.92,6.13c0,.33,0,.52.42.65a1.92,1.92,0,0,1,.65,3.12.53.53,0,0,0-.15.63,1.88,1.88,0,0,1-.45,2,.48.48,0,0,0-.12.6,1.91,1.91,0,0,1-1.41,2.52.65.65,0,0,0-.35.32,4.09,4.09,0,0,1-4.13,2.74c-.61,0-1.21,0-1.81,0a4.1,4.1,0,0,1-3.81-2.77.72.72,0,0,0-.38-.42,1.92,1.92,0,0,1-1.32-2.57.55.55,0,0,0-.13-.65,1.84,1.84,0,0,1-.36-2,.55.55,0,0,0-.12-.65,1.91,1.91,0,0,1,.84-3.13c.28-.09.34-.23.34-.5a8,8,0,0,0-2.4-6,13.14,13.14,0,0,1-4-7.83,12.8,12.8,0,0,1,1.35-7.69c.27-.52.58-.67.93-.47s.4.51.14,1a11.53,11.53,0,0,0,.46,11.63,11.13,11.13,0,0,0,1.72,2.15,9.63,9.63,0,0,1,3,7.23C207.89,104.78,207.9,104.88,207.91,105Zm5.5.1,2.35-9.71a2,2,0,0,1-1.89-1,6.33,6.33,0,0,0-.36-.54c-.38-.5-.69-.51-1.09,0a3.71,3.71,0,0,0-.23.32,2.13,2.13,0,0,1-2.07,1.16l2.13,9.78Zm-.59,1.21-5.73-.09c-.6,0-.87.21-.87.7s.26.69.84.7l11.44.19c.61,0,.87-.21.87-.71s-.25-.68-.83-.69Zm-.07,4c1.77,0,3.54.07,5.31.09.49,0,.72-.23.73-.69s-.21-.71-.71-.72l-10.63-.17a.66.66,0,0,0-.72.84c.06.47.39.56.8.57Zm-.07,2.61,4.71.08c.4,0,.7-.09.81-.5s-.19-.89-.81-.91l-9.29-.15c-.6,0-.89.21-.9.68s.25.71.86.73Zm3.66,1.29-7.29-.12a2.67,2.67,0,0,0,2.47,1.92c.75,0,1.51,0,2.26,0A2.76,2.76,0,0,0,216.34,114.23Z"/><path d="M203.46,87.11c-.3,0-.54-.38-.42-.82a10.49,10.49,0,0,1,8.39-7.5c.51-.08.85.08.92.45s-.18.64-.69.74a9.12,9.12,0,0,0-7.4,6.47C204.14,86.8,204,87.13,203.46,87.11Z"/><path d="M196.83,72.36a3.54,3.54,0,0,1,.5.34q1.74,1.77,3.46,3.56c.28.29.37.62.06.92a.59.59,0,0,1-.92-.07c-1.16-1.2-2.33-2.39-3.47-3.61a.86.86,0,0,1-.14-.72C196.36,72.61,196.64,72.51,196.83,72.36Z"/><path d="M229.92,72.93c.16.12.39.2.44.35a1,1,0,0,1,0,.65c0,.14-.21.25-.33.37l-3.1,3-.32.31a.58.58,0,0,1-.89,0,.56.56,0,0,1,.06-.85l3.67-3.55A2.33,2.33,0,0,1,229.92,72.93Z"/><path d="M214,69.86c0,.72,0,1.44,0,2.15,0,.47-.28.78-.64.73s-.58-.33-.57-.75c0-1.46,0-2.93.08-4.4,0-.49.24-.76.61-.75s.6.28.59.77Z"/><path d="M193,88.9l2.21,0c.47,0,.78.27.73.63s-.33.59-.74.58l-4.42-.08c-.47,0-.77-.26-.73-.64s.33-.57.74-.56Z"/><path d="M233.16,89.57l2.2,0c.41,0,.71.18.71.61s-.3.61-.71.6l-4.47-.07c-.41,0-.68-.19-.71-.61s.29-.6.77-.6Z"/><path d="M203.87,88.76c0,.51-.26.8-.65.77s-.58-.32-.56-.85.27-.8.65-.78S203.88,88.21,203.87,88.76Z"/></g></g></svg>