<svg xmlns="http://www.w3.org/2000/svg" viewBox="0 0 404.12 202.48"><defs><style>.cls-1{fill:#202670;}.cls-2{fill:#e53b33;}.cls-3{fill:#fe7f30;}.cls-4{font-size:23.41px;font-family:HelveticaNeue-Bold, Helvetica Neue;font-weight:700;letter-spacing:0.8em;}.cls-5{letter-spacing:0.73em;}</style></defs><g id="Capa_2" data-name="Capa 2"><g id="Capa_1-2" data-name="Capa 1"><path d="M201.22,64.56a.6.6,0,0,0-.75-.42l-2.37.67a.34.34,0,0,0,0-.1,6.22,6.22,0,0,1,.4-2.37l.52.06a.62.62,0,0,0,.69-.53l0-.23a.62.62,0,0,0-.54-.69h-.1c.23-.44.48-.89.75-1.36a5.21,5.21,0,0,0-1.79,1.23l-4.6-.56a.62.62,0,0,0-.69.54l0,.23a.62.62,0,0,0,.54.68l3.79.46a5.18,5.18,0,0,0-.61,2.61,4.29,4.29,0,0,0,.07.5l-1.62.46a.62.62,0,0,0-.42.76l.06.22a.61.61,0,0,0,.76.42l1.61-.46a5.2,5.2,0,0,0,.71,1.21A8,8,0,0,0,198.75,69a9.32,9.32,0,0,0,1.36.78c-.23-.48-.5-.89-.75-1.31s-.47-.84-.64-1.27a6,6,0,0,1-.35-.94l2.5-.72a.62.62,0,0,0,.42-.76Z"/><path d="M219.12,63.13l1.7-.13a6.72,6.72,0,0,1,.21,1.76H221a.61.61,0,0,0-.74.45l0,.23a.61.61,0,0,0,.45.74l.17,0a6.6,6.6,0,0,1-.54,1.34c-.19.42-.47.8-.7,1.24s-.56.8-.82,1.27a9.69,9.69,0,0,0,1.4-.71,8.52,8.52,0,0,0,1.19-1.07,5.21,5.21,0,0,0,1-1.71l3.93.94a.62.62,0,0,0,.74-.46l.06-.22a.62.62,0,0,0-.46-.74l-3.95-.94a5.17,5.17,0,0,0-.35-2.25l2.59-.19a.62.62,0,0,0,.57-.66l0-.23a.61.61,0,0,0-.65-.57l-3.31.24a5.24,5.24,0,0,0-2-1.6,18.13,18.13,0,0,1,.79,1.69l-1.3.09a.62.62,0,0,0-.57.66l0,.23A.62.62,0,0,0,219.12,63.13Z"/><path d="M180.84,42.12l.68,1.24a12.88,12.88,0,0,0,1,1.52,13.5,13.5,0,0,0,1.12,1.38,10.45,10.45,0,0,0,2.75,2.21,22.72,22.72,0,0,1-1.6-3c-.2-.48-.4-.94-.59-1.41,1.45,0,2.91.09,4.34.22.32,0,.64.08,1,.12a4.6,4.6,0,0,0-.49.67,4.25,4.25,0,0,1,.51,0c1.35,0,2.44.51,2.42,1.08s-1.12,1-2.47,1a5.24,5.24,0,0,1-1.1-.14c0,.13,0,.25,0,.38a4.62,4.62,0,0,0,9.23.23c0-.16,0-.31,0-.46.21.26.42.53.62.83a15.63,15.63,0,0,1,2,5.48,10.23,10.23,0,0,0,0-6.38,7.51,7.51,0,0,0-1.89-3A7.61,7.61,0,0,0,195,42.26a23.52,23.52,0,0,0-6.3-1h-1.55l-.06,0c-.5-.4-1-.7-1.38-1s-.83-.53-1.3-.83a14,14,0,0,1-1.74-1.29,2.84,2.84,0,0,0-.35,2.63,3.78,3.78,0,0,0,.51,1l-.44.08Z"/><path d="M222.38,43.84a7.51,7.51,0,0,0-2,2.89A10.28,10.28,0,0,0,220,53.1a15.75,15.75,0,0,1,2.22-5.37,7.46,7.46,0,0,1,.67-.8,3.62,3.62,0,0,0-.06.46,4.62,4.62,0,0,0,9.23.23c0-.13,0-.25,0-.38a5.19,5.19,0,0,1-.56,0c-1.35,0-2.44-.51-2.43-1.07s1.07-1,2.38-1a5.57,5.57,0,0,0-.4-.59c.32,0,.64-.05,1-.06,1.43-.06,2.9,0,4.35,0-.21.46-.44.91-.66,1.38a23.66,23.66,0,0,1-1.75,2.89,10.2,10.2,0,0,0,2.86-2.07A16.35,16.35,0,0,0,238,45.45,15.45,15.45,0,0,0,239.06,44l.73-1.21-1.55-.42-.33-.08a4.2,4.2,0,0,0,.72-1.18,2.87,2.87,0,0,0-.22-2.65,12.88,12.88,0,0,1-1.8,1.2c-.49.29-.92.5-1.35.77s-.9.53-1.42.91l-.33.23c-.51,0-1-.06-1.54-.07a24,24,0,0,0-6.35.72A7.73,7.73,0,0,0,222.38,43.84Z"/><path d="M190.3,34.71a1.46,1.46,0,0,0,1.9.38,7.3,7.3,0,0,1,7.6.15,1.4,1.4,0,0,0,1.78-.26l.19-.2,0,0a1.44,1.44,0,0,0-.3-2.2A10.76,10.76,0,0,0,196.1,31a10.35,10.35,0,0,0-5.46,1.41,1.45,1.45,0,0,0-.46,2.12Z"/><path d="M219,35.84a1.45,1.45,0,0,0,1.89.38,7.27,7.27,0,0,1,7.6.15,1.42,1.42,0,0,0,1.79-.27l.18-.19,0,0a1.43,1.43,0,0,0-.3-2.2,10.86,10.86,0,0,0-5.32-1.61,10.5,10.5,0,0,0-5.47,1.42,1.46,1.46,0,0,0-.46,2.12Z"/><path d="M210.53,34a9.37,9.37,0,0,0,.66-2.36,14.44,14.44,0,0,0,.19-2.36,15.75,15.75,0,0,0-.17-2.37,9.88,9.88,0,0,0-.62-2.37,9.6,9.6,0,0,0-.66,2.36,17.21,17.21,0,0,0-.19,2.37,16.91,16.91,0,0,0,.16,2.36A10.4,10.4,0,0,0,210.53,34Z"/><path d="M258.83,9.08c-.16-.56-.33-1.11-.53-1.67l.2-.33-.41-.27h0a13,13,0,0,0-2.93-4.67A8.62,8.62,0,0,0,248.81,0a22.28,22.28,0,0,0-14,6.55c-2.79,3-4.1,4.59-4.68,5.32a43.37,43.37,0,0,0-12.63-4.15,2,2,0,0,0,.59-1.22,1.76,1.76,0,0,0-.64-1.44,2.35,2.35,0,0,0-2.77.42c-.63.45-.78.48-.91.36a.49.49,0,0,1,0-.12,2.38,2.38,0,0,0-.88-1.88,2.31,2.31,0,0,0-2.12-.41A2.53,2.53,0,0,0,209,5.09c-.21.62-.41.78-.45.79a.72.72,0,0,1-.23-.14,3.71,3.71,0,0,0-3.35-1l-.09,0A1.63,1.63,0,0,0,204,5.91a2.21,2.21,0,0,0,.39,1.67,51.8,51.8,0,0,0-12.11,3.21C174.78-5.8,165.39,2.51,165,2.9l-.09.08c-6.87,7.89-3.8,19.07,0,27.08a11.38,11.38,0,0,1,.23,3c-.17,2.48,1.44,5.59,2.24,7a31.31,31.31,0,0,0,.05,9.32,16.75,16.75,0,0,1-.29,6.36,17.49,17.49,0,0,0,.61,10.35c2.11,5.45,7.07,9.68,14.72,12.55a71.43,71.43,0,0,0,20.15,5c2,.22,4,.35,6.06.4.63,0,1.27,0,1.9,0a66.07,66.07,0,0,0,35.39-9.9c.33-.28,8.17-7,6.23-15.83a16.17,16.17,0,0,1-.16-5.86,41.58,41.58,0,0,0,.39-8.13l0-.07c.11-.17,2.82-4.39,2.6-7.57a14.06,14.06,0,0,1,.69-4.85,52.54,52.54,0,0,0,2.93-7.92h0A27.59,27.59,0,0,0,258.83,9.08ZM256.11,23.2a48.69,48.69,0,0,1-5.25,12.1A35.63,35.63,0,0,0,246,25.22c.32-1.59,1.09-5.07,2.73-11.65.68-2.76,1.81-4.47,3.34-5.1a5.24,5.24,0,0,1,3.88.24c.11.34.23.7.33,1.08A25.06,25.06,0,0,1,256.11,23.2ZM170.69,53.46l.23-.46-.14-.49C165,31.34,184.06,18.08,184.29,17.92a49.15,49.15,0,0,1,26.22-8.1h1a40.12,40.12,0,0,1,17.81,4.66c11.39,6,18.1,14.66,20,25.83a37.35,37.35,0,0,1-.64,15.15l-.15.48.22.47a11.47,11.47,0,0,1-.46,10.68,16.05,16.05,0,0,1-6.47,6.39c-28.33,15.69-58,2.84-58.35,2.7-6.95-2.62-11.41-6.33-13.24-11A15.87,15.87,0,0,1,170.69,53.46ZM173.5,11.2c1.48,7.54,1.93,10.44,2.05,11.37a38.1,38.1,0,0,0-6.21,10.22c-2.84-5-9.05-17.87-3.61-26.47h0s2.55-1.36,4.65-.37C171.92,6.64,173,8.41,173.5,11.2Z"/><path d="M253,13c-.84,2.38-2.61,4.2-4.35,6-.43.43.22,1.12.65.68a1.83,1.83,0,0,1,3.09,1.15,2.71,2.71,0,0,1-2.75,2.89c-.41,0-.73.66-.26.88a2.66,2.66,0,0,1,1.48,3.25.48.48,0,0,0,.91.28,3.62,3.62,0,0,0-1-3.7,3.45,3.45,0,0,0,2.47-4,2.85,2.85,0,0,0-2.57-2.18,14.41,14.41,0,0,0,3.21-4.92C254.07,12.67,253.16,12.4,253,13Z"/><path d="M167.29,11.68a14.53,14.53,0,0,0,3,5.07,2.85,2.85,0,0,0-2.67,2.05A3.46,3.46,0,0,0,169.83,23a3.63,3.63,0,0,0-1.15,3.64.47.47,0,0,0,.92-.23,2.69,2.69,0,0,1,1.65-3.18c.48-.19.19-.84-.22-.88a2.73,2.73,0,0,1-2.61-3,1.84,1.84,0,0,1,3.15-1c.4.46,1.09-.19.69-.65-1.65-1.85-3.33-3.76-4-6.18C168,10.87,167.11,11.09,167.29,11.68Z"/><path d="M205.48,60.54c.78.46,1.82,1,2.56,1.55a5.14,5.14,0,0,1,1.2,1.33,3.55,3.55,0,0,1-.2.39,1.56,1.56,0,0,1-.48.55,1.52,1.52,0,0,1-.62.27,2.43,2.43,0,0,1-1.52-.13,3.93,3.93,0,0,1-1.48-1.32,2.51,2.51,0,0,0,.72,2.36,2.78,2.78,0,0,0,1,.6c.34.91,2.9,7.09,6.43.08l-.08,0a2.65,2.65,0,0,0,.72-.43,2.48,2.48,0,0,0,.83-2.32,3.74,3.74,0,0,1-1.54,1.24,2.44,2.44,0,0,1-1.53.06,1.61,1.61,0,0,1-.6-.3,1.55,1.55,0,0,1-.46-.58l-.06-.14a5.47,5.47,0,0,1,1.7-1.65c.79-.54,1.63-1,2.46-1.47,1.76-1,1.75-1.65,1.7-3.2a1,1,0,0,0-1-.94c-.56,0-.57,0-.57,0a96.63,96.63,0,0,1-10,0,1,1,0,0,0-1,1.13A4.21,4.21,0,0,0,205.48,60.54Z"/><path d="M14.55,150.29,0,100H8.94l10.29,37.82h.31L30.7,100h7.82l11.84,37.82h.24L60.77,100h9l-14.54,50.3H46.47L34.7,111.72h-.25L23.3,150.29Z"/><path d="M115.56,150.29V121.72H111.3v-8.46h8.77v7.1h2.59a11.08,11.08,0,0,1,4.72-5.55,14.31,14.31,0,0,1,7.44-1.92h3.08v7.22h-3.45q-5.25,0-7.93,3a11.72,11.72,0,0,0-2.69,8.08v19.07Z"/><path d="M146.05,150.29V121.72h-4.26v-8.46h8.76v5.87h2.84a11.92,11.92,0,0,1,4.85-4.85,17.65,17.65,0,0,1,15,0,12.59,12.59,0,0,1,5,5h.19q4.06-6.66,12.71-6.67,7,0,11,4t4,11v22.65h-8.4V129.12q0-9.12-8.76-9.13t-8.76,9.13v21.17h-8.39V129.12q0-9.12-8.83-9.13-4.26,0-6.45,2.31t-2.19,6.82v21.17Z"/><path d="M219.61,108.82a4.68,4.68,0,0,1-3.4-1.39A4.61,4.61,0,0,1,214.8,104a4.71,4.71,0,0,1,1.38-3.4A4.82,4.82,0,0,1,223,107.4,4.57,4.57,0,0,1,219.61,108.82Zm-4.2,41.47v-37h8.4v37Z"/><path d="M245.79,151.41v-50h23q8.32,0,12.92,4.16t4.6,11.45q0,7.23-4.6,11.42t-12.92,4.19H254.36v18.77Zm8.57-26.11h13.95c3.09,0,5.43-.74,7-2.22a8.86,8.86,0,0,0,0-12.13c-1.61-1.46-4-2.19-7-2.19H254.36Z"/><path d="M308.05,152.08q-7.4,0-11.51-4t-4.1-10.92V114.38h8.39v21.1q0,4.58,2.35,6.88c1.56,1.55,3.89,2.32,7,2.32s5.63-.82,7.38-2.47a9.05,9.05,0,0,0,2.62-6.91V114.38h8.39V143h4.26v8.46h-8.7v-5.87h-2.59a13.88,13.88,0,0,1-5.37,4.88A17.72,17.72,0,0,1,308.05,152.08Z"/><path d="M341.25,151.41V122.83H337v-8.45h8.76v7.1h2.59a11.14,11.14,0,0,1,4.72-5.56,14.41,14.41,0,0,1,7.44-1.91h3.08v7.22h-3.45q-5.25,0-7.93,3a11.74,11.74,0,0,0-2.69,8.09v19.07Z"/><path d="M100.47,137.14a42.54,42.54,0,0,0,1.09-8.47q0-7.57-4.92-11.73a15.78,15.78,0,0,0-10.48-3.46q-6.94,0-11.1,2.57c-1.45.9-2.18,1.83-2.18,2.8a6.92,6.92,0,0,0,.89,2.57c.55,1.16,1.12,1.75,1.71,1.75a3.09,3.09,0,0,0,1.39-.43A17.34,17.34,0,0,1,85,120.53a10.23,10.23,0,0,1,7,2.21,7.4,7.4,0,0,1,1.88,2.8,9.13,9.13,0,0,1,.66,3.36c0,1.12,0,2.06-.1,2.8a14.73,14.73,0,0,0-9.82-3.39,16.12,16.12,0,0,0-9.49,2.6,10.8,10.8,0,0,0-4.49,9.33,11.21,11.21,0,0,0,4.09,9,12.63,12.63,0,0,0,4.15,2.29,15,15,0,0,0,4.68.77,16.06,16.06,0,0,0,4.29-.53A12.52,12.52,0,0,0,96,145.54h6.92A63.28,63.28,0,0,0,100.47,137.14Zm-9.56,6.56a9,9,0,0,1-2.5,1.35,11.09,11.09,0,0,1-3.71.53,6.39,6.39,0,0,1-4.07-1.42,4.78,4.78,0,0,1-1.34-1.73,5.57,5.57,0,0,1-.48-2.37,4.6,4.6,0,0,1,.58-2.33,7,7,0,0,1,1.93-2,6.18,6.18,0,0,1,3.76-1,10.53,10.53,0,0,1,5.37,1.32,4.79,4.79,0,0,1,2.73,3.89C93.18,141.26,92.43,142.51,90.91,143.7Z"/><rect x="99" y="141.68" width="8.7" height="8.7"/><path d="M397.17,137.93a43.37,43.37,0,0,0,1.11-8.67q0-7.75-5-12a16.17,16.17,0,0,0-10.72-3.54q-7.12,0-11.37,2.63c-1.49.92-2.23,1.88-2.23,2.87a7.18,7.18,0,0,0,.91,2.63c.57,1.19,1.15,1.79,1.76,1.79a3.1,3.1,0,0,0,1.41-.44,17.74,17.74,0,0,1,8.37-2.26,10.43,10.43,0,0,1,7.15,2.26,7.44,7.44,0,0,1,1.92,2.87,9.32,9.32,0,0,1,.68,3.44c0,1.14,0,2.1-.1,2.86a15.11,15.11,0,0,0-10-3.47,16.54,16.54,0,0,0-9.72,2.66,11.05,11.05,0,0,0-4.59,9.55,11.46,11.46,0,0,0,4.18,9.21,12.83,12.83,0,0,0,4.26,2.35,15.36,15.36,0,0,0,4.79.79,16.74,16.74,0,0,0,4.38-.54,12.89,12.89,0,0,0,8.27-6.38h7.08A65.71,65.71,0,0,0,397.17,137.93Zm-9.79,6.71a8.94,8.94,0,0,1-2.56,1.39,11.23,11.23,0,0,1-3.79.54,6.65,6.65,0,0,1-4.17-1.45,5,5,0,0,1-1.37-1.78,5.78,5.78,0,0,1-.49-2.42,4.64,4.64,0,0,1,.59-2.38,7.23,7.23,0,0,1,2-2,6.28,6.28,0,0,1,3.84-1,10.75,10.75,0,0,1,5.5,1.35,4.88,4.88,0,0,1,2.8,4C389.71,142.15,388.94,143.43,387.38,144.64Z"/><rect x="395.38" y="142.83" width="8.7" height="8.7"/><rect class="cls-1" x="99" y="141.68" width="8.7" height="8.7"/><rect class="cls-2" x="324.1" y="142.83" width="8.7" height="8.7"/><rect class="cls-3" x="395.38" y="142.77" width="8.74" height="8.74"/><text class="cls-4" transform="translate(99.02 191.22)">DIGI<tspan class="cls-5" x="123.86" y="0">T</tspan><tspan x="155.16" y="0">AL</tspan></text></g></g></svg>