<svg xmlns="http://www.w3.org/2000/svg" viewBox="0 0 404.11 103.28"><defs><style>.cls-1{fill:#202670;}.cls-2{fill:#e53b33;}.cls-3{fill:#fe7f30;}.cls-4{font-size:23.41px;font-family:HelveticaNeue-Bold, Helvetica Neue;font-weight:700;letter-spacing:0.8em;}.cls-5{letter-spacing:0.73em;}</style></defs><g id="Capa_2" data-name="Capa 2"><g id="Capa_1-2" data-name="Capa 1"><path d="M14.55,51.1,0,.79H8.94L19.23,38.61h.31L30.7.79h7.82L50.36,38.61h.24L60.77.79h9L55.23,51.1H46.47L34.7,12.53h-.25L23.3,51.1Z"/><path d="M115.56,51.1V22.53H111.3V14.07h8.77v7.1h2.59a11.14,11.14,0,0,1,4.72-5.56,14.41,14.41,0,0,1,7.44-1.91h3.08v7.22h-3.45q-5.25,0-7.93,3A11.76,11.76,0,0,0,123.83,32V51.1Z"/><path d="M146.05,51.1V22.53h-4.26V14.07h8.76v5.86h2.84a12,12,0,0,1,4.85-4.84,17.65,17.65,0,0,1,15,0,12.59,12.59,0,0,1,5,5h.19q4.06-6.67,12.71-6.67,7,0,11,4t4,11V51.1h-8.4V29.93q0-9.13-8.76-9.13t-8.76,9.13V51.1h-8.39V29.93q0-9.13-8.83-9.13-4.26,0-6.45,2.31c-1.46,1.54-2.19,3.82-2.19,6.82V51.1Z"/><path d="M219.61,9.63a4.72,4.72,0,0,1-3.4-1.39,4.63,4.63,0,0,1-1.41-3.43,4.71,4.71,0,0,1,1.38-3.39,4.84,4.84,0,0,1,6.82,0,4.58,4.58,0,0,1,1.42,3.42A4.68,4.68,0,0,1,223,8.21,4.6,4.6,0,0,1,219.61,9.63Zm-4.2,41.47v-37h8.4v37Z"/><path d="M245.79,52.21v-50h23q8.32,0,12.92,4.16t4.6,11.45q0,7.22-4.6,11.42t-12.92,4.19H254.36V52.21Zm8.57-26.1h13.95c3.09,0,5.43-.74,7-2.22a7.84,7.84,0,0,0,2.4-6.05,7.82,7.82,0,0,0-2.4-6.08c-1.61-1.46-4-2.19-7-2.19H254.36Z"/><path d="M308.05,52.89q-7.4,0-11.51-4T292.44,38V15.19h8.39v21.1q0,4.58,2.35,6.88c1.56,1.54,3.89,2.32,7,2.32s5.63-.83,7.38-2.47a9.07,9.07,0,0,0,2.62-6.91V15.19h8.39V43.76h4.26v8.45h-8.7V46.35h-2.59a14,14,0,0,1-5.37,4.88A17.72,17.72,0,0,1,308.05,52.89Z"/><path d="M341.25,52.21V23.64H337V15.19h8.76v7.09h2.59a11.12,11.12,0,0,1,4.72-5.55,14.31,14.31,0,0,1,7.44-1.91h3.08V22h-3.45c-3.5,0-6.14,1-7.93,3a11.73,11.73,0,0,0-2.69,8.08V52.21Z"/><path d="M100.47,38a42.63,42.63,0,0,0,1.09-8.47q0-7.59-4.92-11.74a15.83,15.83,0,0,0-10.48-3.46q-6.94,0-11.1,2.57c-1.45.91-2.18,1.84-2.18,2.81a7,7,0,0,0,.89,2.57Q74.6,24,75.48,24a3,3,0,0,0,1.39-.43A17.33,17.33,0,0,1,85,21.34a10.22,10.22,0,0,1,7,2.2,7.52,7.52,0,0,1,1.88,2.81,9.13,9.13,0,0,1,.66,3.36c0,1.12,0,2.05-.1,2.8a14.74,14.74,0,0,0-9.82-3.4,16.05,16.05,0,0,0-9.49,2.61,10.79,10.79,0,0,0-4.49,9.33,11.17,11.17,0,0,0,4.09,9,12.45,12.45,0,0,0,4.15,2.29,14.72,14.72,0,0,0,4.68.78,16.47,16.47,0,0,0,4.29-.53A12.55,12.55,0,0,0,96,46.35h6.92A63.28,63.28,0,0,0,100.47,38Zm-9.56,6.56a9,9,0,0,1-2.5,1.35,11.09,11.09,0,0,1-3.71.53A6.44,6.44,0,0,1,80.63,45a4.78,4.78,0,0,1-1.34-1.73,5.62,5.62,0,0,1-.48-2.38,4.56,4.56,0,0,1,.58-2.32,7,7,0,0,1,1.93-2,6.18,6.18,0,0,1,3.76-1,10.53,10.53,0,0,1,5.37,1.32,4.79,4.79,0,0,1,2.73,3.89C93.18,42.07,92.43,43.32,90.91,44.51Z"/><rect x="99" y="42.49" width="8.7" height="8.7"/><path d="M397.17,38.74a43.37,43.37,0,0,0,1.11-8.67q0-7.77-5-12a16.17,16.17,0,0,0-10.72-3.55q-7.12,0-11.37,2.64c-1.49.92-2.23,1.87-2.23,2.86a7.12,7.12,0,0,0,.91,2.63c.57,1.2,1.15,1.79,1.76,1.79A3,3,0,0,0,373,24a17.85,17.85,0,0,1,8.37-2.26A10.48,10.48,0,0,1,388.53,24a7.52,7.52,0,0,1,1.92,2.87,9.4,9.4,0,0,1,.68,3.44c0,1.15,0,2.11-.1,2.87a15.05,15.05,0,0,0-10-3.47,16.46,16.46,0,0,0-9.72,2.66,11.05,11.05,0,0,0-4.59,9.55,11.46,11.46,0,0,0,4.18,9.21,13,13,0,0,0,4.26,2.34,15.09,15.09,0,0,0,4.79.8,17.17,17.17,0,0,0,4.38-.54,12.89,12.89,0,0,0,8.27-6.38h7.08A65.71,65.71,0,0,0,397.17,38.74Zm-9.79,6.71a9.17,9.17,0,0,1-2.56,1.38,11.23,11.23,0,0,1-3.79.54,6.59,6.59,0,0,1-4.17-1.45,4.91,4.91,0,0,1-1.37-1.77,5.86,5.86,0,0,1-.49-2.43,4.69,4.69,0,0,1,.59-2.38,7.49,7.49,0,0,1,2-2,6.35,6.35,0,0,1,3.84-1,10.75,10.75,0,0,1,5.5,1.35,4.91,4.91,0,0,1,2.8,4C389.71,43,388.94,44.24,387.38,45.45Z"/><rect x="395.38" y="43.63" width="8.7" height="8.7"/><rect class="cls-1" x="99" y="42.49" width="8.7" height="8.7"/><rect class="cls-2" x="324.1" y="43.63" width="8.7" height="8.7"/><rect class="cls-3" x="395.35" y="43.63" width="8.76" height="8.7"/><text class="cls-4" transform="translate(100.36 92.02)">DIGI<tspan class="cls-5" x="123.86" y="0">T</tspan><tspan x="155.16" y="0">AL</tspan></text></g></g></svg>