<svg xmlns="http://www.w3.org/2000/svg" viewBox="0 0 146.43 124.16"><defs><style>.cls-1{fill:#cf9776;}.cls-2{fill:#3c1c0f;}.cls-3{fill:#efb89f;}.cls-4{fill:#fff;}</style></defs><g id="Capa_2" data-name="Capa 2"><g id="Capa_1-2" data-name="Capa 1"><path class="cls-1" d="M29.43,27.13S9.6,48.06,10.23,68.36l.94,9.29s-9,21.56,15.9,35.73,63.89,9,63.89,9S143.69,113.85,132,83c0,0,9.45-21.88-8-46.27,0,0-16.69-26.6-56-24.71C68,12,45.17,13.28,29.43,27.13Z"/><path class="cls-2" d="M4.66,39.35A24.19,24.19,0,0,1,6.4,48.8c-.32,4.56,3.77,10.85,3.77,10.85L13,52.26Z"/><path class="cls-2" d="M141.12,44.7a24.07,24.07,0,0,0-1.73,9.45c.31,4.56-3.78,10.86-3.78,10.86l-2.83-7.4Z"/><path class="cls-2" d="M7.76,6.2s10-3.47,13,11.33,2.94,15.95,2.94,15.95,9.44-10.81,17.84-14.06l4.19-1.79S20.88-8.07,7.76,6.2Z"/><path class="cls-2" d="M103.56,19.1S118.35,26.5,124,36.73l3.3-9.6L129.84,16s3.62-10.54,12.75-5.19c0,0-1.26-20.14-28-3.3C114.57,7.46,108.59,10.92,103.56,19.1Z"/><path class="cls-1" d="M9.12,5.72S-5.36,10,6.29,41.45L11,51.68l6-11.33,6.93-8S23.21,5.65,9.12,5.72Z"/><path class="cls-1" d="M139.64,10s14,5.64-.65,35.83l-5.69,9.73-4.86-11.86-3.79-7.26S125.63,8.52,139.64,10Z"/><path class="cls-2" d="M67.69,11.78a2.84,2.84,0,0,1-2.38-1.16c-.78-1.08-1.46-2.63.19-3.49a4.8,4.8,0,0,1,4.28,1.25C71,9.44,71.65,8.29,72,7.08a2.89,2.89,0,0,1,4.5-1.5c1.34,1.09.87,2.5,1.13,2.8,1.6,1.8,3.31-2.5,5.77-.93,0,0,1.91,1.66-1,3.6a2.91,2.91,0,0,1-1.51.46Z"/><path class="cls-2" d="M70.76,124.12c-3.21-.08-6.22-.29-9-.59-17.59-1.87-29.41-7.14-29.91-7.36-11.24-4.23-18.54-10.41-21.61-18.35a25.46,25.46,0,0,1-.89-15A25.53,25.53,0,0,0,9.8,73C5.12,42.68,31.57,24,32.43,23.43S67-.92,103.21,18.06c22.43,11.75,29.53,28.82,31.53,41.06a60.27,60.27,0,0,1,.1,18.45,25,25,0,0,0,.24,9c2.84,13-9.06,22.93-9.06,22.93A99.23,99.23,0,0,1,70.76,124.12ZM75.09,13.17c-23.31-.59-41,12.08-41.23,12.25l0,0c-.29.2-29.26,20.26-20.45,52.52l.12.46-.21.42c0,.09-4.37,8.84-.75,18.12,2.82,7.24,9.64,12.94,20.26,16.94.52.23,44.94,19.72,87.92-4.09a24.73,24.73,0,0,0,10-9.87,18,18,0,0,0,.7-16.66l-.19-.42.13-.45a56,56,0,0,0,1-23c-2.8-17-13-30.15-30.23-39.19A60.72,60.72,0,0,0,75.09,13.17Z"/><circle class="cls-3" cx="63.64" cy="95.82" r="9.63"/><circle class="cls-3" cx="80.91" cy="96.28" r="9.63"/><circle class="cls-3" cx="72.42" cy="97.45" r="9.63"/><path class="cls-2" d="M79.82,83.7a147.06,147.06,0,0,1-15-.06,1.45,1.45,0,0,0-1.52,1.68A6.32,6.32,0,0,0,66,89.79c1.16.68,2.72,1.55,3.82,2.32,1.85,1.28,3.2,4.65,3.15,4.28C72.7,94.6,74.35,93.1,75.92,92c1.18-.8,2.45-1.48,3.68-2.2,2.63-1.53,2.62-2.46,2.55-4.78a1.47,1.47,0,0,0-1.47-1.41C79.84,83.65,79.82,83.66,79.82,83.7Z"/><rect class="cls-2" x="46.92" y="89.87" width="10.49" height="2.18" rx="0.92" transform="translate(11.43 -5.66) rotate(6.97)"/><rect class="cls-2" x="49.4" y="96.31" width="10.49" height="2.18" rx="0.92" transform="translate(-24.72 18.82) rotate(-15.99)"/><rect class="cls-2" x="85.39" y="91.16" width="10.49" height="2.18" rx="0.92" transform="translate(187.67 177.76) rotate(175.88)"/><rect class="cls-2" x="87.88" y="97.05" width="10.49" height="2.18" rx="0.92" transform="translate(160.97 215.19) rotate(-166.6)"/><ellipse class="cls-3" cx="59.91" cy="50.06" rx="5.04" ry="3.35" transform="matrix(0.07, -1, 1, 0.07, 5.84, 106.38)"/><ellipse class="cls-3" cx="86.61" cy="51.57" rx="5.04" ry="3.35" transform="translate(29.2 134.42) rotate(-86.05)"/><path class="cls-2" d="M87.73,78.66a15.42,15.42,0,0,1,.51-9.53,11.25,11.25,0,0,1,3.05-4.33,11.53,11.53,0,0,1,4.84-2.45,35.55,35.55,0,0,1,9.49-1.07,38.16,38.16,0,0,1,9.39,1.3l2.32.63L116.22,65a21.74,21.74,0,0,1-1.59,2.2,20.8,20.8,0,0,1-1.79,2,15.39,15.39,0,0,1-4.26,3.09,34.13,34.13,0,0,0,2.6-4.32c.36-.75.74-1.48,1.07-2.22s.64-1.53.9-2.22l1.22,2.43c-2.84-.15-5.83-.16-8.7,0a61.62,61.62,0,0,0-8.54.9,8.75,8.75,0,0,0-6.07,3.84A23.36,23.36,0,0,0,87.73,78.66Z"/><circle class="cls-2" cx="98.87" cy="70.29" r="6.91"/><path class="cls-2" d="M57.94,79.15A23.2,23.2,0,0,0,55,71a8.75,8.75,0,0,0-5.87-4.13,60.64,60.64,0,0,0-8.48-1.32c-2.86-.26-5.85-.4-8.69-.39l1.34-2.37c.22.7.5,1.51.79,2.26s.63,1.51,1,2.27a34.25,34.25,0,0,0,2.38,4.45,15.47,15.47,0,0,1-4.1-3.3,19.6,19.6,0,0,1-1.68-2.06,19.78,19.78,0,0,1-1.49-2.27l-1-1.85,2.35-.52A38.63,38.63,0,0,1,41,60.89a35.42,35.42,0,0,1,9.42,1.55,11,11,0,0,1,7.55,7.16A15.43,15.43,0,0,1,57.94,79.15Z"/><circle class="cls-2" cx="47.24" cy="70.23" r="6.91"/><path class="cls-2" d="M31.92,56.17a22.19,22.19,0,0,0,2.61,1.93c.71.46,1.33.81,1.95,1.24s1.32.87,2.06,1.48a12.24,12.24,0,0,1,1.21,1,10,10,0,0,1,1.35,1.34,6.43,6.43,0,0,1-1.76,1,7.2,7.2,0,0,1-1.85.28,6.61,6.61,0,0,1-3.64-1.11A6.23,6.23,0,0,1,31.4,60.1,4.29,4.29,0,0,1,31.92,56.17Z"/><path class="cls-2" d="M115.26,56.73a4.29,4.29,0,0,1,.32,4,6.22,6.22,0,0,1-2.6,3.05,6.66,6.66,0,0,1-3.69.93,7.72,7.72,0,0,1-1.84-.38,7,7,0,0,1-1.71-1A10.51,10.51,0,0,1,107.17,62a11.66,11.66,0,0,1,1.25-.94c.77-.57,1.49-1,2.13-1.37s1.28-.72,2-1.14A20.44,20.44,0,0,0,115.26,56.73Z"/><path class="cls-3" d="M24.3,75.42a73.45,73.45,0,0,0,1.95,7.27A20.16,20.16,0,0,0,27.67,86a8.58,8.58,0,0,0,2,2.59,2.45,2.45,0,0,0,.61.46c.23.13.38.24.68.41a12,12,0,0,1,1.8,1.15,12.2,12.2,0,0,1,2.74,3.1,14.36,14.36,0,0,1,2.13,7.54,26.83,26.83,0,0,0-3.76-6.37,12.88,12.88,0,0,0-2.56-2.3,10.37,10.37,0,0,0-1.45-.82A9,9,0,0,1,28,90.51a9.49,9.49,0,0,1-2.51-3.46,16.58,16.58,0,0,1-1.18-3.85A21.42,21.42,0,0,1,24.3,75.42Z"/><path class="cls-3" d="M121.3,78.29a21.39,21.39,0,0,1-.4,7.76,16.5,16.5,0,0,1-1.37,3.8,9.54,9.54,0,0,1-2.68,3.33,9.1,9.1,0,0,1-1.92,1.11,10.93,10.93,0,0,0-1.49.75,13.08,13.08,0,0,0-2.67,2.18,26.21,26.21,0,0,0-4.07,6.17A14.38,14.38,0,0,1,109.2,96a12.12,12.12,0,0,1,2.89-3A10.93,10.93,0,0,1,113.94,92c.32-.15.47-.26.71-.38a2.61,2.61,0,0,0,.63-.43,8.56,8.56,0,0,0,2.13-2.49,20.26,20.26,0,0,0,1.58-3.2C119.88,83.18,120.6,80.77,121.3,78.29Z"/><ellipse class="cls-4" cx="42.08" cy="67.82" rx="1.52" ry="3.67" transform="translate(-26.76 108.19) rotate(-88.57)"/><ellipse class="cls-4" cx="104.94" cy="68.39" rx="1.52" ry="3.67" transform="translate(33.95 171.6) rotate(-88.57)"/><path class="cls-2" d="M52,45.62A16.17,16.17,0,0,1,60,48a2.15,2.15,0,0,1,.44,3.29l.06-.06-.27.3a2.12,2.12,0,0,1-2.67.39,10.92,10.92,0,0,0-11.37-.22,2.21,2.21,0,0,1-2.84-.56l-.18-.25a2.16,2.16,0,0,1,.69-3.16A15.63,15.63,0,0,1,52,45.62Z"/><path class="cls-2" d="M94.94,47.31a16.07,16.07,0,0,1,8,2.4,2.15,2.15,0,0,1,.44,3.29l.06-.06-.27.29a2.12,2.12,0,0,1-2.67.4A10.93,10.93,0,0,0,89.1,53.4a2.18,2.18,0,0,1-2.84-.56l-.18-.24a2.17,2.17,0,0,1,.69-3.17A15.71,15.71,0,0,1,94.94,47.31Z"/><path class="cls-2" d="M57.57,88.35a26.17,26.17,0,0,0-2,3.89A9.44,9.44,0,0,0,55,96a9.73,9.73,0,0,0,.94,3.73c.24.63.64,1.23,1,1.89s.78,1.24,1.13,2a14.32,14.32,0,0,1-2-1.17,12.19,12.19,0,0,1-1.69-1.68,8,8,0,0,1-1.75-4.65,7.87,7.87,0,0,1,1.43-4.78A8.29,8.29,0,0,1,57.57,88.35Z"/><path class="cls-2" d="M87,88.81A8.29,8.29,0,0,1,90.5,92a7.91,7.91,0,0,1,1.19,4.84,8,8,0,0,1-2,4.55,11.15,11.15,0,0,1-1.78,1.6A14.72,14.72,0,0,1,85.84,104a20.29,20.29,0,0,1,1.23-1.91c.34-.65.76-1.22,1-1.85a10.05,10.05,0,0,0,1.13-3.67,9.4,9.4,0,0,0-.48-3.81A26,26,0,0,0,87,88.81Z"/><path class="cls-2" d="M73.64,35.9a14.51,14.51,0,0,1,.94,3.54,23.71,23.71,0,0,1,0,7.07,14.67,14.67,0,0,1-1,3.54,14.71,14.71,0,0,1-.94-3.55A23.36,23.36,0,0,1,72.38,43a24.83,24.83,0,0,1,.28-3.54A14.9,14.9,0,0,1,73.64,35.9Z"/><path class="cls-2" d="M72.59,91.73a12.12,12.12,0,0,0,.88,3,2.33,2.33,0,0,0,.69.87,2.37,2.37,0,0,0,.9.44A3.67,3.67,0,0,0,77.35,96a5.76,5.76,0,0,0,2.29-1.86,3.73,3.73,0,0,1-1.24,3.48,4.35,4.35,0,0,1-4,.82,5.33,5.33,0,0,1-1-.44,3.69,3.69,0,0,1-.88-.75,3.6,3.6,0,0,1-.87-2A4.76,4.76,0,0,1,72.59,91.73Z"/><path class="cls-2" d="M72.37,91.73a4.73,4.73,0,0,1,.79,3.54,3.7,3.7,0,0,1-1,1.93,3.93,3.93,0,0,1-.92.7,5,5,0,0,1-1,.38,4.33,4.33,0,0,1-4-1,3.74,3.74,0,0,1-1.07-3.53,5.79,5.79,0,0,0,2.2,2,3.71,3.71,0,0,0,2.29.19,2.1,2.1,0,0,0,.91-.39,2.24,2.24,0,0,0,.73-.83A11.92,11.92,0,0,0,72.37,91.73Z"/><path class="cls-2" d="M11.39,53.56C10.52,52.28-9.7,22.08,5.88,4.2L6,4.1c.58-.53,14.51-12.78,40.77,12.79L45,18.65C21.25-4.51,8.49,5.19,7.67,5.87c-14.23,16.48,5.55,46,5.75,46.31Z"/><path class="cls-2" d="M22.07,33.53c0-.11-.26-3-3.14-17.69-.87-4.43-2.56-7.26-5-8.42C10.37,5.77,6.27,8,6.23,8L5.05,5.84c.21-.11,5.21-2.82,9.86-.65,3.23,1.51,5.4,4.93,6.43,10.18,2.93,15,3.17,17.86,3.18,18Z"/><path class="cls-2" d="M125.48,38.51l-2-1.95c0-.12.4-3,4.07-17.8,1.29-5.19,3.62-8.5,6.93-9.85,4.75-1.93,9.61,1,9.81,1.15L143,12.14s-4-2.42-7.61-1c-2.54,1-4.37,3.78-5.46,8.16C126.31,33.84,125.5,38.4,125.48,38.51Z"/><path class="cls-2" d="M134.29,57.29l-2-1.42a71.71,71.71,0,0,0,10.18-21.74,38.15,38.15,0,0,0,.23-20.46c-1.12-4-2.68-7-4.65-8.93-1.66-1.6-4.05-2.36-7.15-2.28-6.83.19-14.89,4.6-18.73,8.76-6,6.52-7.25,8.32-7.3,8.39l-2.05-1.34c.05-.07,1.28-1.94,7.55-8.72C115.23,4.31,124,.2,130.83,0c3.72-.11,6.8.92,8.92,3,2.29,2.2,4.07,5.57,5.31,10a40.62,40.62,0,0,1-.23,21.78A74.22,74.22,0,0,1,134.29,57.29Z"/><path class="cls-2" d="M137,18.64c-1.25,3.56-3.91,6.3-6.51,8.93l1,1a2.74,2.74,0,0,1,4.62,1.71c.34,2.46-1.86,4.19-4.12,4.32-.61,0-1.09,1-.39,1.32a4,4,0,0,1,2.22,4.87.71.71,0,0,0,1.36.41,5.4,5.4,0,0,0-2.83-6.49L132,36.05c3.29-.19,6.29-2.88,5.47-6.38a4.16,4.16,0,0,0-6.92-2.1c-.64.65.34,1.68,1,1,2.78-2.82,5.55-5.74,6.89-9.55.3-.86-1.06-1.27-1.36-.41Z"/><path class="cls-2" d="M8.88,16.7c1.15,3.86,3.77,6.93,6.4,9.88.61.68,1.64-.3,1-1a4.15,4.15,0,0,0-7,1.75c-1,3.46,1.87,6.29,5.14,6.65l-.32-1.33A5.38,5.38,0,0,0,11,39a.71.71,0,0,0,1.37-.34,4,4,0,0,1,2.46-4.76c.72-.28.29-1.26-.32-1.33-2.25-.25-4.37-2.09-3.9-4.52a2.74,2.74,0,0,1,4.7-1.48l1-1c-2.47-2.76-5-5.62-6.06-9.24-.25-.87-1.63-.54-1.37.34Z"/><path class="cls-2" d="M67.74,97.84s3.69,10.7,8.94.28l-4.06-2.58Z"/></g></g></svg>