<svg xmlns="http://www.w3.org/2000/svg" viewBox="0 0 302.76 412.91"><defs><style>.cls-1{fill:#cf9776;}.cls-2{fill:#ffe299;}.cls-3{fill:#e53b33;}.cls-4{fill:#3c1c0f;}.cls-5{fill:#202670;}.cls-6{fill:#efb89f;}.cls-7{fill:#fff;}.cls-8{fill:#33241b;}</style></defs><g id="Capa_2" data-name="Capa 2"><g id="Capa_1-2" data-name="Capa 1"><path class="cls-1" d="M252.31,252.61s34.07,86.07-3.81,101.54c0,0,14.35-34.74-10.76-48L225,299.68l-1.8-34.07Z"/><path class="cls-1" d="M63.36,298.11s-38.11,14.8-29.14,47.52S75,372.53,75,372.53l2.47,20.4S82,411.08,98.32,411.08s27.35-20.84,27.35-20.84v-7.4l27.19.09s11.81,27.26,30.86,24.34,27.8-22.64,27.8-22.64V374.1l8.51-3.36s42.59-14.35,31.61-46.85-53.35-24.66-53.35-24.66L63.36,298.11"/><path class="cls-2" d="M57.83,197.7s17,18.52,12.85,45.42c0,0-8.67,35-6,55.29h0l159,.9s1.79-23.61-1.8-34.07l27.2-11.06,11.65-9.86-3.58-7.77S224,181,185.14,175c0,0-44.38,33.77-91.75-1C93.39,173.94,68.29,184.55,57.83,197.7Z"/><path class="cls-3" d="M94.4,173.82s16.59,16,44.49,17.38,46-17,46-17-26.56-1.68-46.84,11C138,185.14,115.69,169,94.4,173.82Z"/><path class="cls-3" d="M27.27,262.47,3.06,323.22s-4.48,13.89,9.42,11.65,20.84,6.73,20.84,6.73S30.18,308,64.7,299.23c0,0,.67-37,4.93-49.31L61.56,262S47.89,275.7,27.27,262.47Z"/><path class="cls-3" d="M261.73,339.8S277.64,332.63,283,332s0-14.35,0-14.35L253,256.2s20,56.93,8.75,83.6"/><path class="cls-4" d="M43.18,9.53S57.53,5.6,60.67,14.46a63.24,63.24,0,0,1,3.58,15l3.81,17.6L91.15,29.36l10.76-4.59S60.33-13.9,43.18,9.53Z"/><path class="cls-4" d="M237.74,14.57s-14.49-8-19,14-6.12,24.51-6.12,24.51A86.34,86.34,0,0,0,183.8,27.64s22.86-38.4,50.65-21.21C234.45,6.43,238.79,12,237.74,14.57Z"/><polygon class="cls-1" points="156.71 173.49 118.16 174.16 136.2 183.46 156.04 176.96 156.71 173.49"/><path class="cls-1" d="M44.3,8.52S26.15,21.29,47,65.9l5.83,9.41L68.74,48.42S67.17-5.83,44.3,8.52Z"/><path class="cls-1" d="M238.33,16.89s15.48,7.24-5.37,51.85l-7.47,11.35L213.9,56.78S215.47,2.54,238.33,16.89Z"/><path class="cls-4" d="M42.75,58.09s2.53,7.09,1.73,13.56S49,87.39,49,87.39l4.6-10.3Z"/><path class="cls-4" d="M234.94,66.68s-2.91,6.95-2.47,13.45-5.38,15.47-5.38,15.47l-4-10.54Z"/><path class="cls-4" d="M268.48,114.64h-16.9l3.56-16.44h16.78Zm12-57.9L268.92,90.86h-7.78L263.92,57l4.56-21.45H285Z"/><path class="cls-5" d="M110.26,239.08c4.26-4.66,8.44-8.59,11.84-13.11,4.45-5.93,9.75-8.75,17.31-8,4.76.49,9.65-.31,14.48-.28a5.77,5.77,0,0,1,3.78,1.53c5.34,5.69,10.48,11.58,15.75,17.34,1.41,1.54,2.13,2.77.41,4.71-10,11.33-19.89,22.76-30.18,34.57Z"/><path class="cls-4" d="M154,216.23a6,6,0,0,1,5,2.27c5.13,6,10.48,11.88,15.61,17.91,2.24,2.63,2.12,3.28-.09,5.83q-13.56,15.66-27.17,31.27c-.22.26-.46.5-.69.75-2.89,3-3.74,3.09-6.56.1q-4.91-5.19-9.66-10.5c-6.71-7.51-13.34-15.09-20.07-22.59-1.61-1.8-1.54-3.35,0-5.05,5.21-5.66,10.45-11.3,15.58-17a7.44,7.44,0,0,1,6.28-2.62c3.5.12,7,0,10.53,0C142.77,216.47,150.24,216.26,154,216.23ZM112.8,239.09l30.52,33.62c9.41-10.8,18.46-21.24,27.59-31.6,1.57-1.78.92-2.9-.38-4.31-4.81-5.27-9.51-10.65-14.39-15.85a5.26,5.26,0,0,0-3.46-1.4c-4.41,0-22-.42-23.46.9a77.76,77.76,0,0,0-5.6,6.65C120.51,231.23,116.7,234.82,112.8,239.09Z"/><path class="cls-4" d="M132,16.47a4.07,4.07,0,0,1-3.39-1.66c-1.11-1.53-2.08-3.74.27-5a6.82,6.82,0,0,1,6.1,1.78c1.66,1.5,2.66-.14,3.22-1.85a4.1,4.1,0,0,1,6.4-2.14c1.91,1.55,1.24,3.56,1.62,4,2.27,2.57,4.7-3.55,8.21-1.31,0,0,2.72,2.36-1.49,5.12a4.12,4.12,0,0,1-2.16.66Z"/><path class="cls-4" d="M73.49,376.16C34.41,371.3,32.05,342.3,32,342c-2.35-38.13,32.86-44.74,33.22-44.8l.68,3.9c-1.31.23-32.08,6.11-29.95,40.65.07,1.05,2.27,26,38,30.47Z"/><path class="cls-4" d="M97.13,412.91c-.92,0-1.85,0-2.8-.06-13.69-.65-18.11-19.49-18.3-20.29-4-14-6.09-25.47-6.15-34.08A16.7,16.7,0,0,1,81,342.61c28.42-10.05,110.33-22.28,124.46-24.35a2,2,0,0,1,2.24,1.68h0a2,2,0,0,1-1.66,2.24c-13.73,2-96,14.37-123.73,24.16a12.75,12.75,0,0,0-8.46,12.12c0,8.24,2.08,19.39,6,33.11.06.28,4,16.82,14.64,17.32,1,.05,1.9.07,2.84.06a27.6,27.6,0,0,0,26.42-35.05l-.19-.67,3.8-1.12c.08.25.14.49.21.74a31.55,31.55,0,0,1-30.22,40.06Z"/><path class="cls-4" d="M127.72,385.79l-.25-4,25.28-1.61c41.58-3.05,65.45-10.83,78.16-16.82,14.47-6.82,22.14-23.14,17.85-38-5.48-18.92-26.52-23.75-26.73-23.79l.85-3.87c1,.21,23.55,5.4,29.68,26.56,4.83,16.67-3.76,35-20,42.64-13,6.14-37.38,14.1-79.58,17.19Z"/><path class="cls-4" d="M181.11,408.07c-21.6,0-28.18-24.86-28.25-25.14l3.84-1c.27,1.06,6.91,26,29.59,21.64,22.84-4.39,22.92-27.87,22.91-28.83l4-.75c0,.27-.06,28.45-26.2,33.47A31.53,31.53,0,0,1,181.11,408.07Z"/><rect class="cls-4" x="103.89" y="297.17" width="3.96" height="56.32" rx="1.98" transform="translate(-234.95 355.09) rotate(-76.97)"/><path class="cls-4" d="M182,405.47h0a1.92,1.92,0,0,1-.07-2.34c2.67-3.45.74-9.44-.45-12.32a2,2,0,0,1,.91-2.5h0a2,2,0,0,1,2.74,1c1.48,3.56,3.86,11.17,0,16.21A2,2,0,0,1,182,405.47Z"/><path class="cls-4" d="M196.56,401.89h0a1.92,1.92,0,0,1-.07-2.34c2.67-3.46.73-9.44-.46-12.32a2,2,0,0,1,.91-2.51h0a2,2,0,0,1,2.74,1c1.47,3.56,3.86,11.18,0,16.22A2,2,0,0,1,196.56,401.89Z"/><path class="cls-4" d="M247.43,354.78l-.25-3.95c5.51-.35,10-4.07,13.23-11.08a36,36,0,0,0,3.21-13.13c2.27-38-14.28-73.14-14.45-73.49l3.57-1.71c.17.36,17.16,36.43,14.83,75.43A39.69,39.69,0,0,1,264,341.42C260.12,349.73,254.39,354.35,247.43,354.78Z"/><path class="cls-4" d="M33.59,344.65c-5.94-7.16-13.82-9.42-23.44-6.72A8,8,0,0,1,.54,327.37l24.71-65.72,3.89,2.09L4.23,328.79a4,4,0,0,0,4.85,5.33c11.1-3.12,19.61-1.27,26.54,7.08Z"/><path class="cls-4" d="M263.68,341.9l-3-2.63c.29-.33,7.27-8.08,18.21-9.32a4.82,4.82,0,0,0,3.82-6.87l-33.58-69.95,3.57-1.71,33.58,70a8.78,8.78,0,0,1-6.95,12.51C269.93,335,263.74,341.83,263.68,341.9Z"/><path class="cls-4" d="M97.4,382.5a9.5,9.5,0,0,1-7.58,4.14c-4.15.29-8.16-1.22-12-2.6a2,2,0,0,0-1.06,3.82c4.46,1.6,9.2,3.25,14,2.65a13.41,13.41,0,0,0,10-6c1.33-2.18-2.1-4.18-3.42-2Z"/><path class="cls-4" d="M102,396.92a9.54,9.54,0,0,1-7.57,4.14c-4.15.28-8.17-1.22-12-2.6A2,2,0,0,0,80,399.84a2,2,0,0,0,1.38,2.44c4.46,1.6,9.19,3.24,14,2.64a13.38,13.38,0,0,0,10-6c1.33-2.18-2.09-4.17-3.42-2Z"/><path class="cls-1" d="M101.16,24.06S42,52.45,50.66,103.26s23,58,23,58S111,181.86,163,172c0,0,33.47-3.88,49.91-17s13.45-26.3,13.45-26.3L223.7,118.2s10.16-32.58-11.36-65.15C212.34,53.05,169-4,101.16,24.06Z"/><path class="cls-1" d="M43.78,108.93s14.65-12,17.93-2.69-.3,13.45-.3,13.45L48.86,130.15s17.34-8.66,17.63,13.15c0,0,13.75,11.06-.59,22.72l-5.68.89s.9,14.35-5.08,23.91c0,0,13.45,14.35,13.45,31.68a195.16,195.16,0,0,1-1.8,28.39s-8.66,23.61-29.28,16.74S13.3,230.57,13.3,230.57s-7.17-61,14.64-105.2Z"/><path class="cls-4" d="M223.44,266.23l-.64-3.91c12.11-2,25.38-10.54,32.21-15.46a6,6,0,0,0,1.69-7.77c-24.43-43.75-63-60.08-69.46-62.55-17,11.84-33.08,15.84-47,15.84-25.15,0-43.39-13-47.72-16.37-5,2.14-26,11.61-33,22.12l-3.3-2.2C64.81,183,91,172.33,92.07,171.88l1.13-.45.92.8a75.26,75.26,0,0,0,27.07,13.71c22,6.06,43.74,1.61,64.62-13.24l.82-.58,1,.32c.45.15,45.2,15.72,72.57,64.72a9.92,9.92,0,0,1-2.84,12.91C250.21,255.2,236.35,264.11,223.44,266.23Z"/><path class="cls-4" d="M224.29,301.29,64.4,301a2,2,0,0,1-2-1.91h0c-1.24-32.63,12-77,15-86.64A2,2,0,0,1,80,211.15h0a2,2,0,0,1,1.27,2.47c-2.85,9.09-15,49.87-14.93,81.46a2,2,0,0,0,2,2l152.14.28a2,2,0,0,0,2-2c0-10.47-1.49-41.56-17.59-81.7a2,2,0,0,1,1.08-2.58h0a2,2,0,0,1,2.59,1.1c20.19,50.35,17.79,86.9,17.77,87.27h0A2,2,0,0,1,224.29,301.29Z"/><path class="cls-4" d="M227.73,123.35a35.52,35.52,0,0,1-.34-12.88,85.43,85.43,0,0,0-.15-26.27c-2.85-17.44-13-41.75-44.91-58.49-51.59-27-99.39,6.66-100.79,7.66-1.23.85-38.44,27.11-32.32,69.84a7.24,7.24,0,0,1,3.38-.94c-5.53-40.78,30.53-65.76,30.92-66l.06,0c.34-.25,25.51-18.29,58.71-17.46a86.49,86.49,0,0,1,38.42,10.06c24.58,12.87,39.07,31.65,43.06,55.81a79.88,79.88,0,0,1-1.39,32.76l-.2.64.28.6c4.3,9.29,2.29,17.59-1,23.73a35.33,35.33,0,0,1-14.21,14.05c-61.2,33.91-124.46,6.16-125.21,5.82a75.57,75.57,0,0,1-10.52-4.83,7.44,7.44,0,0,1-.39,3.76,80.78,80.78,0,0,0,9.57,4.3c.71.32,17.54,7.81,42.59,10.48,4,.42,8.25.73,12.82.84,22.15.55,50.75-3.42,78.71-20.77C214.83,156,231.78,141.84,227.73,123.35Z"/><circle class="cls-6" cx="125.98" cy="136.47" r="13.71"/><circle class="cls-6" cx="150.58" cy="137.11" r="13.71"/><circle class="cls-6" cx="138.48" cy="138.79" r="13.71"/><path class="cls-4" d="M149,119.2a210.24,210.24,0,0,1-21.35-.08,2.07,2.07,0,0,0-2.17,2.39c.46,2.36,1.5,5,3.84,6.37,1.67,1,3.88,2.2,5.45,3.29,2.63,1.84,4.56,6.63,4.48,6.11-.39-2.55,2-4.68,4.19-6.2,1.68-1.14,3.49-2.1,5.25-3.13,3.75-2.19,3.73-3.51,3.62-6.81a2.09,2.09,0,0,0-2.09-2C149.06,119.13,149,119.14,149,119.2Z"/><rect class="cls-4" x="102.17" y="127.99" width="14.95" height="3.11" rx="1.31" transform="translate(16.54 -12.36) rotate(6.97)"/><rect class="cls-4" x="105.7" y="137.16" width="14.95" height="3.11" rx="1.31" transform="translate(-33.84 36.55) rotate(-15.99)"/><rect class="cls-4" x="156.97" y="129.83" width="14.95" height="3.11" rx="1.31" transform="translate(337.88 250.62) rotate(175.88)"/><rect class="cls-4" x="160.51" y="138.21" width="14.95" height="3.11" rx="1.31" transform="translate(298.99 314.67) rotate(-166.6)"/><ellipse class="cls-6" cx="120.67" cy="71.3" rx="7.18" ry="4.78" transform="translate(41.23 186.77) rotate(-86.05)"/><ellipse class="cls-6" cx="158.7" cy="73.45" rx="7.18" ry="4.78" transform="translate(74.5 226.71) rotate(-86.05)"/><path class="cls-4" d="M160.3,112A22,22,0,0,1,161,98.45a16,16,0,0,1,4.34-6.16,16.38,16.38,0,0,1,6.9-3.49,50.42,50.42,0,0,1,13.51-1.53,54.48,54.48,0,0,1,13.37,1.85l3.31.9-1.57,2.57a30.21,30.21,0,0,1-2.28,3.12,29.41,29.41,0,0,1-2.54,2.81,22,22,0,0,1-6.07,4.41,48.79,48.79,0,0,0,3.7-6.16c.52-1.07,1.05-2.1,1.52-3.17s.92-2.17,1.28-3.15l1.74,3.46c-4-.21-8.3-.23-12.39-.07a88.67,88.67,0,0,0-12.16,1.28,12.49,12.49,0,0,0-8.64,5.46A33.3,33.3,0,0,0,160.3,112Z"/><circle class="cls-4" cx="176.16" cy="100.11" r="9.84"/><path class="cls-4" d="M117.87,112.72a33.31,33.31,0,0,0-4.15-11.67,12.52,12.52,0,0,0-8.37-5.89,87.43,87.43,0,0,0-12.07-1.88c-4.08-.37-8.34-.56-12.39-.55l1.91-3.37c.32,1,.71,2.15,1.13,3.21s.9,2.15,1.35,3.24a49.39,49.39,0,0,0,3.4,6.34,22.09,22.09,0,0,1-5.85-4.71,29.35,29.35,0,0,1-2.39-2.93,30.54,30.54,0,0,1-2.12-3.23l-1.44-2.64,3.35-.74a54.55,54.55,0,0,1,13.44-1.18,50.28,50.28,0,0,1,13.42,2.2,16.42,16.42,0,0,1,6.72,3.83,16.12,16.12,0,0,1,4,6.37A22,22,0,0,1,117.87,112.72Z"/><circle class="cls-4" cx="102.63" cy="100.02" r="9.84"/><path class="cls-4" d="M80.82,80a29.13,29.13,0,0,0,3.71,2.74c1,.66,1.89,1.16,2.78,1.77s1.87,1.23,2.93,2.1A19.66,19.66,0,0,1,92,88,14.45,14.45,0,0,1,93.89,90a9.26,9.26,0,0,1-2.51,1.34,10.68,10.68,0,0,1-2.63.41,9.55,9.55,0,0,1-5.19-1.59,8.81,8.81,0,0,1-3.48-4.52A6.07,6.07,0,0,1,80.82,80Z"/><path class="cls-4" d="M199.5,80.8a6.06,6.06,0,0,1,.46,5.63,8.82,8.82,0,0,1-3.71,4.34A9.49,9.49,0,0,1,191,92.1a10.71,10.71,0,0,1-2.62-.54A9.5,9.5,0,0,1,186,90.09a14.58,14.58,0,0,1,2-1.82,17.87,17.87,0,0,1,1.79-1.33c1.1-.82,2.12-1.39,3-2s1.82-1,2.87-1.63A29.07,29.07,0,0,0,199.5,80.8Z"/><path class="cls-6" d="M70,107.41a105.15,105.15,0,0,0,2.77,10.36,29.24,29.24,0,0,0,2,4.66,12.28,12.28,0,0,0,2.85,3.69,3.64,3.64,0,0,0,.87.66c.34.19.54.35,1,.59A15.82,15.82,0,0,1,82,129a17.23,17.23,0,0,1,3.91,4.41,20.45,20.45,0,0,1,3,10.74,37.67,37.67,0,0,0-5.35-9.07,18.81,18.81,0,0,0-3.65-3.29,16.07,16.07,0,0,0-2.06-1.17,12.82,12.82,0,0,1-2.66-1.72A13.66,13.66,0,0,1,71.65,124,23,23,0,0,1,70,118.49,30.35,30.35,0,0,1,70,107.41Z"/><path class="cls-6" d="M208.1,111.49a30.19,30.19,0,0,1-.57,11.07,23,23,0,0,1-1.95,5.4,13.73,13.73,0,0,1-3.81,4.74,12.27,12.27,0,0,1-2.74,1.59,14.52,14.52,0,0,0-2.12,1.07,18.19,18.19,0,0,0-3.8,3.1,36.74,36.74,0,0,0-5.8,8.79,20.44,20.44,0,0,1,3.56-10.58,17.32,17.32,0,0,1,4.12-4.21,16.29,16.29,0,0,1,2.63-1.51c.45-.22.67-.36,1-.54a3.33,3.33,0,0,0,.9-.61,12.39,12.39,0,0,0,3-3.54,29.75,29.75,0,0,0,2.25-4.56A106.12,106.12,0,0,0,208.1,111.49Z"/><ellipse class="cls-7" cx="95.28" cy="96.58" rx="2.16" ry="5.22" transform="translate(-3.65 189.42) rotate(-88.57)"/><ellipse class="cls-7" cx="184.81" cy="97.4" rx="2.16" ry="5.22" transform="translate(82.82 279.72) rotate(-88.57)"/><path class="cls-4" d="M109.38,65a23,23,0,0,1,11.35,3.41,3.06,3.06,0,0,1,.63,4.68l.08-.08-.39.42a3,3,0,0,1-3.8.57,15.52,15.52,0,0,0-16.19-.33,3.1,3.1,0,0,1-4-.8l-.26-.34a3.08,3.08,0,0,1,1-4.51A22.2,22.2,0,0,1,109.38,65Z"/><path class="cls-4" d="M170.56,67.38a22.92,22.92,0,0,1,11.35,3.41,3.06,3.06,0,0,1,.63,4.69l.08-.08-.38.42a3,3,0,0,1-3.81.56,15.53,15.53,0,0,0-16.19-.32,3.12,3.12,0,0,1-4-.8l-.25-.35a3.07,3.07,0,0,1,1-4.51A22.24,22.24,0,0,1,170.56,67.38Z"/><path class="cls-4" d="M117.34,125.83a35.33,35.33,0,0,0-2.77,5.54,13.26,13.26,0,0,0-.95,5.38,14.11,14.11,0,0,0,1.34,5.31c.35.91.91,1.75,1.35,2.7a30.39,30.39,0,0,1,1.61,2.8,21.47,21.47,0,0,1-2.9-1.66,17.7,17.7,0,0,1-2.41-2.41,11.4,11.4,0,0,1-2.49-6.62,11.18,11.18,0,0,1,2-6.79A11.81,11.81,0,0,1,117.34,125.83Z"/><path class="cls-4" d="M159.26,126.48a11.79,11.79,0,0,1,5,4.5,11.2,11.2,0,0,1,1.69,6.89,11.39,11.39,0,0,1-2.82,6.49,17.5,17.5,0,0,1-2.53,2.28,20.84,20.84,0,0,1-3,1.51c.55-1,1.17-1.85,1.75-2.71s1.09-1.74,1.49-2.63a14.33,14.33,0,0,0,1.6-5.24,13.54,13.54,0,0,0-.68-5.42A35.25,35.25,0,0,0,159.26,126.48Z"/><path class="cls-4" d="M140.23,51.12a21.12,21.12,0,0,1,1.34,5.05,35.58,35.58,0,0,1,.35,5,34,34,0,0,1-.4,5,20.46,20.46,0,0,1-1.4,5,20.5,20.5,0,0,1-1.35-5,34.51,34.51,0,0,1,.06-10.08A21.16,21.16,0,0,1,140.23,51.12Z"/><circle class="cls-4" cx="138.03" cy="186.34" r="4.94"/><path class="cls-4" d="M145.45,206.44c-3.13-1.55-5.3-5.29-6.77-9.2a1.75,1.75,0,0,0-3-.48,49.6,49.6,0,0,1-7.41,7.18,1.75,1.75,0,0,1-2.51-.36h0a1.76,1.76,0,0,1,.33-2.38c2.73-2.15,8.83-7.44,10-12.27A2,2,0,0,1,140,189c1.18,5.81,3.67,12.65,7,14.32a1.73,1.73,0,0,1,.93,1.78h0A1.75,1.75,0,0,1,145.45,206.44Z"/><path class="cls-4" d="M51.57,76.27c-1.23-1.81-30-44.82-7.85-70.29l.14-.14c.82-.76,20.65-18.2,58.05,18.22l-2.43,2.5c-33.87-33-52-19.16-53.21-18.2-20.26,23.47,7.9,65.53,8.19,66Z"/><path class="cls-4" d="M66.79,47.75c0-.16-.38-4.32-4.48-25.2-1.23-6.3-3.65-10.33-7.18-12-5-2.34-10.84.79-10.9.82L42.55,8.32c.3-.16,7.5-4.57,14.12-1.48,4.61,2.15,7.6,7.57,9.07,15,4.17,21.3,4.51,25.45,4.53,25.61Z"/><path class="cls-4" d="M214.64,52.5l-3.46-.44c0-.16.56-4.28,5.8-25.35,1.84-7.38,5.15-12.1,9.87-14,6.76-2.75,13.68,1.45,14,1.63l-1.84,3s-5.73-3.45-10.84-1.36c-3.61,1.48-6.22,5.39-7.77,11.62C215.24,48.2,214.66,52.34,214.64,52.5Z"/><path class="cls-4" d="M226.6,81.59l-2.85-2a101.9,101.9,0,0,0,14.5-31,54.4,54.4,0,0,0,.32-29.15c-1.58-5.73-3.81-10-6.61-12.71q-3.56-3.42-10.18-3.25c-9.73.28-21.2,6.56-26.68,12.47-8.59,9.29-10.33,11.86-10.4,12L181.78,26c.07-.11,1.83-2.76,10.76-12.42C199.46,6.13,212,.29,221.68,0c5.29-.15,9.68,1.31,12.71,4.23,3.25,3.14,5.79,7.94,7.55,14.29a57.89,57.89,0,0,1-.33,31A105.27,105.27,0,0,1,226.6,81.59Z"/><path class="cls-4" d="M230.49,26.55c-1.78,5.07-5.57,9-9.27,12.72l1.39,1.46c2.36-2.39,6.15-.7,6.59,2.44.49,3.49-2.65,6-5.87,6.15-.87.06-1.56,1.42-.55,1.87a5.69,5.69,0,0,1,3.15,6.94,1,1,0,0,0,1.94.59,7.67,7.67,0,0,0-4-9.24l-.56,1.86c4.69-.27,9-4.1,7.79-9.09-1-4.37-6.59-6.29-9.85-3-.91.92.48,2.39,1.39,1.46,4-4,7.91-8.18,9.81-13.6.44-1.22-1.5-1.8-1.93-.58Z"/><path class="cls-4" d="M49.88,28.79c1.79,5.07,5.57,9,9.27,12.72L57.76,43c-2.36-2.39-6.14-.7-6.58,2.44-.49,3.5,2.64,6,5.86,6.16.87,0,1.56,1.41.56,1.86a5.71,5.71,0,0,0-3.16,7,1,1,0,0,1-1.93.58,7.67,7.67,0,0,1,4-9.24l.56,1.87c-4.68-.28-9-4.11-7.79-9.1,1-4.37,6.59-6.28,9.85-3,.91.93-.48,2.39-1.39,1.46-4-4-7.9-8.18-9.81-13.59-.43-1.23,1.5-1.81,1.93-.59Z"/><path class="cls-4" d="M137.77,187.08l-1-.58C111.31,172.23,94.18,175.39,94,175.43l-.79-3.88c.74-.15,18.18-3.47,44.44,10.93,4.53-2.63,23.29-12.4,48.91-10.29l-.32,3.94c-27.5-2.27-47.28,10.18-47.48,10.3Z"/><rect class="cls-4" x="138.15" y="132.38" width="1.32" height="7.3"/><path class="cls-4" d="M139.34,147.43c-3.36,0-6-2.1-6-4.78s2.63-4.78,6-4.78,6,2.1,6,4.78S142.7,147.43,139.34,147.43Zm0-6.92c-1.79,0-3.35,1-3.35,2.14s1.56,2.14,3.35,2.14,3.36-1,3.36-2.14S141.13,140.51,139.34,140.51Z"/><path class="cls-4" d="M45.55,270.23c-10.06,0-18.95-6.41-20.06-7.23-1.9-1.17-17.35-12.43-14.09-67,3.36-56.23,13.43-69.81,13.86-70.36.63-.91,17-24.2,29.7-25.09A9.61,9.61,0,0,1,63,103.78a10.49,10.49,0,0,1,2.91,9.07c-.85,5.54-5.83,11-10.83,15.26a13.12,13.12,0,0,1,8.34,1.54c3.83,2.38,5.61,7.1,5.29,14a15.68,15.68,0,0,1,5.32,14.89c-1.37,8.22-7.43,11-11.9,11.46,1.89,12.14-3,19.61-5.52,22.57,5,6,22.48,29.77,11.72,58.46-3.77,10.06-9.44,16.23-16.85,18.35A21.18,21.18,0,0,1,45.55,270.23ZM55.73,104.49l-.5,0c-9,.63-22.39,17.17-26.78,23.49-.15.2-9.85,13.75-13.1,68.25C12.14,250,27.41,259.54,27.57,259.63l.23.15c.12.09,11.86,8.92,22.63,5.82,6.13-1.76,10.91-7.12,14.21-15.93,11.53-30.75-11.88-55.51-12.12-55.75l-.34-.36a1.52,1.52,0,0,1,.1-2.21l.37-.31c.34-.3,8.46-7.6,5.19-22.51l-.58-2.62,2.68.23c.89.07,8.77.41,10.21-8.22a11.93,11.93,0,0,0-6.36-12.82,22.07,22.07,0,0,0-15.27,2.39,2,2,0,0,1-2.6-.6h0a2,2,0,0,1,.65-2.85,25.78,25.78,0,0,1,18.23-2.78c-.14-4.14-1.29-6.91-3.45-8.25-3.7-2.3-12,.71-15.67,2.21a2.16,2.16,0,0,1-2.71-.93h0a2.16,2.16,0,0,1,.64-2.86C48.21,128.22,61,118.74,62,112.25a6.63,6.63,0,0,0-1.91-5.78A5.73,5.73,0,0,0,55.73,104.49Z"/><path class="cls-8" d="M61.58,169.22a12.08,12.08,0,0,1-9.48-4.54,1.9,1.9,0,0,1,.61-2.91l.15-.07a1.9,1.9,0,0,1,2.36.57c1.47,1.88,4.88,4.77,11,2.28l1.48,3.38A16.24,16.24,0,0,1,61.58,169.22Z"/><path class="cls-4" d="M34.35,288.24C10.09,283.33,7.24,265.7,7,259.41a2,2,0,0,1,2.18-2l1.79.19-2-.21.14,0a2,2,0,0,1,1.78,1.92c.11,5.25,2.33,20.65,24.26,25.05a2,2,0,0,1,1.54,2.26h0A2,2,0,0,1,34.35,288.24Z"/><path class="cls-4" d="M278.84,348.47v0a1.94,1.94,0,0,1,.9-2.55c21.89-10.68,19.74-27.54,18.4-32.88a1.94,1.94,0,0,1,1.22-2.29h0a2,2,0,0,1,2.6,1.37c1.47,6.38,3.58,25.59-20.43,37.33A2,2,0,0,1,278.84,348.47Z"/><path class="cls-2" d="M130.09,248.93l-3.92-15.18,2.69.09,2.76,11.4h.09l3.7-11.2,2.36.07L141,245.52h.08l3.41-11.22,2.71.08-4.84,14.91-2.64-.08-3.2-11.64h-.07L132.73,249Z"/><path class="cls-2" d="M148.54,248.75l.46-15,6.93.21a5.61,5.61,0,0,1,3.85,1.37,5,5,0,0,1-.21,6.88,5.59,5.59,0,0,1-3.93,1.14l-4.34-.13-.17,5.65Zm2.82-7.78,4.2.13a3,3,0,0,0,2.14-.6,2.42,2.42,0,0,0,.78-1.8,2.35,2.35,0,0,0-.67-1.85,3,3,0,0,0-2.1-.73l-4.19-.12Z"/></g></g></svg>