<svg xmlns="http://www.w3.org/2000/svg" viewBox="0 0 365.08 430.17"><defs><style>.cls-1{fill:#cf9776;}.cls-2{fill:#3c1c0f;}.cls-3{fill:#ffe299;}.cls-4{fill:#202670;}.cls-5{fill:#fff5e5;}.cls-6{fill:#efb89f;}.cls-7{fill:#e53b33;}.cls-8{fill:#fff;}</style></defs><g id="Capa_2" data-name="Capa 2"><g id="Capa_1-2" data-name="Capa 1"><path class="cls-1" d="M144.09,31.76l20.32-4.18L200.57,33s29.29,8.37,36.16,23.61c0,0,15.54-20,43.34-10.46,0,0,16.73,25.1-27.5,58.57l-4.18,18.83s4.78,22.12-3.29,32-13.45,16.74-13.45,16.74-43.93,25.4-90.85,5.08c0,0-63.36-9.87-58-59.18l8.67-14.64S89.54,77.19,100.15,64c0,0-6.12-46.92,16-60.22C116.14,3.82,135-5,144.09,31.76Z"/><path class="cls-2" d="M267.73,93.59s-5.32,6.82-6.79,14.16-10.63,15.53-10.63,15.53L249,110.38Z"/><path class="cls-3" d="M82.67,135.17S44.57,158.7,44.12,184.7c0,0,9.86,18.83,28.91,24.66,0,0-15.69,39.67-11.65,58.28,0,0,20.62,23.53,83.15,28,0,0,6.28-24,39.9-12.56l11.88,10.09,22.42-7.4,1.57-5.6-3.14-34.07,20.4,3.36s16.81-17.71,9.86-57.15l-48.64-9s-28.47,15-57.16,11.43c0,0-22-3.59-25.55-24.88C116.07,169.91,85.58,158.26,82.67,135.17Z"/><path class="cls-1" d="M68.1,272.57s-4,19.95,9,65.67c0,0,13.45,36.54,38.55,47.07,0,0-11,37.21,18.6,41.47,0,0,7.85,2.69,18.83-2.91,0,0,20.18-1.12,18.38-25.11,0,0-1.12-16.81-6.5-23.08,0,0,25.78,3.36,26.68-28.47l-1.8-19.28,10.76-4.48s33.17,45.95,83.61,31.83c0,0,40.12-20.17,17-40.12,0,0-15.24-10.54-27.57,8.29,0,0-10.76,17.26-36.31-.9s-22-31.83-22-31.83l-1.12-3.58-17.7,5.15s-25.33-26.22-44.61-5.15l-7.4,8.52-30.25-4.94S80.43,283.33,68.1,272.57Z"/><path class="cls-1" d="M64.29,81.07s-7.17,13.75,7.17,34.67l10.16,20.62L61,153.4l-13.74,20s-22.12-11.95-30.19-78.6a32.86,32.86,0,0,0-10.46-16c-8.52-7.32-3.44-15.09-3.44-15.09L10.65,60l2.09-15.24,9.11-3.43,7.62,2.54,9.27-5.38,8.67,1.19,6.12,12.4.15,6.58,8.07-5.53S82.22,56.87,64.29,81.07Z"/><polygon class="cls-4" points="97.91 222.81 114.72 268.31 131.09 260.46 162.91 239.17 152.83 217.88 119.43 208.24 97.91 222.81"/><path class="cls-2" d="M98.3,43.34s-.89,7.48-4.48,12.92-1.73,22.65-1.73,22.65l7.49-13.72Z"/><path class="cls-5" d="M292.92,106.82s-6.06,29.15-25.08,49.24S242.32,177,242.32,177l20.8,11.53L287.45,197l3.45-.55,3.73-4.13s-5-10.47,4.94-13.5c0,0,11.67,1.14,12.85,16.39,0,0,33.42-16.48,50.72-66.47l-4.65-3Z"/><circle class="cls-2" cx="289.63" cy="329.88" r="16.89"/><polyline class="cls-2" points="132.73 5.16 144.83 32.51 160.52 27.28 132.73 5.16"/><path class="cls-2" d="M279.47,43.87s-11.66-20.77-54.24,0l10.31,10.9S255.86,37.44,279.47,43.87Z"/><path class="cls-6" d="M212.94,126.16a24.89,24.89,0,0,1-1.82,8.84,19.22,19.22,0,0,1-2.25,4.11,11,11,0,0,1-3.65,3.34,10.34,10.34,0,0,1-2.4,1A11.25,11.25,0,0,0,201,144a15.37,15.37,0,0,0-3.45,2,30.44,30.44,0,0,0-5.75,6.36,16.64,16.64,0,0,1,4.17-8.07,14.3,14.3,0,0,1,3.84-2.89,13.45,13.45,0,0,1,2.31-.89c.39-.12.58-.21.88-.31a2.66,2.66,0,0,0,.8-.38,10.11,10.11,0,0,0,2.88-2.48A23.48,23.48,0,0,0,209,134,86.16,86.16,0,0,0,212.94,126.16Z"/><path class="cls-6" d="M95.58,99.79a24.79,24.79,0,0,0-3.36,8.37,19,19,0,0,0-.4,4.66,11,11,0,0,0,1.2,4.81,10.42,10.42,0,0,0,1.48,2.12,11.05,11.05,0,0,1,1.2,1.51,14.59,14.59,0,0,1,1.75,3.59,30.53,30.53,0,0,1,1.29,8.48,16.64,16.64,0,0,0,1-9,14.29,14.29,0,0,0-1.61-4.53,12.67,12.67,0,0,0-1.43-2c-.26-.32-.37-.5-.56-.75a2.75,2.75,0,0,1-.46-.76,10.06,10.06,0,0,1-1-3.65,24.68,24.68,0,0,1-.11-4.14C94.69,105.63,95.11,102.75,95.58,99.79Z"/><path class="cls-2" d="M186.39,28.78a4.05,4.05,0,0,1-2.79-2.53c-.65-1.79-1-4.18,1.63-4.69a6.84,6.84,0,0,1,5.38,3.4c1.17,1.9,2.59.61,3.6-.89A4.1,4.1,0,0,1,201,23.8c1.41,2,.2,3.76.45,4.27,1.47,3.11,5.51-2.11,8.26,1,0,0,2,3-2.86,4.51a4.13,4.13,0,0,1-2.26,0Z"/><polygon class="cls-1" points="127.72 174.17 141.84 191.2 155.29 188.29 176.59 185.04 127.72 174.17"/><path class="cls-2" d="M128.5,53.46a22.91,22.91,0,0,1,11.12,4.09,3.06,3.06,0,0,1,.35,4.71l.08-.08-.41.4a3,3,0,0,1-3.83.34,15.5,15.5,0,0,0-16.14-1.3,3.11,3.11,0,0,1-4-1l-.24-.36a3.09,3.09,0,0,1,1.25-4.45A22.24,22.24,0,0,1,128.5,53.46Z"/><path class="cls-2" d="M193.37,66.31A22.93,22.93,0,0,1,204,71.61a3.06,3.06,0,0,1-.18,4.72l.09-.07-.45.35a3,3,0,0,1-3.84-.09,15.55,15.55,0,0,0-15.91-3.07A3.1,3.1,0,0,1,179.86,72l-.2-.39a3.08,3.08,0,0,1,1.73-4.28A22.23,22.23,0,0,1,193.37,66.31Z"/><path class="cls-2" d="M160.07,57.86a20.68,20.68,0,0,1-.39,5.2,33.74,33.74,0,0,1-3.35,9.5,20.54,20.54,0,0,1-3,4.29,20.68,20.68,0,0,1,.39-5.2,34.19,34.19,0,0,1,3.36-9.5A21.15,21.15,0,0,1,160.07,57.86Z"/><path class="cls-2" d="M183.37,186.68a103.21,103.21,0,0,1-14.9-1.08c-22.24-3.26-62-11.78-78.23-32.16C69.31,127.2,86,107,89.74,103,87.81,76.51,99.28,54.83,123,40.31a111.44,111.44,0,0,1,37-14.09l.19,0c19.2-1.1,57.4,3.82,78.8,29.19,14.09,16.71,18,39.08,11.71,66.48a28.77,28.77,0,0,0,.26,3c1.24,10.9,5,44-36.73,57.12A103.07,103.07,0,0,1,183.37,186.68ZM160.44,30.15a109.9,109.9,0,0,0-35.52,13.6c-22.84,14-33.32,34.19-31.16,59.87l.08,1-.72.66c-.86.77-20.73,19.46.21,45.71,15.42,19.32,54.06,27.53,75.72,30.71A99.3,99.3,0,0,0,213,178.22c38.63-12.1,35.26-41.73,34-52.89a14.73,14.73,0,0,1-.19-4.36c6-26.11,2.37-47.32-10.88-63C215.49,33.76,177.68,29.19,160.44,30.15Z"/><path class="cls-7" d="M257.06,238s14.49,37.35,38.55,52.45l-.45,4.63-35.27,13.15s-21.51,6.87-34.51,2.09l-9.27-16.44.3-7.77L220,283l-4.49-37.65s24.36,3.58,23.91,3.73,6.13-13.15,6.13-13.15Z"/><path class="cls-1" d="M246.52,194.9l28-2.24,5.94-5.83s2.46-10,9.64-9.75,9.86,4.6,9.86,4.6,16.59-6.39,19.28,5.71l-1.12,6.84s13,2.8,4,14.57c0,0,7.17,14.23-2.58,16.81s-11,3.25-11,3.25-5.16,5.94-21,1.57c0,0-24.69,9.23-42.1,5.45C245.55,235.88,253.92,207.9,246.52,194.9Z"/><path class="cls-7" d="M117.41,171s0,.17,0,.48c.27,2.87,2.68,17.87,23.72,22.83,0,0,20.74,4.6,53.13-9.3,0,0-30.49-4.59-50.44,7.73C143.86,192.77,129.41,170.58,117.41,171Z"/><ellipse class="cls-6" cx="162.18" cy="133.86" rx="17.13" ry="22.08" transform="translate(-21.39 236.45) rotate(-68.74)"/><circle class="cls-6" cx="144.26" cy="138.13" r="17.13"/><circle class="cls-6" cx="131.73" cy="125.84" r="17.13"/><path class="cls-7" d="M133.59,133.49s-1.57,9.26,15.24,10c0,0,12-1.57,15.09-10.24,0,0-14.57,3.29-20.77-3A16.83,16.83,0,0,1,133.59,133.49Z"/><path class="cls-2" d="M363.05,125.36l-69.64-20.47a2,2,0,0,0-2.49,1.52c-9.24,47.1-49.77,70.08-50.18,70.3h0a2,2,0,0,0,0,3.49,266.53,266.53,0,0,0,32.9,14.64,6.43,6.43,0,0,1,1.95-3.54,247.07,247.07,0,0,1-27.5-11.81,1.58,1.58,0,0,1-.21-2.71c11.14-7.79,36.79-29,45.7-64.34a3.17,3.17,0,0,1,3.95-2.25l60.14,17.12a3.41,3.41,0,0,1,2.36,4.23c-2.82,9.73-12.09,32.4-40.65,56.26a7,7,0,0,1-.53,5.54c35.63-28.5,44.24-56.19,46.12-64.67A2.83,2.83,0,0,0,363.05,125.36Z"/><path class="cls-2" d="M296.65,127.34h0a2,2,0,0,1,2.5-1.25l40.17,13.32a2,2,0,0,1,1.26,2.51h0a2,2,0,0,1-2.5,1.25l-38.19-12.65v0l-2-.66A2,2,0,0,1,296.65,127.34Z"/><path class="cls-2" d="M289.39,142.65h0a2,2,0,0,1,2.51-1.25l40.17,13.32a2,2,0,0,1,1.25,2.51h0a2,2,0,0,1-2.5,1.25l-38.19-12.65h0l-2-.66A2,2,0,0,1,289.39,142.65Z"/><path class="cls-2" d="M279.82,158.52h0a2,2,0,0,1,2.5-1.26l40.17,13.33a2,2,0,0,1,1.26,2.5h0a2,2,0,0,1-2.5,1.26l-38.19-12.66h0l-2-.66A2,2,0,0,1,279.82,158.52Z"/><path class="cls-2" d="M253.12,108c1.75-1.33,42.76-32.91,29.86-64.13l-.09-.17c-.54-1-13.77-23.84-60.83-1.25l1.51,3.15c42.61-20.46,55.42-1.57,56.23-.28C291.52,74,251.42,104.93,251,105.23Z"/><path class="cls-2" d="M273.25,59.41C269.94,64.1,265,67,260.12,69.83c-1.13.65-2.07-1.14-.94-1.78,4-2.3,8.87,1.06,8.67,5.54-.24,5.12-5.38,7.64-10,6.64l1.05-1.65a7.68,7.68,0,0,1,1.36,10,1,1,0,0,1-1.7-1.09A5.69,5.69,0,0,0,257.44,80c-.85-.71.18-1.84,1-1.65,3.15.69,6.84-.84,7.31-4.33.43-3.15-2.76-5.8-5.67-4.14l-.94-1.78c4.58-2.61,9.27-5.33,12.37-9.73.74-1.06,2.45,0,1.7,1.09Z"/><path class="cls-2" d="M116.14,12.18c-.22,5.73,1.92,11.06,4.13,16.25.51,1.2,2.34.34,1.83-.85-1.82-4.27-7.7-4.54-10.26-.84-2.91,4.21-.35,9.34,3.91,11.31l.17-1.94a7.68,7.68,0,0,0-7.14,7.12,1,1,0,0,0,2,.17,5.69,5.69,0,0,1,5.48-5.3c1.11-.06,1-1.57.17-1.94-2.92-1.36-4.93-4.81-3.19-7.88,1.56-2.76,5.7-2.94,7,.15l1.83-.85c-2.06-4.86-4.15-9.86-3.95-15.24,0-1.29-2-1.47-2-.16Z"/><path class="cls-2" d="M139.92,336.3a2,2,0,0,1-2.25-1.7c-3.83-29.28,6.2-42.86,6.63-43.43l.1-.11c8.29-9.38,17.39-13.77,27-13.06,16.65,1.22,29.64,17.28,33.53,22.65a2,2,0,0,1-.52,2.81h0a2,2,0,0,1-2.66-.48c-3.6-4.89-15.81-20-30.63-21.05-6.39-.47-12.56,1.74-18.44,6.58a28.07,28.07,0,0,0-8.76,12.61c-2.23,6.54-4.33,17.41-2.31,32.94a2,2,0,0,1-1.67,2.23Z"/><path class="cls-2" d="M165.28,377.79c-.85,0-1.46,0-1.76-.05h-.14c-19.38.38-32.86-3.1-40-10.34-4.63-4.67-4.86-9.33-4.86-10.12-.39-8,1.91-13.9,6.81-17.56,9.7-7.24,26.62-3.14,32.4-1.42a2,2,0,0,1,1.3,2.55h0a2,2,0,0,1-2.42,1.26c-5.24-1.54-20.74-5.32-28.91.78-3.79,2.84-5.55,7.63-5.23,14.24v.16c0,.13,0,3.68,3.85,7.47,4.44,4.37,14.47,9.5,37.16,9h.23c.88.08,21.59,1.79,24-16.67,2-15.54,1-26.32.46-30.4a2,2,0,0,1,1.57-2.2h0a2,2,0,0,1,2.36,1.67c.62,4.36,1.63,15.37-.46,31.45C189.2,376.21,171.28,377.79,165.28,377.79Z"/><path class="cls-2" d="M190.5,329.91l-.18-4c18.15-.81,23.48-38,23.53-38.33l4.2-.48C217.83,288.8,211.92,329,190.5,329.91Z"/><path class="cls-2" d="M133.3,390.44a1.76,1.76,0,0,1-2,1.49c-28.88-5-49.39-27.44-59.38-65.12-5.94-22.41-6.54-44.28-6.52-52.92a1.75,1.75,0,0,1,2.93-1.28h0a1.77,1.77,0,0,1,.57,1.37c-.23,5.41-.18,25.35,6.87,51.9,9.71,36.52,28.59,57.41,56.16,62.14a1.76,1.76,0,0,1,1.46,2Z"/><path class="cls-2" d="M135.17,429.65c-7-.63-12.53-3.55-16.34-8.68-9.45-12.7-5.11-34.46-4.92-35.38l3.87.79c0,.21-4.16,21,4.23,32.24,3.11,4.18,7.66,6.56,13.51,7.09Z"/><path class="cls-2" d="M140.21,430.17a15.56,15.56,0,0,1-8.67-2.36c-5.83-3.81-7-11-7.2-14.69a2,2,0,0,1,2.1-2.1h0a2,2,0,0,1,1.85,1.85c.17,2.92,1.06,8.79,5.42,11.63,4.61,3,12.32,2,22.35-2.86a2,2,0,0,1,2.65.86h0a2,2,0,0,1-.88,2.68C151,428.5,145.11,430.17,140.21,430.17Z"/><path class="cls-2" d="M154.68,425.13a11.94,11.94,0,0,1-9-3.52c-2.82-2.95-3.6-7-3.81-9.51A2,2,0,0,1,144,410l1.8.11-2-.12H144a2,2,0,0,1,1.85,1.83c.16,1.91.74,5,2.74,7.08a8.3,8.3,0,0,0,6.38,2.28,14.24,14.24,0,0,0,12.77-8.66c2.62-6.14,4.07-16.92-3.51-33.76a2,2,0,0,1,.95-2.62h0a2,2,0,0,1,2.65,1c8.18,18.17,6.49,30.1,3.55,37A18.19,18.19,0,0,1,155,425.13Z"/><path class="cls-2" d="M138.09,373.15a2,2,0,0,1-2.88.49,17.1,17.1,0,0,1-6.71-10.27,19.43,19.43,0,0,1,2-12.17,2,2,0,0,1,2.89-.75l1.49,1-1.63-1.12.14.1A2,2,0,0,1,134,353a15.62,15.62,0,0,0-1.62,9.69,13.34,13.34,0,0,0,5.26,7.88,2,2,0,0,1,.44,2.63Z"/><path class="cls-2" d="M155.66,375.2a2,2,0,0,1-2.91.5,14.4,14.4,0,0,1-5.34-8.42c-1.07-5.1.82-10,2.14-12.64a2,2,0,0,1,2.88-.77l1.52,1-1.64-1.11.12.09a2,2,0,0,1,.68,2.52c-1.06,2.11-2.65,6.14-1.82,10.1a10.69,10.69,0,0,0,3.92,6.11,2,2,0,0,1,.45,2.6Z"/><path class="cls-2" d="M136.21,329.35c-11.31-4-15.7-13.58-17.14-17.87a2,2,0,0,1,1.47-2.55l1.8-.38-1.94.41.13,0a2,2,0,0,1,2.29,1.3c1.21,3.6,5,11.93,14.74,15.39A2,2,0,0,1,138.8,328h0A2,2,0,0,1,136.21,329.35Z"/><path class="cls-2" d="M265.26,360.23a53.52,53.52,0,0,1-7.24-.44c-2.25-.21-36.93-3.8-58.73-34.87l3.24-2.27c21,29.88,55.54,33.17,55.89,33.19s24.74,3.54,39.66-11.66c8.82-9,8.21-16.73,6.14-21.63a12.39,12.39,0,0,0-7.16-6.62c-11.75-4.32-19.62,4.47-21.67,8.22a16.23,16.23,0,0,1-10.22,8.28c-9.81,2.68-21.15-3.15-25.56-5.78-18.14-10.81-26.32-32.09-26.66-33l3.71-1.39c.08.2,8.05,20.89,25,31,8.3,4.95,16.71,6.95,22.5,5.37a12.38,12.38,0,0,0,7.78-6.35c3.62-6.64,13.67-14.78,26.52-10a16.24,16.24,0,0,1,9.43,8.79c2.08,4.92,3.94,14.84-6.95,25.94C289.72,358.35,274.27,360.23,265.26,360.23Z"/><path class="cls-2" d="M293.82,208.66a10.58,10.58,0,0,1-7.83-3.39,2,2,0,0,1,.43-3.05h0a1.94,1.94,0,0,1,2.41.29,7,7,0,0,0,6.49,2.05,7.17,7.17,0,0,0,5.82-6c.25-1.55.44-3.3.56-5.22.61-9.33-4.77-13.15-10-13.62-4.31-.39-9.05,1.61-9.5,5.6a2.68,2.68,0,0,1-.11.49A13.18,13.18,0,0,1,270,195.47l-20.89.93-.71-3.7,21.37-1.18a9.23,9.23,0,0,0,8.49-6.75l0-.05c.8-6.31,7.58-9.52,13.77-9,7.31.65,14.36,6.41,13.61,17.81-.13,2.05-.33,3.92-.6,5.59a11.15,11.15,0,0,1-9,9.28A11.61,11.61,0,0,1,293.82,208.66Zm-15.53-24Z"/><path class="cls-2" d="M307.09,201.35a24.23,24.23,0,0,1-3.55-.27l.58-3.91c6,.89,9.06-1.09,9.19-1.17h0s4.1-3.18,4.53-7.12a6.5,6.5,0,0,0-1.78-5.06c-5.37-6.35-16.15.32-16.26.39l-2.11-3.34c.56-.36,13.79-8.6,21.4.39a10.45,10.45,0,0,1,2.69,8.08c-.64,5.65-5.93,9.7-6.15,9.87S312.53,201.35,307.09,201.35Z"/><path class="cls-2" d="M310.46,215.85h-.12A15.92,15.92,0,0,1,295.81,207l3.63-1.6a12,12,0,0,0,10.93,6.47h.09a14.19,14.19,0,0,0,10.94-5c2.39-2.92,2.72-5.64,1-8.3-1-1.12-3-2.57-4.22-2.28l-1-3.84c4.05-1,7.83,3.13,8.25,3.6l.16.22c2.75,4.16,2.33,8.81-1.18,13.1A18.18,18.18,0,0,1,310.46,215.85Z"/><path class="cls-2" d="M314.55,228.46a8.93,8.93,0,0,1-6.67-2.68c-3.89-4-3.51-11.09-3.49-11.38l3.95.23c-.09,1.57.17,6.12,2.39,8.4a5.11,5.11,0,0,0,4.09,1.46c2.4-.08,4.19-.74,5.31-2a6.26,6.26,0,0,0,1.45-4.13c-.14-2.81-.8-5.83-1.39-6.39l2.54-3c2.22,1.85,2.7,7,2.8,9.2a10.2,10.2,0,0,1-2.42,7c-1.88,2.08-4.62,3.2-8.16,3.31Z"/><path class="cls-2" d="M254.11,238.66c-2.16,0-5.26,0-7.59-.1l1.09-4.05c24.93,1.42,39.93-6,40.08-6.07l.72-.36.77.24c15.71,5,21.31-2.52,21.54-2.84l3.26,2.26c-.29.42-7.14,10-25.24,4.58C285.66,233.72,273.43,238.65,254.11,238.66Z"/><path class="cls-2" d="M43.78,173.53c-5.25-5.11-21.08-24.45-29.19-77.93a1.9,1.9,0,0,0-.14-.48c-.79-1.85-4.07-9.17-8.07-12.8l-.17-.16a26.14,26.14,0,0,1-2-2C1.8,77.54-1.18,71.59.48,66.12c.76-2.49,2.78-5.7,8-7.52a2,2,0,0,0,1.33-2.12c-.57-4-.71-9.75,2.23-13.69a10.3,10.3,0,0,1,7.63-4,13.55,13.55,0,0,1,9.35,3.07,1,1,0,0,0,.74.25.72.72,0,0,0,.53-.31,12.65,12.65,0,0,1,12.06-5.4c10.53,1.21,12.42,14.88,12.5,15.46a65.46,65.46,0,0,1,.59,12.51A2,2,0,0,1,53.1,66.1h0A2,2,0,0,1,51.54,64,60.5,60.5,0,0,0,51,52.37c0-.14-1.57-11.21-9-12.07a8.67,8.67,0,0,0-8.41,3.8A4.67,4.67,0,0,1,30.24,46a5,5,0,0,1-3.79-1.22,9.68,9.68,0,0,0-6.39-2.1,6.39,6.39,0,0,0-4.8,2.46c-2.59,3.48-1.71,9.78-1.21,12.33a3.81,3.81,0,0,1-2.8,4.43c-3.85,1-6.2,2.78-7,5.35-1.11,3.66,1,8.23,2.88,10.29a22.63,22.63,0,0,0,1.71,1.67l.18.15c5.27,4.79,9.11,14.3,9.27,14.71l.12.44c8,53,23.57,71.69,28.12,76.15a2,2,0,0,1,.23,2.58h0A2,2,0,0,1,43.78,173.53Z"/><path class="cls-2" d="M80.29,139.18c-.53-1.09-13.08-26.81-17.69-38.55-5-12.64-.72-19.06-.54-19.33l.17-.21c5.62-6.21,7-12,7.15-15.86A9.38,9.38,0,0,0,67,58.4a6,6,0,0,0-4.35-2.14H62.5c-3.54,0-6.79,3.17-6.82,3.21l-2.8-2.81c.18-.18,4.42-4.36,9.62-4.36h.15a9.93,9.93,0,0,1,7.2,3.39,13.42,13.42,0,0,1,3.49,9.71c-.19,4.43-1.74,11.18-8,18.21-.37.66-2.85,5.76,1,15.57,4.55,11.59,17.44,38,17.57,38.26Z"/><path class="cls-2" d="M235.74,314.28a39.48,39.48,0,0,1-9.76-1.12,2,2,0,0,1-1.4-2.57h0a2,2,0,0,1,2.34-1.28c10.25,2.6,26.69-.13,40.94-6.92a144.68,144.68,0,0,1,24-8.55,2,2,0,0,0,.65-3.49c-22-16.36-33.87-43.59-36.84-51.08a2,2,0,0,1,1.18-2.58h0a2,2,0,0,1,2.5,1.12c3.18,7.87,15.63,38.77,41.1,53l1.7,1.07c3.82,3.07-2.82,4.25-2.82,4.25a141.57,141.57,0,0,0-29.8,9.8C259.8,310.62,247,314.28,235.74,314.28Z"/><path class="cls-2" d="M137.18,101.5a39.3,39.3,0,0,0-5.5-8.9,15.39,15.39,0,0,0-3.6-3,11.21,11.21,0,0,0-4.17-1.26,16.48,16.48,0,0,0-9.11,2,38.71,38.71,0,0,0-8.37,6.29,19.24,19.24,0,0,1,6.51-9.15A16.18,16.18,0,0,1,124.31,84a13.3,13.3,0,0,1,6,2.13,15.25,15.25,0,0,1,4.14,4.47A19.47,19.47,0,0,1,137.18,101.5Z"/><path class="cls-2" d="M137.31,102.16l-.28-.59a38.1,38.1,0,0,0-5.48-8.86A15,15,0,0,0,128,89.77a11.12,11.12,0,0,0-4.11-1.25,16.36,16.36,0,0,0-9,2,38.32,38.32,0,0,0-8.34,6.25l-.47.45.2-.62a19.35,19.35,0,0,1,6.57-9.22,16.37,16.37,0,0,1,11.48-3.51A13.37,13.37,0,0,1,130.37,86a15.11,15.11,0,0,1,4.19,4.53,19.59,19.59,0,0,1,2.78,11Zm-14.65-14c.42,0,.84,0,1.26,0a11.5,11.5,0,0,1,4.24,1.29,15.54,15.54,0,0,1,3.64,3,37,37,0,0,1,5.23,8.33,19.29,19.29,0,0,0-2.75-10.13,14.92,14.92,0,0,0-4.09-4.43,13.1,13.1,0,0,0-5.9-2.09A16.11,16.11,0,0,0,113,87.61,19.17,19.17,0,0,0,106.8,96a37.81,37.81,0,0,1,7.92-5.85A17.07,17.07,0,0,1,122.66,88.14Z"/><path class="cls-2" d="M105.18,82.59a22.63,22.63,0,0,0,6.95,2.75c1.09.28,2.27.43,3.53.69.64.1,1.31.24,2,.39a13.81,13.81,0,0,1,2.23.57,9.59,9.59,0,0,1-1.84,1.54,13.18,13.18,0,0,1-2.14.93,9.52,9.52,0,0,1-4.78.14,8.44,8.44,0,0,1-4.3-2.47A5.86,5.86,0,0,1,105.18,82.59Z"/><path class="cls-2" d="M158.55,105.35A19.36,19.36,0,0,1,164.81,96a15.17,15.17,0,0,1,5.41-2.81,13.08,13.08,0,0,1,6.34,0,16.17,16.17,0,0,1,9.53,7.11,19.33,19.33,0,0,1,3,10.8,38.54,38.54,0,0,0-5.77-8.74,16.46,16.46,0,0,0-7.9-4.94,11.41,11.41,0,0,0-4.36-.22,15.77,15.77,0,0,0-4.39,1.6A38.73,38.73,0,0,0,158.55,105.35Z"/><path class="cls-2" d="M189.28,111.79l-.29-.58a38.21,38.21,0,0,0-5.74-8.71,16.36,16.36,0,0,0-7.82-4.89,11.24,11.24,0,0,0-4.3-.21A15.5,15.5,0,0,0,166.8,99a38.25,38.25,0,0,0-8.14,6.5l-.47.46.2-.63a19.58,19.58,0,0,1,6.32-9.41,15.28,15.28,0,0,1,5.46-2.84,13.32,13.32,0,0,1,6.43,0,16.4,16.4,0,0,1,9.63,7.18,19.4,19.4,0,0,1,3.07,10.9ZM172.83,97a10.52,10.52,0,0,1,2.68.33,16.72,16.72,0,0,1,8,5,37.49,37.49,0,0,1,5.48,8.18,19.21,19.21,0,0,0-3-10,16.09,16.09,0,0,0-9.43-7,13,13,0,0,0-6.26,0,14.78,14.78,0,0,0-5.34,2.78,19.21,19.21,0,0,0-6,8.61,37.15,37.15,0,0,1,7.73-6.08,15.85,15.85,0,0,1,4.44-1.61A15.36,15.36,0,0,1,172.83,97Z"/><path class="cls-2" d="M195,98.34a5.86,5.86,0,0,1-3.09,3.71,8.44,8.44,0,0,1-4.88.88,9.72,9.72,0,0,1-4.46-1.75,12.88,12.88,0,0,1-1.7-1.6,9.37,9.37,0,0,1-1.21-2.06,13.26,13.26,0,0,1,2.3.21c.71.09,1.38.19,2,.31,1.29.18,2.44.44,3.56.55A23.26,23.26,0,0,0,195,98.34Z"/><rect class="cls-2" x="175.3" y="127.42" width="21.53" height="4.48" rx="1.88" transform="translate(386.95 234.9) rotate(172.78)"/><rect class="cls-2" x="177.37" y="136.22" width="14.35" height="4.48" rx="2.01" transform="translate(349.05 300.23) rotate(-172.36)"/><path class="cls-2" d="M177,122.27a12,12,0,0,1,6.18,3.76,11.79,11.79,0,0,1,3,7.07,12,12,0,0,1-2,7.42,17.37,17.37,0,0,1-2.37,2.8,20.35,20.35,0,0,1-3,2,28.82,28.82,0,0,1,1.26-3.24c.32-1.06.78-2,1-3a16.06,16.06,0,0,0,.73-5.63C181.71,129.77,179.68,126.23,177,122.27Z"/><path class="cls-2" d="M126.43,111.64c-4.12,2.39-7.5,4.68-9.27,7.87a15.83,15.83,0,0,0-1.82,5.38c-.22,1-.24,2.07-.42,3.16a31.23,31.23,0,0,1-.29,3.46,19.67,19.67,0,0,1-1.83-3.11,17.52,17.52,0,0,1-.9-3.56,12,12,0,0,1,1.49-7.53,11.83,11.83,0,0,1,5.83-5A12,12,0,0,1,126.43,111.64Z"/><path class="cls-2" d="M140,114.14a16.79,16.79,0,0,0,.15,9.46,11.33,11.33,0,0,0,6,6.49,26,26,0,0,0,8.92,2.39,14.76,14.76,0,0,0,4.42-.38,11.55,11.55,0,0,0,2-.69l.26-.12a2.53,2.53,0,0,1,.69-.22,2.63,2.63,0,0,1,1.47.17,2.67,2.67,0,0,1,1.63,2.24,3,3,0,0,1-.18,1.23l-.26.69c-.21.43-.4.87-.64,1.27a13.39,13.39,0,0,1-1.62,2.23,16.77,16.77,0,0,1-4.17,3.39,17.8,17.8,0,0,1-10.25,2.41,27.06,27.06,0,0,1-10-2.41,11.68,11.68,0,0,1-4.19-3.32,7.28,7.28,0,0,1-1.57-5.23l.08-.63h.62a22.49,22.49,0,0,0,4.88-.52,7.51,7.51,0,0,0,4.31-2.27,7.46,7.46,0,0,1-4.07,3,21.14,21.14,0,0,1-5.07,1.18l.69-.62a5.94,5.94,0,0,0,1.62,3.81,10.38,10.38,0,0,0,3.66,2.43,27.13,27.13,0,0,0,9.12,1.66,15.08,15.08,0,0,0,4.45-.53,15.52,15.52,0,0,0,4.1-1.7,14.37,14.37,0,0,0,3.38-2.82,10.52,10.52,0,0,0,1.28-1.72,8.82,8.82,0,0,0,.48-.91c.11-.26.27-.8.21-.43a.42.42,0,0,0,.26.36.48.48,0,0,0,.27,0l.11,0-.31.14a14.72,14.72,0,0,1-2.61.85,17.5,17.5,0,0,1-5.34.25,25.75,25.75,0,0,1-9.78-3.2,12.62,12.62,0,0,1-6.27-8.13A15.7,15.7,0,0,1,140,114.14Z"/><path class="cls-2" d="M124.07,123.64a18.2,18.2,0,0,0,3.72,4.68,9.93,9.93,0,0,0,4.73,2.22,19.82,19.82,0,0,0,5.61,0c1-.21,2-.3,3-.49a27.65,27.65,0,0,1,3.17-.5,24.12,24.12,0,0,1-2.59,2,24.8,24.8,0,0,1-3,1.46,13.27,13.27,0,0,1-6.86.71,9.56,9.56,0,0,1-6-3.74A9.26,9.26,0,0,1,124.07,123.64Z"/><path class="cls-2" d="M131.66,110a3.33,3.33,0,0,1,1.14-.68l18,2,1.41.08a2,2,0,0,1,.54.14l1.42.16s3.24,5.19-2.8,8.36a31.29,31.29,0,0,0-9.18,7s-2.09.1-2.34-.41c-.36-.68-7.49-7.81-7.77-8.23a11,11,0,0,1-1.9-4.25.58.58,0,0,0,0-.13A3.9,3.9,0,0,1,131.66,110Z"/><rect class="cls-2" x="105.72" y="112.48" width="18.67" height="3.88" rx="1.63" transform="translate(102.81 -47.38) rotate(40.83)"/><rect class="cls-2" x="105.71" y="119.56" width="12.44" height="3.88" rx="1.74" transform="translate(64.51 -36.74) rotate(25.97)"/><path class="cls-2" d="M151.94,197.71a58.14,58.14,0,0,1-10-.82c-25.1-4.39-27.61-26.63-27.63-26.86L114,167.2l2.75.72c12,3.12,22.94,17.5,26.54,22.64,12.94-8.73,51.13-7.45,52.83-7.39l8.2.3L196.93,187C195.85,187.45,173.62,197.71,151.94,197.71Zm-5.84-4.25c14.21,1.43,30.05-3,39.81-6.4C172.64,187.26,153.87,188.65,146.1,193.46Zm-27.16-20.58c1.54,5.37,6.33,15.83,20.81,19.5C136.45,187.77,128,177,118.94,172.88Z"/><path class="cls-2" d="M151.49,207.38c-4.75-.17-8.43-3.18-10.22-8.18a21.92,21.92,0,0,1-7.66,3,2,2,0,0,1-2.39-1.69h0a2,2,0,0,1,1.54-2.18c2.74-.58,6.2-1.78,7.37-3.48a2.35,2.35,0,0,1,2.43-1,2.4,2.4,0,0,1,1.87,1.87c.55,2.78,2.23,7.47,7.2,7.65a35.18,35.18,0,0,1,9.43,1.37,2,2,0,0,1,1,3.07h0a2,2,0,0,1-2.17.7A31.84,31.84,0,0,0,151.49,207.38Zm-8.09-10.27h0Z"/><path class="cls-2" d="M98.19,65.2C97.87,62.83,90.5,6.85,118.55.54c19-4.26,43.66,25.71,44.7,27L160.18,30C160,29.73,136.05.67,119.42,4.41,94.89,9.92,102,64.12,102.12,64.67Z"/><path class="cls-2" d="M142.78,32.59c-.07-.22-6.25-22.23-17-27.53a9.73,9.73,0,0,0-8.35-.3L116,1.08a13.7,13.7,0,0,1,11.59.43c12.28,6.1,18.73,29.05,19,30Z"/><path class="cls-2" d="M237.39,55.48l-2.75-2.85c20.32-19.55,46.77-9.58,47-9.47l-1.44,3.69C279.25,46.47,255.85,37.71,237.39,55.48Z"/><path class="cls-2" d="M145.1,295.13a2,2,0,0,1-2.16,1.82c-41.91-3.66-67.75-16.18-77.89-23.23a13.41,13.41,0,0,1-5.72-11.66c1.29-30.32,16.42-63.33,20.33-71.4a2,2,0,0,1,2.68-.9h0a2,2,0,0,1,.89,2.62C79.48,200.2,64.53,233,63.29,262.23a9.47,9.47,0,0,0,4,8.24c9.81,6.82,35,18.95,76,22.54,1.09.09-.8.77-.89,1.85Z"/><path class="cls-2" d="M195.61,294.54l-1.09-3.81,19-5.4a6.5,6.5,0,0,0,4.69-7.07l-3.83-31.56,3.93-.48,3.83,31.56a10.42,10.42,0,0,1-7.54,11.35Z"/><path class="cls-2" d="M237.16,251.32a6.19,6.19,0,0,1-1.21-.11L203.8,245a2,2,0,0,1-1.56-2.32h0a2,2,0,0,1,2.32-1.57l32.14,6.24a2.44,2.44,0,0,0,2.57-1.2c3.09-5.44,9.94-21.27,6.87-50.65a2.44,2.44,0,0,0-1.95-2.14l-41.5-8a2,2,0,0,1-1.57-2.32h0a2,2,0,0,1,2.31-1.57l41.51,8a6.44,6.44,0,0,1,5.14,5.62c3.19,30.52-4.09,47.24-7.37,53A6.37,6.37,0,0,1,237.16,251.32Z"/><path class="cls-2" d="M72.86,211.44C60.37,206,50.27,195.68,45.37,190a12.5,12.5,0,0,1-2.46-11.92C50.81,152.35,81.69,135,83,134.23l1.92,3.46c-.3.17-30.79,17.37-38.23,41.57a8.56,8.56,0,0,0,1.67,8.16c4.69,5.42,14.31,15.26,26.08,20.39Z"/><ellipse class="cls-2" cx="35.3" cy="77.79" rx="10.76" ry="8.97" transform="translate(-22.41 14.8) rotate(-18.09)"/><circle class="cls-2" cx="14.75" cy="68.6" r="3.81"/><circle class="cls-2" cx="24.17" cy="54.48" r="3.81"/><circle class="cls-2" cx="42.32" cy="55.6" r="3.81"/><path class="cls-2" d="M115.77,270.24a5.61,5.61,0,0,1-3.46-3.34L96.45,225.28a5.63,5.63,0,0,1,2.13-6.7l16.25-10.91a5.66,5.66,0,0,1,4.56-.78l31,8a5.67,5.67,0,0,1,3.5,2.69l10.51,18.67a5.64,5.64,0,0,1-2,7.58L120.56,269.7a5.65,5.65,0,0,1-4.39.66A3,3,0,0,1,115.77,270.24ZM150,219.78a1.24,1.24,0,0,0-.76-.58l-31-8a1.18,1.18,0,0,0-1,.17l-16.25,10.9a1.2,1.2,0,0,0-.45,1.44l15.85,41.62a1.21,1.21,0,0,0,1.77.6l41.86-25.84a1.21,1.21,0,0,0,.43-1.63L150,219.78Z"/><path class="cls-3" d="M112.71,239.41l.57-15.67,2.56.85-.62,11.72.09,0,6.75-9.68,2.24.74-.17,11.86.07,0,6.47-9.77,2.57.85-8.89,12.91-2.51-.83.27-12.07-.08,0-6.82,9.9Z"/><path class="cls-3" d="M130.45,244.51l4.73-14.29,6.58,2.18a5.63,5.63,0,0,1,3.3,2.42,5,5,0,0,1-2.17,6.53,5.54,5.54,0,0,1-4.09,0L134.67,240l-1.77,5.36Zm4.92-6.65,4,1.32a3.06,3.06,0,0,0,2.23,0,2.4,2.4,0,0,0,1.26-1.5,2.36,2.36,0,0,0-.12-2,3.08,3.08,0,0,0-1.8-1.3l-4-1.32Z"/><path class="cls-8" d="M129.36,132.92l2.63,5.49s4.56-4.65,3.17-4.5A16.64,16.64,0,0,1,129.36,132.92Z"/><path class="cls-8" d="M150.42,134.34l2.33,5.77s4.94-5,3.55-5A35.71,35.71,0,0,1,150.42,134.34Z"/><path class="cls-2" d="M128.37,131.61a19.14,19.14,0,0,1,2.29,3c.33.52.64,1.06.94,1.6l.43.82a1.25,1.25,0,0,0,.09.16,0,0,0,0,0,0,0h.1a2.13,2.13,0,0,0,.2-.28c.36-.51.72-1,1.11-1.5a18.6,18.6,0,0,1,2.6-2.74,19.1,19.1,0,0,1-1.26,3.57c-.26.56-.54,1.11-.83,1.66a3,3,0,0,1-.3.5,2,2,0,0,1-2.42.61,2.12,2.12,0,0,1-.71-.55,1.51,1.51,0,0,1-.25-.37,2.45,2.45,0,0,1-.12-.25l-.36-.85c-.23-.57-.45-1.15-.65-1.74A19.18,19.18,0,0,1,128.37,131.61Z"/><path class="cls-2" d="M149.27,132.92a21,21,0,0,1,2.33,3.22c.35.56.64,1.14,1,1.71.16.29.29.58.44.87l.06.11v0l0,0s0,0,.05,0a.26.26,0,0,0,.15,0l.07,0s0,0,0,0l.14-.21c.37-.53.72-1.08,1.13-1.6a19.93,19.93,0,0,1,2.65-3,19.85,19.85,0,0,1-1.3,3.76c-.25.61-.57,1.18-.85,1.77l-.11.22a2.9,2.9,0,0,1-.25.36,2.27,2.27,0,0,1-.72.54,2.18,2.18,0,0,1-1.75,0,1.95,1.95,0,0,1-1-.9l-.1-.19,0-.11c-.12-.3-.25-.6-.37-.91-.22-.61-.47-1.21-.66-1.84A20.4,20.4,0,0,1,149.27,132.92Z"/></g></g></svg>