<svg xmlns="http://www.w3.org/2000/svg" viewBox="0 0 311.2 448.49"><defs><style>.cls-1{fill:#ffe299;}.cls-2{fill:#cf9776;}.cls-3{fill:#202670;}.cls-4{fill:#e53b33;}.cls-5{fill:#3c1c0f;}.cls-6{fill:#efb89f;}.cls-7{fill:#c93728;}.cls-8{fill:#fff;}</style></defs><g id="Capa_2" data-name="Capa 2"><g id="Capa_1-2" data-name="Capa 1"><path class="cls-1" d="M123.52,191.12s-46,20.31-47.71,40.13c0,0,7.09,27.16,32.78,37.19L98.56,301l1.71,6.85s82.21,39.39,145.83.73l1.47-7.58-5.88-40.86,21.05-30.58s1.71-7.34-13.46-15.42L227,193.32S207.68,208.49,191.54,210C191.54,210,149.94,219.26,123.52,191.12Z"/><path class="cls-2" d="M203.13,31.6l-21.83-6-35.6,4.47S109,35.83,100.43,51.94C100.43,51.94,85,29,54,37.42c0,0-20,26.14,25.72,65.78L82.91,124s-6.8,23.75,1.27,35.07,13.44,19.2,13.44,19.2,46,30.84,98.6,12.09c0,0,69.72-6.18,67.41-60.28l-8.38-16.57s4-28.51-6.6-43.59c0,0,10.06-50.67-13.07-66.75C235.58,3.18,215.71-7.78,203.13,31.6Z"/><polygon class="cls-3" points="158.25 258.18 189.99 291.1 199.04 293.48 223.18 252.86 207.03 236.39 171.31 237.46 158.25 258.18"/><path class="cls-2" d="M76.21,234.92l-13,15.66L48.81,261.83s-25.12,14.36-16,32.3c0,0,1.63,22,22.67,21.53l11.09-3.1,12.56.49s8.16-3.26,10.77-20.55a34,34,0,0,1,15.82-24.31S83.06,257.26,76.21,234.92Z"/><path class="cls-2" d="M260.37,235.41s9.79,2.93,18.6.32S297.72,237,297.72,237s16.81,9.79,10.44,27.24-13.7,19.9-13.7,19.9l-16.64,4.4-33.43-11.74-2.12-17.94Z"/><path class="cls-2" d="M102,309.54s-3.43,25.45,5.62,36.22c0,0-15.66,8.8-15.66,26.91a264.84,264.84,0,0,0,2.21,33.52S101,426.5,113.24,427s19.09-2.21,19.09-2.21,10-8.56,8.56-22l-1.47-13.45,20.31,32.78,10.76,19.58s11.75,11,34.75-2.21,31.81-20.79,31.81-20.79,28.13-41.35-12.48-43.8l-18.35,3.67-8.08-16.88s36-9.54,42.82-49.43C241,312.23,183.46,340.62,102,309.54Z"/><path class="cls-2" d="M99.29,315.17s-19.2,10.28-22.51,21.65-11.25,16-11.25,16-19.94,6.85-26.91-7.09S14,336.34,14,336.34s-23,15.53-5.88,36.94S53.05,391,53.05,391s28.87-2.45,36.21-14.31c0,0,6.12-26.06,17.37-31.08Z"/><polygon class="cls-2" points="212.17 191.37 189.58 207.68 154.59 198.22 168.62 197.16 198.31 188.35 212.17 191.37"/><path class="cls-4" d="M132.41,196.1l51.22,10.68.73,6.12-29.61-4.24S132.73,203.19,132.41,196.1Z"/><path class="cls-4" d="M227,189.23s-20.85,5.19-31.74,15.84c0,0,1.53,3.61,1.53,3.79S211.17,205,211.17,205,226.71,194.61,227,189.23Z"/><path class="cls-4" d="M117.16,193.57S87.31,210.21,80,223.91s-8.32,14.19-8.32,14.19l-14,18.35L37.39,270.64s-7.83,11.5-2.93,21.29c0,0-.13,16,13,20.43s18.72.61,18.72.61,20.43,5.26,22.63-16.64S107.61,268,107.61,268l-7.34,25L100,307.46l.24,7.1-12.6,10.52L76.78,336.82s-26.91-.61-43.06-15-17.86-25-17.86-25L9.74,278.59l-7.09-7.7s34.62-8.32,48.57-29.37S74.34,214,74.34,214,102.84,188.31,117.16,193.57Z"/><path class="cls-5" d="M254,45.21s1.82,10.21,4.11,18.06-2.46,20.39-2.46,20.39L247.9,71.83Z"/><path class="cls-5" d="M66,89.83s4,7.16,4.39,14.26,13.11,21,13.11,21l-2.27-16.91Z"/><circle class="cls-5" cx="21.33" cy="353.75" r="18.43"/><path class="cls-6" d="M263.25,123.19a5.08,5.08,0,0,1-.43-1.12l-.06.07a10.76,10.76,0,0,1-3.14,2.71,2.77,2.77,0,0,1-.87.41c-.33.11-.54.21-1,.35a13.26,13.26,0,0,0-2.52,1,15.55,15.55,0,0,0-4.19,3.14,18.21,18.21,0,0,0-4.56,8.81,33.71,33.71,0,0,1,6.29-6.94,16.54,16.54,0,0,1,3.76-2.21,13.08,13.08,0,0,1,2-.65,11.49,11.49,0,0,0,2.62-1,11,11,0,0,0,3.16-2.64A5.56,5.56,0,0,1,263.25,123.19Z"/><path class="cls-6" d="M115.48,128.81a26.91,26.91,0,0,0,2,9.64,20.93,20.93,0,0,0,2.45,4.49,12.12,12.12,0,0,0,4,3.65,11.14,11.14,0,0,0,2.62,1,13.44,13.44,0,0,1,2,.65,16.76,16.76,0,0,1,3.76,2.21,33.39,33.39,0,0,1,6.28,6.94,18.12,18.12,0,0,0-4.56-8.81,15.48,15.48,0,0,0-4.19-3.15,13.65,13.65,0,0,0-2.52-1c-.42-.14-.63-.24-1-.35a2.82,2.82,0,0,1-.88-.41,10.89,10.89,0,0,1-3.14-2.71,25.9,25.9,0,0,1-2.59-3.7A94,94,0,0,1,115.48,128.81Z"/><path class="cls-5" d="M139.57,29.89a4.44,4.44,0,0,1-3.92-1.26c-1.45-1.49-2.83-3.72-.49-5.4a7.47,7.47,0,0,1,6.88,1c2,1.37,2.85-.56,3.18-2.5a4.48,4.48,0,0,1,6.58-3.31c2.31,1.38,1.9,3.65,2.37,4.05,2.86,2.42,4.53-4.57,8.67-2.7,0,0,3.3,2.13-.81,5.76a4.36,4.36,0,0,1-2.23,1.05Z"/><path class="cls-5" d="M197.64,296.36a5.47,5.47,0,0,1-4.1-1.35l-36-31.68a5.48,5.48,0,0,1-.64-7.6l13.15-16.21a5.47,5.47,0,0,1,3.81-2l31.05-2.63a5.49,5.49,0,0,1,4.26,1.49L223,249.49a5.48,5.48,0,0,1,1,6.79l-22,37.39a5.49,5.49,0,0,1-3.88,2.64A2.7,2.7,0,0,1,197.64,296.36Zm-24.22-54.12-13.14,16.22a1.17,1.17,0,0,0,.13,1.63l36,31.67a1.2,1.2,0,0,0,1,.29,1.18,1.18,0,0,0,.83-.57l22-37.39a1.18,1.18,0,0,0-.2-1.46l-13.83-13.14a1.18,1.18,0,0,0-.91-.32l-31.06,2.64a1.17,1.17,0,0,0-.82.43Z"/><path class="cls-5" d="M183.77,54a22.8,22.8,0,0,1,2.44,5.15,36.81,36.81,0,0,1,1.95,10.82,23.13,23.13,0,0,1-.5,5.68,22.4,22.4,0,0,1-2.45-5.15,36.08,36.08,0,0,1-1.37-5.34,37.15,37.15,0,0,1-.57-5.49A22.57,22.57,0,0,1,183.77,54Z"/><path class="cls-5" d="M107.15,423.17h0a2.19,2.19,0,0,1,.95-2.71c6.34-3.8,6.32-11.59,5.94-15.17a2.15,2.15,0,0,1,1.65-2.33h0a2.17,2.17,0,0,1,2.65,1.86c.69,5.89-.43,14.91-8.19,19.43A2.14,2.14,0,0,1,107.15,423.17Z"/><path class="cls-5" d="M121,426h0a2.19,2.19,0,0,1,1-2.72c6.41-3.82,6.36-11.59,5.94-15.17a2.16,2.16,0,0,1,1.66-2.33h0a2.17,2.17,0,0,1,2.65,1.85c.69,5.9-.43,14.92-8.19,19.45A2.15,2.15,0,0,1,121,426Z"/><path class="cls-5" d="M212.53,414.48h0a2.15,2.15,0,0,1-.9-2.84c5.61-11.5,2.31-17.43.31-19.67a2.17,2.17,0,0,1-.21-2.6h0a2.16,2.16,0,0,1,3.45-.27c2.88,3.21,7,10.79.34,24.42A2.17,2.17,0,0,1,212.53,414.48Z"/><path class="cls-5" d="M228.19,410.57h0a2.15,2.15,0,0,1-.9-2.84c5.61-11.5,2.31-17.44.31-19.68a2.17,2.17,0,0,1-.21-2.6h0a2.16,2.16,0,0,1,3.44-.27c2.89,3.21,7,10.8.35,24.43A2.18,2.18,0,0,1,228.19,410.57Z"/><path class="cls-5" d="M219.38,57.76A25.12,25.12,0,0,0,207,61.43a3.35,3.35,0,0,0-.72,5.12l-.08-.09.42.46a3.3,3.3,0,0,0,4.15.63,17,17,0,0,1,17.68-.28,3.37,3.37,0,0,0,4.4-.85l.29-.38a3.36,3.36,0,0,0-1.05-4.92A24.26,24.26,0,0,0,219.38,57.76Z"/><path class="cls-5" d="M147.81,67.21a25,25,0,0,0-11.93,5,3.34,3.34,0,0,0-.14,5.16l-.09-.08.46.41a3.32,3.32,0,0,0,4.2.17,17,17,0,0,1,17.54-2.23,3.39,3.39,0,0,0,4.28-1.34l.24-.41a3.36,3.36,0,0,0-1.58-4.78A24.3,24.3,0,0,0,147.81,67.21Z"/><path class="cls-5" d="M117.05,191.77c-44.56-17.19-38.12-53-36-64.81a29.47,29.47,0,0,0,.5-3.27c-5-30.28.91-54.37,17.43-71.58C124.07,26,166,23.3,186.86,25.85l.21,0a121.87,121.87,0,0,1,39.28,18c24.76,17.49,35.73,41.91,31.76,70.67,3.84,4.61,20.57,27.75-4.08,54.86-19.15,21.06-63,27.54-87.49,29.54a112.88,112.88,0,0,1-49.49-7.13Zm-15-136.67c-15.53,16.18-21,39-16.28,67.9.15.93,0,2.13-.51,4.73-2.17,12.06-7.93,44.1,33.3,60a108.53,108.53,0,0,0,47.59,6.86c23.82-1.94,66.49-8.18,84.64-28.14,24.66-27.12,4.33-48.87,3.45-49.78l-.74-.76.15-1.06C257.85,87,247.85,64.35,224,47.44a119.93,119.93,0,0,0-37.74-17.32C167.52,27.87,126,30.19,102.09,55.1Z"/><path class="cls-5" d="M79.8,108.43c-1.82-1.57-44.28-38.85-28-72l.1-.18c.66-1,16.68-25,66.36,2.92l-1.87,3.32c-45-25.28-60.27-5.61-61.23-4.25-14.79,30.44,26.73,66.9,27.15,67.26Z"/><path class="cls-5" d="M61.28,54.07c3.27,5.34,8.44,8.89,13.57,12.28,1.19.78,2.34-1.1,1.15-1.88-4.22-2.79-9.74.53-9.83,5.43-.11,5.59,5.32,8.7,10.39,7.93l-1-1.87a8.39,8.39,0,0,0-2.2,10.79,1.1,1.1,0,0,0,1.93-1.07,6.23,6.23,0,0,1,1.79-8.13c1-.71-.07-2-1-1.86-3.48.53-7.39-1.4-7.66-5.24-.24-3.45,3.41-6.12,6.47-4.1L76,64.47C71.2,61.3,66.28,58,63.21,53c-.73-1.2-2.67-.15-1.93,1.07Z"/><path class="cls-5" d="M232.66,12.82c0,6.26-2.63,12-5.29,17.52-.61,1.28-2.57.26-2-1,2.19-4.57,8.62-4.57,11.23-.42,3,4.74-.07,10.2-4.81,12.15l-.09-2.12A8.38,8.38,0,0,1,239.18,47a1.1,1.1,0,0,1-2.2.08,6.21,6.21,0,0,0-5.72-6c-1.2-.12-1-1.76-.09-2.13,3.25-1.34,5.61-5,3.86-8.43-1.57-3.09-6.08-3.49-7.66-.18l-2-1c2.49-5.19,5-10.55,5.05-16.42,0-1.41,2.21-1.51,2.2-.08Z"/><ellipse class="cls-6" cx="177.04" cy="142.98" rx="24.11" ry="18.7" transform="translate(-34.91 60.12) rotate(-17.57)"/><circle class="cls-6" cx="194.12" cy="150.04" r="18.7"/><circle class="cls-6" cx="209.95" cy="136.54" r="18.7"/><path class="cls-5" d="M206.55,109.48a42.46,42.46,0,0,1,6.62-9.3,16.49,16.49,0,0,1,4.12-3,12.45,12.45,0,0,1,4.64-1.09,17.94,17.94,0,0,1,9.78,2.8,41.79,41.79,0,0,1,8.68,7.44,21.1,21.1,0,0,0-6.45-10.42,17.61,17.61,0,0,0-12.14-4.59,14.41,14.41,0,0,0-6.66,1.9,16.51,16.51,0,0,0-4.82,4.58A21.18,21.18,0,0,0,206.55,109.48Z"/><path class="cls-5" d="M206.37,109.48a21.37,21.37,0,0,1,3.8-11.77,16.68,16.68,0,0,1,4.88-4.64,14.62,14.62,0,0,1,6.74-1.92,17.93,17.93,0,0,1,12.27,4.63,21.11,21.11,0,0,1,6.5,10.51l.18.69-.48-.52a42.06,42.06,0,0,0-8.65-7.41,17.79,17.79,0,0,0-9.68-2.77,12.11,12.11,0,0,0-4.56,1.07,16.58,16.58,0,0,0-4.08,3,41.52,41.52,0,0,0-6.58,9.26l-.35.63ZM231.8,98.75a41,41,0,0,1,8.22,6.93,20.89,20.89,0,0,0-6.2-9.63,17.6,17.6,0,0,0-12-4.54,14.22,14.22,0,0,0-6.56,1.87,16.18,16.18,0,0,0-4.77,4.53,21,21,0,0,0-3.71,10.84,40.19,40.19,0,0,1,6.28-8.7,16.81,16.81,0,0,1,4.18-3,12.5,12.5,0,0,1,4.7-1.1q.69,0,1.38,0A18.53,18.53,0,0,1,231.8,98.75Z"/><path class="cls-5" d="M242.73,91.14A25.16,25.16,0,0,1,235,93.65c-1.21.22-2.5.3-3.9.5-.7.06-1.44.16-2.21.28a13.81,13.81,0,0,0-2.47.47,10.71,10.71,0,0,0,1.89,1.8,14.26,14.26,0,0,0,2.27,1.16,10.45,10.45,0,0,0,5.2.49A9.24,9.24,0,0,0,240.61,96,6.38,6.38,0,0,0,242.73,91.14Z"/><path class="cls-5" d="M183,112.17a21.16,21.16,0,0,0-6.17-10.6,16.62,16.62,0,0,0-5.69-3.44,14.44,14.44,0,0,0-6.91-.43,17.6,17.6,0,0,0-10.88,7.07,21.08,21.08,0,0,0-4.08,11.55,42.23,42.23,0,0,1,6.89-9.11,18,18,0,0,1,9-4.83,12.5,12.5,0,0,1,4.76.07,16.81,16.81,0,0,1,4.67,2A42.43,42.43,0,0,1,183,112.17Z"/><path class="cls-5" d="M149.09,116.32a21.17,21.17,0,0,1,4.11-11.66,17.9,17.9,0,0,1,11-7.14,14.5,14.5,0,0,1,7,.44,16.5,16.5,0,0,1,5.75,3.48,21.41,21.41,0,0,1,6.23,10.69l.16.7-.47-.54a41.82,41.82,0,0,0-8.41-7.64,16.93,16.93,0,0,0-4.61-2,12.2,12.2,0,0,0-4.69-.07,17.87,17.87,0,0,0-8.87,4.78,41.73,41.73,0,0,0-6.86,9.07l-.36.62Zm20.83-14a16.52,16.52,0,0,1,4.73,2.07,40.37,40.37,0,0,1,8,7.15,21,21,0,0,0-5.93-9.8,16.34,16.34,0,0,0-5.62-3.4,14.42,14.42,0,0,0-6.83-.43,17.57,17.57,0,0,0-10.76,7,20.84,20.84,0,0,0-4,10.73,41.06,41.06,0,0,1,6.55-8.52,18.17,18.17,0,0,1,9.05-4.87A10.91,10.91,0,0,1,168,102,14.44,14.44,0,0,1,169.92,102.28Z"/><path class="cls-5" d="M143.74,102a6.44,6.44,0,0,0,3.1,4.26,9.28,9.28,0,0,0,5.26,1.29,10.49,10.49,0,0,0,5-1.58,14,14,0,0,0,2-1.63,10.82,10.82,0,0,0,1.47-2.16,14.67,14.67,0,0,0-2.52.07c-.78,0-1.52.11-2.22.2-1.41.1-2.68.3-3.91.34A25.08,25.08,0,0,1,143.74,102Z"/><rect class="cls-5" x="139.57" y="134.28" width="23.5" height="4.89" rx="2.06" transform="translate(28.63 -26.18) rotate(10.92)"/><path class="cls-5" d="M161.53,130.8a13,13,0,0,0-9.16,19.37,18.73,18.73,0,0,0,2.39,3.21,20.85,20.85,0,0,0,3.13,2.38,33.39,33.39,0,0,0-1.14-3.61c-.27-1.18-.71-2.27-.9-3.37a17.27,17.27,0,0,1-.39-6.18C155.91,138.64,158.37,134.93,161.53,130.8Z"/><path class="cls-5" d="M217.83,120.54c3.92,3.41,7.07,6.55,8.31,10.34A17.14,17.14,0,0,1,227,137c0,1.11-.17,2.26-.2,3.48a32.31,32.31,0,0,0-.4,3.77,22.39,22.39,0,0,0,2.6-3,18.71,18.71,0,0,0,1.69-3.62,13.1,13.1,0,0,0-.05-8.39,12.89,12.89,0,0,0-5.22-6.57A13.14,13.14,0,0,0,217.83,120.54Z"/><path class="cls-5" d="M212,119.17a3.69,3.69,0,0,0-1.19-.81l-19.78,1h-1.56a1.71,1.71,0,0,0-.59.11l-1.56.07s-3.9,5.43,2.47,9.31a34.21,34.21,0,0,1,9.5,8.32s2.26.25,2.57-.28c.45-.73,8.72-8,9.06-8.43a12.13,12.13,0,0,0,2.36-4.49c0-.08,0-.14,0-.14A4.26,4.26,0,0,0,212,119.17Z"/><rect class="cls-5" x="219.55" y="122.99" width="20.38" height="4.24" rx="1.78" transform="translate(488.41 86.15) rotate(142.86)"/><rect class="cls-5" x="224.1" y="132.28" width="13.58" height="4.24" rx="1.9" transform="translate(495.49 171.25) rotate(157.72)"/><rect class="cls-5" x="145.76" y="143.16" width="13.58" height="4.24" rx="1.9" transform="translate(314.37 280.18) rotate(176.22)"/><path class="cls-5" d="M251.57,72.69c.52-2.57,12.48-63-17.63-71.87-20.38-6-49.37,24.93-50.6,26.25L186.51,30c.28-.3,28.35-30.28,46.21-25,26.33,7.73,14.73,66.27,14.61,66.86Z"/><path class="cls-5" d="M205.3,34c.08-.24,8.36-23.78,20.39-28.8a10.61,10.61,0,0,1,9.12.26l1.86-3.9A14.9,14.9,0,0,0,224,1.24C210.21,7,201.57,31.57,201.21,32.61Z"/><path class="cls-5" d="M100.62,52.31l3.19-2.91C83.06,26.67,53.55,35.68,53.25,35.77l1.31,4.13C55.66,39.55,81.76,31.66,100.62,52.31Z"/><path class="cls-5" d="M113.18,272a8.5,8.5,0,0,1-3-.55C87.65,263,77.53,242.91,74.23,234.69a9.78,9.78,0,0,1,.83-8.95c13.21-20.55,36.83-32.07,44-35.2a2.16,2.16,0,0,1,2.87,1.2h0a2.17,2.17,0,0,1-1.14,2.77c-6.73,3-29.66,14.25-42.08,33.56a5.46,5.46,0,0,0-.45,5c3.09,7.69,12.54,26.43,33.47,34.31a4.17,4.17,0,0,0,4.9-1.52l15.64-22.42a2.16,2.16,0,0,1,3-.54h0a2.16,2.16,0,0,1,.54,3l-15.65,22.43A8.5,8.5,0,0,1,113.18,272Z"/><path class="cls-5" d="M178.9,327.35c-33.94,0-62.16-10-76.15-16.11a10.94,10.94,0,0,1-6.08-13.34l8.48-27.15a2.17,2.17,0,0,1,2.71-1.42h0a2.17,2.17,0,0,1,1.42,2.71l-8.49,27.15a6.64,6.64,0,0,0,3.68,8.08c21.54,9.37,77.62,28.31,135.5,3.42a8.74,8.74,0,0,0,5.24-8.69,330.07,330.07,0,0,0-6-43.11,198.42,198.42,0,0,0-10.13-34,2.16,2.16,0,0,1,1.13-2.81h0a2.15,2.15,0,0,1,2.85,1.15A202.2,202.2,0,0,1,243.4,258a334.76,334.76,0,0,1,6.23,45.26,11,11,0,0,1-6.5,10.78A157.91,157.91,0,0,1,178.9,327.35Z"/><path class="cls-5" d="M243.88,260.47l-3.4-2.66L259.88,233a6.65,6.65,0,0,0-1-9.25C244.82,212.11,227.45,197,224.6,191.5l3.85-2c1.9,3.69,14.31,15.26,33.2,30.95a10.93,10.93,0,0,1,1.63,15.23Z"/><path class="cls-5" d="M180.51,214.3c-37.69,0-57.37-18.81-58.26-19.68l-5.14-5,7.06,1.37c41.1,7.93,60.3,13.79,65.87,15.63,9.49-15.64,37.28-21.49,38.5-21.74l3.37-.7-.84,3.34c-4.43,17.46-38.31,25.93-39.75,26.28l-.33.06C187.36,214.15,183.86,214.3,180.51,214.3Zm-47.74-17.24c9.34,5.83,27.27,14,53.19,12.78C178.79,207.64,162.26,203,132.77,197.06Zm92.55-7c-7.85,2.18-24.81,7.94-31.42,18.46C201.61,206.23,219.44,199.93,225.32,190.1Z"/><path class="cls-5" d="M181.93,224.82h0a2.16,2.16,0,0,1,.13-2.94c1.78-1.76,4.73-5,6-8.14a3.7,3.7,0,0,1,2.67-2.25,3.66,3.66,0,0,1,3.33.95c1.73,1.66,5.8,4.26,14.33,4a2.17,2.17,0,0,1,2.22,2h0a2.19,2.19,0,0,1-2.12,2.33c-7.14.19-11.84-1.39-14.88-3.28a2.15,2.15,0,0,0-3,.65,37.58,37.58,0,0,1-5.55,6.79A2.16,2.16,0,0,1,181.93,224.82Z"/><path class="cls-5" d="M183.43,448.49a22.93,22.93,0,0,1-6.27-.83A17.52,17.52,0,0,1,166.64,440c-.26-.51-23.7-46.47-49.31-75.27C94.9,339.48,97.42,316.68,99,309.46a2.15,2.15,0,0,1,2.8-1.58h0a2.15,2.15,0,0,1,1.43,2.47c-1.3,6.29-3.69,27.87,17.31,51.5,26,29.24,49.67,75.68,49.91,76.15a13.28,13.28,0,0,0,8,5.53c6.58,1.8,15.3-.31,25.21-6.1a231.75,231.75,0,0,0,30.19-20.59,28.29,28.29,0,0,0,10.57-23.14c-.66-12.07-9.45-17.92-26-17.49l-.24,0c-1.83.23-17.65,2.64-23.69,16a2.16,2.16,0,0,1-2.68,1.13h0a2.18,2.18,0,0,1-1.25-2.94c7.21-16,25.65-18.31,27.29-18.49H218c24.38-.7,30.17,11.32,30.73,21.56a32.62,32.62,0,0,1-12.15,26.72,236.08,236.08,0,0,1-30.75,21C197.48,446,190,448.49,183.43,448.49Z"/><rect class="cls-5" x="194.27" y="340.33" width="4.32" height="39.39" rx="2.16" transform="translate(-159 155.39) rotate(-31.45)"/><path class="cls-5" d="M198.73,363.76l-1-4.2c33.47-8.06,42.35-47.22,42.43-47.62l4.23.91C244,314.57,234.87,355.06,198.73,363.76Z"/><path class="cls-5" d="M121,428.32a31.75,31.75,0,0,1-17.41-4.81c-7.92-5.17-12.79-14.19-14.48-26.82-5.26-39.34,15.76-52.94,16.66-53.5l2.28,3.66L106.88,345l1.15,1.83c-.8.51-19.54,12.85-14.67,49.27,1.52,11.32,5.74,19.32,12.56,23.77,9.6,6.25,21.46,3.61,23.34,3.13,1.85-1.18,14.18-10.12,7.35-33.6l4.15-1.21c8.22,28.23-8.84,38.28-9.57,38.7l-.46.19A37.46,37.46,0,0,1,121,428.32Z"/><path class="cls-5" d="M32.54,295.45C24,279.08,37.91,268,39.3,267a159.65,159.65,0,0,1,14.85-11.22c7.05-4.6,19.81-23.66,19.94-23.86l3.6,2.4c-.55.82-13.39,20-21.17,25.08a156.83,156.83,0,0,0-14.45,10.92l-.17.13c-.52.37-12.69,9.26-5.53,23Z"/><path class="cls-5" d="M57.19,317.12a25,25,0,0,1-22.37-13.35c-5.6-10.23-.61-17.8,4-21.41a2.15,2.15,0,0,1,3.2.68l1,1.72-1-1.89L42,283a2.19,2.19,0,0,1-.54,2.79c-2.74,2.13-7.55,7.42-2.86,15.94l.08.16c.25.54,6.21,13.13,22.78,10.56a2.33,2.33,0,0,0,.52-.13c1.86-.74,9.52-4.43,7.87-14.63a2.18,2.18,0,0,1,1.59-2.48h0a2.17,2.17,0,0,1,2.68,1.73c2.53,15.12-11.09,19.59-11.23,19.64l-.29.07A32.18,32.18,0,0,1,57.19,317.12Z"/><path class="cls-5" d="M51.73,314.05a2.16,2.16,0,0,1-3.22-.19,14.23,14.23,0,0,1-3.1-9c.08-4.76,2.58-8.74,4.31-10.95a2.16,2.16,0,0,1,3.26-.14l1.36,1.42-1.49-1.56.12.13a2.15,2.15,0,0,1,.16,2.81c-1.35,1.72-3.34,4.85-3.4,8.39a10,10,0,0,0,2.19,6.26,2.17,2.17,0,0,1-.19,2.86Z"/><path class="cls-5" d="M72.1,315.28a32.88,32.88,0,0,1-6.45-.61l.9-4.22c.13,0,13.31,2.71,18-4.62a13.74,13.74,0,0,0,2-8.16c-.27-5.18.44-15,8.12-22.91l9.75-9,2.93,3.17-9.67,8.93c-6.45,6.62-7,15.13-6.82,19.6a17.9,17.9,0,0,1-2.67,10.71C84.42,314.06,77.33,315.28,72.1,315.28Z"/><path class="cls-5" d="M73.94,338.23c-35.52,0-59.71-27.86-61.21-43.9A32,32,0,0,0,.92,272.41h0a2.16,2.16,0,0,1,.9-3.9h0c.34-.06,33.76-5.77,60.74-42.7,28.29-38.71,56.06-36.69,57.23-36.6l-.37,4.31c-.25,0-26.64-1.74-53.37,34.84C44.3,258.13,19,268.29,8,271.47a.78.78,0,0,0-.36,1.28A36.17,36.17,0,0,1,17,293.93c1.39,14.74,26,41.73,60.37,39.88l.24,4.32C76.39,338.19,75.16,338.23,73.94,338.23Z"/><path class="cls-5" d="M47.48,393.53a52.38,52.38,0,0,1-15.92-2.18c-1.5-.57-34.67-13.65-31.3-38.54,1.91-14.13,11.33-21.23,25.85-19.48,6.92.84,13.25,7.3,14.83,12.81l.05.19a9.83,9.83,0,0,0,9.24,7c7.58.18,17.64-1.82,22.37-12.58,8.29-18.84,25.71-27.84,26.45-28.21l2,3.85c-.17.09-16.8,8.72-24.45,26.11-6,13.63-19.15,15.36-26.45,15.15a14.11,14.11,0,0,1-13.26-10.07l-.08-.25c-1.16-4.06-6.19-9.07-11.18-9.67-8.48-1-19,.88-21,15.76C1.63,374.9,32.72,387.17,33,387.29S60.2,396.12,89,374.61l2.59,3.46C74.76,390.62,58.74,393.53,47.48,393.53Z"/><path class="cls-5" d="M279.08,289.82c-14.36,0-28.54-7-33.63-9.85a2.16,2.16,0,0,1-.79-3h0a2.15,2.15,0,0,1,2.86-.77c5.45,3,22.45,11.35,37.29,8.87a2.06,2.06,0,0,0,.87-.34,6.65,6.65,0,0,0,2.79-4.07c.64-3-.85-6.95-4.31-11.4a2.16,2.16,0,0,1,.3-3h0a2.18,2.18,0,0,1,3.13.33c4.34,5.6,6.06,10.64,5.09,15a11.15,11.15,0,0,1-5.81,7.38l-.49.16A39,39,0,0,1,279.08,289.82Z"/><path class="cls-5" d="M289.89,286l-1.2-3.71c7.56-2.43,11.91-5.81,12.93-10,1.17-4.86-2.29-9.92-4.18-12.24a2,2,0,0,1,.15-2.6h0a2,2,0,0,1,2.88.13c2.33,2.85,6.5,9.08,4.94,15.61C304.06,278.81,298.83,283.13,289.89,286Z"/><path class="cls-5" d="M301.91,279.29,299.4,277c5.87-6.77,8.24-14.68,7.32-21.81a21.31,21.31,0,0,0-19.53-18.35,15,15,0,0,0-5.91.67c-10.88,3.62-21.08-.12-21.5-.27l1.51-4.05-.76,2,.76-2c.09,0,9.24,3.35,18.62.22a19.43,19.43,0,0,1,7.6-.88A25.63,25.63,0,0,1,311,254.58C312.1,263,308.62,271.55,301.91,279.29Z"/><circle class="cls-5" cx="190.01" cy="208.43" r="7.65"/><path class="cls-5" d="M222.85,2.85,202.79,33.67l-15.9-7S210.13,1.26,222.85,2.85Z"/><path class="cls-5" d="M52.56,37.39S87,29.56,102,51.74L116.83,41.3S74.91,13.24,52.56,37.39Z"/><path class="cls-7" d="M197.62,140.83s-14.92,4.53-22.1,1.76c0,0,.66,10.93,17.62,10.93,0,0,14.41,1.56,14.3-9h0l-9.82-3.68"/><path class="cls-5" d="M202.61,123.06a18.39,18.39,0,0,1-.82,10.3,12.37,12.37,0,0,1-7,6.64,28.28,28.28,0,0,1-9.89,2,15.88,15.88,0,0,1-4.79-.72,11.72,11.72,0,0,1-2.16-.9l-.27-.14a2.65,2.65,0,0,0-.74-.29,2.92,2.92,0,0,0-3.55,2.41,3.12,3.12,0,0,0,.12,1.35l.23.77a12.91,12.91,0,0,0,.61,1.42,14.43,14.43,0,0,0,1.6,2.55,18.54,18.54,0,0,0,4.31,4,19.44,19.44,0,0,0,11,3.34,29.61,29.61,0,0,0,11-1.92,12.78,12.78,0,0,0,4.79-3.32,7.87,7.87,0,0,0,2.07-5.59l0-.69-.66,0a24.61,24.61,0,0,1-5.29-.9,8.26,8.26,0,0,1-4.53-2.78,8.15,8.15,0,0,0,4.22,3.61,22.83,22.83,0,0,0,5.44,1.64l-.71-.73a6.45,6.45,0,0,1-2,4,11.45,11.45,0,0,1-4.17,2.4,29.88,29.88,0,0,1-10,1.16,16.3,16.3,0,0,1-4.81-.89,16.71,16.71,0,0,1-4.34-2.14,15.43,15.43,0,0,1-3.48-3.31,11.56,11.56,0,0,1-1.28-2c-.19-.34-.31-.69-.46-1s-.24-.89-.2-.48a.46.46,0,0,1-.31.38.57.57,0,0,1-.29,0l-.11,0,.32.17a16.22,16.22,0,0,0,2.79,1.11,19.09,19.09,0,0,0,5.79.65,28.12,28.12,0,0,0,10.89-2.8,13.79,13.79,0,0,0,7.39-8.42A17.11,17.11,0,0,0,202.61,123.06Z"/><path class="cls-5" d="M219.27,135.06a20,20,0,0,1-4.38,4.83,10.85,10.85,0,0,1-5.31,2.09,21.47,21.47,0,0,1-6.12-.36c-1-.29-2.15-.46-3.25-.74a30.16,30.16,0,0,0-3.42-.77,26.38,26.38,0,0,0,2.68,2.37,30,30,0,0,0,3.13,1.8,14.55,14.55,0,0,0,7.42,1.25,10.44,10.44,0,0,0,6.84-3.66A10.05,10.05,0,0,0,219.27,135.06Z"/><path class="cls-1" d="M179.42,269.66,174,253.42l2.94-.11,3.83,12.22h.11l3.21-12.47,2.57-.1,4.35,12.2h.08L194,252.68l3-.11-4.18,16.59-2.88.11-4.33-12.44h-.08l-3.21,12.72Z"/><path class="cls-1" d="M199.51,268.11l-.6-16.42,7.55-.28a6.12,6.12,0,0,1,4.3,1.22,5.42,5.42,0,0,1,.28,7.5,6.09,6.09,0,0,1-4.2,1.54l-4.74.17.23,6.16Zm2.5-8.68,4.58-.17a3.28,3.28,0,0,0,2.28-.81,2.59,2.59,0,0,0,.72-2,2.56,2.56,0,0,0-.86-2,3.33,3.33,0,0,0-2.34-.64l-4.58.17Z"/><path class="cls-8" d="M181.5,144.81l3.62,5.82s3.7-6.15,2.37-5.8C185.82,145.27,181.41,145,181.5,144.81Z"/><path class="cls-8" d="M203,144.44,206.7,151s3.82-5.52,2.86-5.44A19,19,0,0,1,203,144.44Z"/><path class="cls-5" d="M180.54,143.35a16.06,16.06,0,0,1,3.13,2.89c.45.53.87,1.07,1.27,1.63.2.27.39.56.58.84l.27.43.14.22.07.11,0,0,0-.06-.09-.11a1,1,0,0,0-1.4-.06,1.24,1.24,0,0,0-.18.22c-.05.08-.1.21-.06.12l.43-.93c.31-.61.63-1.22,1-1.81a16.1,16.1,0,0,1,2.61-3.36,15.91,15.91,0,0,1-.42,4.24c-.15.67-.33,1.33-.53,2l-.33,1a2.19,2.19,0,0,1-.17.35,2,2,0,0,1-.34.42,2,2,0,0,1-2.79-.1,1.57,1.57,0,0,1-.17-.21l-.09-.14-.07-.11-.13-.22-.25-.45c-.16-.3-.33-.6-.48-.9-.31-.62-.6-1.24-.85-1.88A16.37,16.37,0,0,1,180.54,143.35Z"/><path class="cls-5" d="M202.55,144a13.15,13.15,0,0,1,2.85,2.58c.4.47.77,1,1.12,1.46.18.25.34.51.51.76l.24.39.12.2a.94.94,0,0,0-1-.46.92.92,0,0,0-.62.46l.51-.76c.35-.5.72-1,1.12-1.46a13.15,13.15,0,0,1,2.85-2.58,12.89,12.89,0,0,1-.8,3.76c-.21.58-.45,1.15-.71,1.7l-.4.82a2,2,0,0,1-3.53,0l-.11-.2-.22-.4c-.13-.27-.28-.54-.4-.82-.26-.56-.5-1.12-.71-1.71A13.24,13.24,0,0,1,202.55,144Z"/></g></g></svg>