<svg xmlns="http://www.w3.org/2000/svg" viewBox="0 0 357.06 446.36"><defs><style>.cls-1{fill:#ffe299;}.cls-2{fill:#cf9776;}.cls-3{fill:#e53b33;}.cls-4{fill:#3c1c0f;}.cls-5{fill:#202670;}.cls-6{fill:#efb89f;}.cls-7{fill:#fff;}.cls-8{fill:#fe7f30;}.cls-9{fill:#ef7e36;}</style></defs><g id="Capa_2" data-name="Capa 2"><g id="Capa_1-2" data-name="Capa 1"><path class="cls-1" d="M92.67,202s12.33,26.22,12.1,35.64c0,0-15.91,33.62-10.53,48,0,0,17.26,9.42,70.16,9.64s71.27-4.48,71.27-4.48,9.42-3.36,7.62-12.33-6.72-28-6.72-28,28.91,2.92,34.52-17.93c0,0-29.14-52-61.64-57.16,0,0-48,31.38-85.18-2.24,0,0-19.72,8.07-29.58,18.16Z"/><path class="cls-2" d="M104.55,38.64S76.31,68.45,77.2,97.36l1.35,13.23s-12.78,30.7,22.64,50.88,91,12.77,91,12.77,75.09-12.1,58.5-56c0,0,13.45-31.16-11.43-65.9,0,0-23.76-37.88-79.8-35.19C159.46,17.12,127,18.91,104.55,38.64Z"/><polygon class="cls-2" points="142.76 173.12 165.07 186.46 190.28 174.58 142.76 173.12"/><path class="cls-3" d="M73.24,253.89,42.16,320.83S38,328.31,53.52,330.7s18.23,11.35,18.23,11.35,8.76,8.26,19.18,3.72c3.75-1.63,5.62-15.37,5.62-15.37l1.2-40.95s-7.47-3.88-4.78-18.82,8.66-24.51,8.66-24.51S85.2,259.87,73.24,253.89Z"/><path class="cls-3" d="M268.85,242.61l34.29,77.78s5.6,5.82-8.07,9-29.14,13.9-29.14,13.9,22.87-22-5.38-95.94Z"/><path class="cls-2" d="M92.22,200.54l13.15,35.87-6,10.61S71,269.43,51.87,237.75c0,0-4-6.87-1.94-23,0,0-20.32-8.82-13.3-32.73s27.65-12.25,27.65-12.25-17.93-10-17.49-23.16,12-7.77,12-7.77,18.83,9.86,19.72,23.91C78.47,162.74,103.88,161.84,92.22,200.54Z"/><path class="cls-2" d="M260.55,247.31s10.09,19.28,14.35,56-13.23,41.47-13.23,41.47-20.39,7.84-25.1-6.05V291.25l7.17-10.09-5.83-28Z"/><path class="cls-2" d="M99.54,288s-3.58,51.4.6,89.66L103.73,400s-29.29,2.39-25.11,21.52,17.93,21.22,17.93,21.22,52.3,11.06,62.47-26.6l-.6-66.94,16.14-.3-1.2,58.28v10.46s9,27.19,45.73,27.19S256.15,423,256.15,423s3-20-26.6-21.51c0,0,13.74-90.56,4.78-110.58C234.33,291,162.3,305.59,99.54,288Z"/><path class="cls-2" d="M96.7,332.71S81.91,379.56,57.48,375.3A20.1,20.1,0,0,1,44.7,361.18c-3.14-11.43-25.1-8.29-25.1-8.29S-7.08,362.3,3.46,386.73s33.17,25.33,33.17,25.33,45.06,6.95,63.88-32.28Z"/><path class="cls-3" d="M125.39,172.3s16.44,17.48,40.65,17.93l20.17-4.63L207,175.74s-16-5.53-40.79,11.06C166.19,186.8,132.12,163.93,125.39,172.3Z"/><path class="cls-4" d="M69.28,56s2.92,7,2.47,13.45S77.13,85,77.13,85l4-10.54Z"/><path class="cls-4" d="M263.62,63.67s-2.92,6.94-2.47,13.44-5.38,15.47-5.38,15.47l-4-10.53Z"/><path class="cls-4" d="M73.69,8.82S87.89,3.89,92.22,25,96.4,47.68,96.4,47.68s13.45-15.39,25.41-20l6-2.54S92.37-11.5,73.69,8.82Z"/><path class="cls-4" d="M210.12,27.2s21.07,10.54,29.14,25.11L244,38.64l3.58-15.92s5.16-15,18.16-7.4c0,0-1.79-28.69-39.9-4.7C225.81,10.62,217.29,15.55,210.12,27.2Z"/><path class="cls-2" d="M75.63,8.15S55,14.2,71.6,59L78.32,73.6l8.52-16.14L96.7,46S95.69,8,75.63,8.15Z"/><path class="cls-2" d="M261.51,14.2s19.94,8-.93,51l-8.1,13.85-6.91-16.89-5.41-10.33S241.56,12.14,261.51,14.2Z"/><path class="cls-5" d="M135.54,239.39c4.26-4.67,8.44-8.6,11.83-13.11,4.46-5.93,9.76-8.75,17.32-8,4.76.48,9.64-.32,14.47-.28a5.68,5.68,0,0,1,3.79,1.53c5.34,5.69,10.48,11.57,15.74,17.33,1.42,1.55,2.14,2.78.42,4.72-10,11.33-19.89,22.75-30.19,34.57Z"/><path class="cls-4" d="M247.8,438.07c3.66-11-2.85-18-6-20.59a1.68,1.68,0,0,0-2.52.45l.09-.15-.07.12a1.69,1.69,0,0,0,.38,2.18A14.8,14.8,0,0,1,244.59,437a1.68,1.68,0,0,0,.95,2.09h0A1.7,1.7,0,0,0,247.8,438.07Z"/><path class="cls-4" d="M234.33,443.32c3.88-11-2.5-18.05-5.6-20.71a1.69,1.69,0,0,0-2.52.4l.09-.14-.07.11a1.68,1.68,0,0,0,.34,2.19,14.81,14.81,0,0,1,4.56,17,1.71,1.71,0,0,0,.92,2.12h0A1.71,1.71,0,0,0,234.33,443.32Z"/><path class="cls-4" d="M86.64,439.57c-3.66-11,2.86-18,6-20.59a1.69,1.69,0,0,1,2.51.45l-.09-.14.07.11a1.68,1.68,0,0,1-.38,2.19,14.78,14.78,0,0,0-4.9,16.92,1.69,1.69,0,0,1-1,2.09h0A1.7,1.7,0,0,1,86.64,439.57Z"/><path class="cls-4" d="M101.84,443.44c-3.88-11,2.49-18.05,5.59-20.71a1.68,1.68,0,0,1,2.52.41l-.09-.15.07.12a1.68,1.68,0,0,1-.34,2.19,14.8,14.8,0,0,0-4.56,17,1.69,1.69,0,0,1-.92,2.11h0A1.7,1.7,0,0,1,101.84,443.44Z"/><path class="cls-4" d="M179.25,216.54a6,6,0,0,1,5,2.27c5.14,6,10.49,11.87,15.62,17.91,2.24,2.62,2.12,3.27-.1,5.83q-13.56,15.64-27.16,31.27c-.22.25-.46.5-.69.74-2.9,3-3.74,3.09-6.57.1q-4.89-5.18-9.66-10.49c-6.7-7.51-13.34-15.1-20.06-22.6-1.62-1.79-1.54-3.34,0-5,5.22-5.67,10.46-11.3,15.58-17a7.44,7.44,0,0,1,6.29-2.62c3.5.11,7,0,10.52,0C168,216.78,175.51,216.57,179.25,216.54ZM138.07,239.4,168.6,273c9.41-10.8,18.45-21.24,27.59-31.59,1.57-1.78.92-2.9-.38-4.32-4.82-5.26-9.51-10.64-14.39-15.84a5.21,5.21,0,0,0-3.46-1.4c-4.42,0-22-.42-23.46.89a78.29,78.29,0,0,0-5.6,6.66C145.79,231.54,142,235.13,138.07,239.4Z"/><circle class="cls-4" cx="24.53" cy="375.83" r="22.71"/><path class="cls-4" d="M159,16.78a4.07,4.07,0,0,1-3.39-1.66c-1.11-1.54-2.08-3.74.27-5a6.82,6.82,0,0,1,6.1,1.78c1.66,1.5,2.66-.14,3.22-1.86A4.1,4.1,0,0,1,171.64,8c1.91,1.55,1.24,3.56,1.62,4,2.27,2.57,4.7-3.55,8.21-1.31,0,0,2.72,2.36-1.49,5.12a4.12,4.12,0,0,1-2.16.66Z"/><path class="cls-4" d="M165.46,189.05l-.88-.46c-7.51-4-27.9-14.57-32.12-15.66a8.06,8.06,0,0,0-7,1l-2.25-2.66a11.48,11.48,0,0,1,10.13-1.75c5,1.3,27.22,13,32,15.49,5-2.93,29.59-16.71,44.11-11.69l-1.14,3.3c-14.31-4.94-41.73,11.71-42,11.88Z"/><path class="cls-4" d="M163.41,176.77c-4.57-.11-8.86-.42-12.82-.84-25-2.67-41.88-10.16-42.59-10.48-16-6-26.4-14.83-30.78-26.13A36.23,36.23,0,0,1,76,117.92a36.48,36.48,0,0,0,.64-14c-6.67-43.18,31-69.73,32.23-70.59,1.4-1,49.2-34.69,100.79-7.66,31.95,16.74,42.06,41.05,44.91,58.49a85.75,85.75,0,0,1,.15,26.27,35.52,35.52,0,0,0,.34,12.88c4,18.49-12.9,32.65-12.9,32.65C214.16,173.35,185.56,177.32,163.41,176.77Zm6.17-158c-33.2-.83-58.37,17.21-58.71,17.46l-.06,0c-.42.29-41.68,28.86-29.13,74.81l.18.65-.31.6c-.06.12-6.21,12.58-1.06,25.8,4,10.31,13.72,18.43,28.85,24.12.75.34,64,28.09,125.21-5.82a35.33,35.33,0,0,0,14.21-14.05c3.28-6.14,5.29-14.44,1-23.73l-.28-.6.2-.64a79.88,79.88,0,0,0,1.39-32.76c-4-24.16-18.48-42.94-43.06-55.81A86.49,86.49,0,0,0,169.58,18.75Z"/><path class="cls-4" d="M90.32,347.34c-3.7,2-12.65,3.76-20.27-5.59-6.11-7.5-15.46-9.84-22.23-10.49a8.61,8.61,0,0,1-6.73-4.34,8.8,8.8,0,0,1-.36-8.06l30.15-65.32L74,255,43.9,320.32a5.27,5.27,0,0,0,4.25,7.47c7.43.7,17.73,3.32,24.61,11.76,10.39,12.75,19.23,2.3,19.35,2.35Z"/><path class="cls-4" d="M78.7,256.71a30.12,30.12,0,0,1-18.23-6.2,32.32,32.32,0,0,1-12.68-23,87.6,87.6,0,0,1,.14-12.72c.09-1,.94.43,1.91.54l0-2.09a1.74,1.74,0,0,1,1.52,1.91,84.33,84.33,0,0,0-.13,12.07,28.78,28.78,0,0,0,11.3,20.54,26.56,26.56,0,0,0,21.35,5c22-4.33,27.45-33.4,28.47-40.67a1.75,1.75,0,0,1,1.88-1.5h0a1.74,1.74,0,0,1,1.57,2c-1,7.94-6.71,38.79-31.27,43.62A30.23,30.23,0,0,1,78.7,256.71Z"/><path class="cls-4" d="M56.15,215.44A1.75,1.75,0,0,1,54,217c-3.43-.77-10.75-3.13-15.67-9.81-4.5-6.09-5.83-14.18-4-24,.08-.41,2-9.51,10.23-14.46,5.49-3.3,12.38-3.93,20.49-1.86A1.74,1.74,0,0,1,66.39,169h0a1.73,1.73,0,0,1-2.08,1.2c-7.2-1.84-13.21-1.35-17.88,1.46-6.92,4.16-8.59,12.06-8.6,12.14-1.68,8.84-.55,16,3.35,21.3,4.23,5.74,10.69,7.8,13.61,8.46a1.76,1.76,0,0,1,1.36,1.9Z"/><path class="cls-4" d="M89.28,207.24h0a1.74,1.74,0,0,1-1-2.2c1.91-5.24,7.49-22.43,2.53-32.18a11.84,11.84,0,0,0-8.24-6.31c-9.74-2.37-15.78.31-17.94,8a13.37,13.37,0,0,0-.5,4.37c.37,7,8.93,10.81,14.2,6.13a4.9,4.9,0,0,0,1.35-1.84,3.28,3.28,0,0,0,.22-1.51,1.81,1.81,0,0,1,.88-1.75h0a1.75,1.75,0,0,1,2.59,1.34,6.89,6.89,0,0,1-.39,3.09c-1,2.71-3.7,4.86-8,6.38-4.87,1.73-9.1.3-11.92-4a16.06,16.06,0,0,1-1.82-13.13c1.56-5.52,6.51-14.22,22.13-10.41a15.3,15.3,0,0,1,10.52,8.12c5.65,11.1-.28,29.34-2.35,35A1.74,1.74,0,0,1,89.28,207.24Z"/><path class="cls-4" d="M54.19,203.38H54c-4.27-.07-8-2.4-11-6.95a1.75,1.75,0,0,1,.57-2.5h0a1.75,1.75,0,0,1,2.32.54c2.39,3.55,5.15,5.37,8.2,5.42h.12a8.35,8.35,0,0,0,8.06-7.67c.93-8-5.75-10.95-8.84-11.85a1.75,1.75,0,0,1-1.25-2v0A1.76,1.76,0,0,1,54.37,177c5.24,1.49,12.45,6,11.35,15.63A11.83,11.83,0,0,1,54.19,203.38Z"/><path class="cls-4" d="M61.67,169.47c-.76-.34-18.54-8.59-16.76-25,0-.67.39-4.68,3.7-6.86,2.8-1.84,6.75-1.76,11.73.24,13.3,5.35,21.49,24.82,21.83,25.64L79,164.8c-.08-.19-8-18.94-19.91-23.74-3.81-1.53-6.75-1.72-8.52-.56-2,1.32-2.12,4.1-2.13,4.12v.15C46.84,158.71,63,166.22,63.11,166.3Z"/><path class="cls-4" d="M103.37,238.77c-.25-10.56-12.86-36.68-13-36.94l3.14-1.52c.53,1.1,13.07,27.07,13.34,38.38Z"/><path class="cls-4" d="M236.86,253.64l-.13-3.49c14.69-.53,23.27-5,27.88-8.64a10,10,0,0,0,2.46-12.7c-22.94-40.68-53.21-50.61-57.94-51.94-3.89,2.19-24.2,13.1-44.69,13.83-20.34.73-36.86-12.84-40.55-16.13-6.78,2.28-22.88,14.28-28.75,18.91L93,190.74c.92-.73,22.78-17.9,31-19.81l.91-.22.69.65c.17.17,17.67,16.59,38.76,15.85,21.41-.76,43.47-13.59,43.69-13.72l.59-.35.67.15c1.43.32,35.21,8.34,60.85,53.81a13.54,13.54,0,0,1-3.33,17.14C261.76,248.22,252.49,253.07,236.86,253.64Z"/><path class="cls-4" d="M173.54,297.49a376.43,376.43,0,0,1-74.32-7.16,11,11,0,0,1-8.77-12.08,110.58,110.58,0,0,1,12.88-41.16l3,1.69a107.13,107.13,0,0,0-12.46,39.84,7.55,7.55,0,0,0,6,8.29c59.79,12.1,114.24,5.75,134.88,2.46a7.54,7.54,0,0,0,6.31-8.47c-3.93-30.13-20-75.37-20.17-75.82l3.29-1.17c.16.45,16.36,46,20.34,76.54a11,11,0,0,1-9.22,12.37A401.66,401.66,0,0,1,173.54,297.49Z"/><path class="cls-4" d="M109.61,446.36c-10.17,0-17.23-2.31-21.89-4.82A21.41,21.41,0,0,1,77.13,416c4.41-13.19,19.31-15.78,24.85-16.29-11.66-62.22-5.64-111.48-5.57-112l3.46.44c-.06.49-6.14,50.26,5.91,112.82l.39,2.05-2.08,0c-.19,0-19.11.43-23.65,14a18,18,0,0,0,8.93,21.35c7.15,3.84,20.48,7.14,43.4,1a37.71,37.71,0,0,0,18.69-11.29c4-4.52,6.19-9.26,6.56-14.11,1.17-15.14-.18-66.07-.2-66.58l3.49-.1c.06,2.1,1.37,51.63.19,66.95-.43,5.62-2.93,11.05-7.42,16.15a41.19,41.19,0,0,1-20.41,12.35A93,93,0,0,1,109.61,446.36Z"/><path class="cls-4" d="M223.67,446.36a93,93,0,0,1-24.06-3.53,41.15,41.15,0,0,1-20.41-12.35c-4.49-5.1-7-10.53-7.43-16.15-1.17-15.32.14-64.85.2-66.95l3.49.1c0,.51-1.37,51.44-.21,66.58.38,4.85,2.58,9.59,6.57,14.11a37.71,37.71,0,0,0,18.69,11.29c22.91,6.15,36.25,2.85,43.39-1a17.93,17.93,0,0,0,8.93-21.35c-4.53-13.59-23.45-14-23.64-14l-2.08,0,.39-2.05c12.05-62.56,6.36-110,6.3-110.46l3.47-.43c.06.47,5.7,47.43-6,109.6,5.53.51,20.44,3.1,24.84,16.29,3.26,9.74-1.2,20.47-10.58,25.52C240.89,444.05,233.84,446.36,223.67,446.36Z"/><path class="cls-4" d="M168,351.16a40.55,40.55,0,0,1-18.25-4.63,1.83,1.83,0,0,1-.68-2.64l.84-1.27-1,1.45h0a1.84,1.84,0,0,1,2.41-.61c4.42,2.4,18.11,8.39,32-.14a1.72,1.72,0,0,1,2.32.52h0a1.76,1.76,0,0,1-.55,2.49A32.35,32.35,0,0,1,168,351.16Z"/><path class="cls-4" d="M249.71,350.77c-5.27,0-10.17-2.38-14.47-7.1l2.58-2.35c5.8,6.36,12.59,7.63,20.19,3.75a26.73,26.73,0,0,0,13.89-19.61c5.58-34.23-12.43-77.85-12.62-78.29l3.22-1.35c.76,1.82,18.59,45,12.85,80.2a30.22,30.22,0,0,1-15.76,22.16A21.72,21.72,0,0,1,249.71,350.77Z"/><path class="cls-4" d="M250.6,351.19a23.29,23.29,0,0,1-14.87-5.32l2.39-2.54c.54.5,13.49,12.17,31.74-4.5,9.22-8.42,20.37-10.82,28.1-11.34a5.13,5.13,0,0,0,4.11-2.55,5.2,5.2,0,0,0,.25-4.93L266,241.9l3.16-1.47,36.29,78.11A8.75,8.75,0,0,1,298.2,331c-7.18.49-17.51,2.69-26,10.44C264,348.92,256.57,351.19,250.6,351.19Z"/><path class="cls-4" d="M48,415.1c-12.5,0-34.28-3-43.74-22.06-4.45-9-5.43-17.28-2.9-24.63C5,357.89,14.42,353.23,14.82,353L15,353c21.44-7.14,30.8,5.58,34.47,13.8a12.37,12.37,0,0,0,14.19,7.05c19.61-5.09,30.7-41.71,30.81-42.07l3.35,1c-.47,1.58-11.76,38.87-33.28,44.46a15.72,15.72,0,0,1-18.26-9c-3.88-8.71-12.25-17.84-30-12-.91.47-8.65,4.72-11.6,13.36C2.46,376,3.38,383.39,7.4,391.49c12.43,25.12,48.88,19.66,49.25,19.6s31.31-7,41.87-30.34l3.18,1.44c-11.29,25-43.07,32-44.41,32.33A67.52,67.52,0,0,1,48,415.1Z"/><circle class="cls-6" cx="153.27" cy="136.47" r="13.71"/><circle class="cls-6" cx="177.87" cy="137.11" r="13.71"/><circle class="cls-6" cx="165.77" cy="138.79" r="13.71"/><path class="cls-4" d="M176.32,119.2a210.24,210.24,0,0,1-21.35-.08,2.07,2.07,0,0,0-2.17,2.39c.46,2.36,1.5,5,3.84,6.37,1.66,1,3.88,2.2,5.45,3.29,2.63,1.84,4.56,6.63,4.48,6.11-.39-2.55,2-4.68,4.19-6.2,1.68-1.14,3.49-2.1,5.24-3.13,3.76-2.19,3.74-3.51,3.63-6.81a2.09,2.09,0,0,0-2.09-2C176.35,119.13,176.31,119.14,176.32,119.2Z"/><rect class="cls-4" x="129.46" y="127.99" width="14.95" height="3.11" rx="1.31" transform="translate(16.74 -15.67) rotate(6.97)"/><rect class="cls-4" x="132.99" y="137.16" width="14.95" height="3.11" rx="1.31" transform="translate(-32.78 44.06) rotate(-15.99)"/><rect class="cls-4" x="184.25" y="129.83" width="14.95" height="3.11" rx="1.31" transform="translate(392.39 248.66) rotate(175.88)"/><rect class="cls-4" x="187.8" y="138.21" width="14.95" height="3.11" rx="1.31" transform="translate(352.83 320.99) rotate(-166.6)"/><ellipse class="cls-6" cx="147.96" cy="71.3" rx="7.18" ry="4.78" transform="translate(66.63 213.99) rotate(-86.05)"/><ellipse class="cls-6" cx="185.99" cy="73.45" rx="7.18" ry="4.78" transform="translate(99.91 253.93) rotate(-86.05)"/><path class="cls-4" d="M187.59,112a22,22,0,0,1,.72-13.58,16,16,0,0,1,4.34-6.16,16.35,16.35,0,0,1,6.89-3.49,50.53,50.53,0,0,1,13.52-1.53,54.54,54.54,0,0,1,13.37,1.85l3.31.9-1.58,2.57a28.74,28.74,0,0,1-2.27,3.12,29.41,29.41,0,0,1-2.54,2.81,21.91,21.91,0,0,1-6.08,4.41A47.72,47.72,0,0,0,221,96.77c.51-1.07,1.05-2.1,1.52-3.17s.91-2.17,1.28-3.15l1.74,3.46c-4-.21-8.3-.23-12.39-.07A88.67,88.67,0,0,0,201,95.12a12.51,12.51,0,0,0-8.65,5.46A33.49,33.49,0,0,0,187.59,112Z"/><circle class="cls-4" cx="203.45" cy="100.11" r="9.84"/><path class="cls-4" d="M145.16,112.72A33.13,33.13,0,0,0,141,101.05a12.48,12.48,0,0,0-8.36-5.89,87.33,87.33,0,0,0-12.08-1.88c-4.07-.37-8.33-.56-12.38-.55l1.91-3.37c.32,1,.71,2.15,1.12,3.21s.9,2.15,1.36,3.24a49.39,49.39,0,0,0,3.4,6.34,22.09,22.09,0,0,1-5.85-4.71,28,28,0,0,1-2.39-2.93,27.71,27.71,0,0,1-2.12-3.23l-1.45-2.64,3.35-.74A54.67,54.67,0,0,1,121,86.72a50.28,50.28,0,0,1,13.42,2.2,16.32,16.32,0,0,1,6.71,3.83,16,16,0,0,1,4,6.37A22,22,0,0,1,145.16,112.72Z"/><circle class="cls-4" cx="129.92" cy="100.02" r="9.84"/><path class="cls-4" d="M108.11,80a29.13,29.13,0,0,0,3.71,2.74c1,.66,1.89,1.16,2.78,1.77s1.87,1.23,2.93,2.1A19.66,19.66,0,0,1,119.25,88,14.45,14.45,0,0,1,121.18,90a9.26,9.26,0,0,1-2.51,1.34,10.68,10.68,0,0,1-2.63.41,9.55,9.55,0,0,1-5.19-1.59,8.76,8.76,0,0,1-3.48-4.52A6.07,6.07,0,0,1,108.11,80Z"/><path class="cls-4" d="M226.79,80.8a6.06,6.06,0,0,1,.46,5.63,8.82,8.82,0,0,1-3.71,4.34,9.49,9.49,0,0,1-5.25,1.33,10.71,10.71,0,0,1-2.62-.54,9.5,9.5,0,0,1-2.43-1.47,14.58,14.58,0,0,1,2-1.82,16.79,16.79,0,0,1,1.79-1.33c1.1-.82,2.12-1.39,3-2s1.82-1,2.87-1.63A29.07,29.07,0,0,0,226.79,80.8Z"/><path class="cls-6" d="M97.25,107.41A105.15,105.15,0,0,0,100,117.77a29.24,29.24,0,0,0,2,4.66,12.28,12.28,0,0,0,2.85,3.69,3.64,3.64,0,0,0,.87.66c.34.19.54.35,1,.59a15.82,15.82,0,0,1,2.55,1.64,17.23,17.23,0,0,1,3.91,4.41,20.54,20.54,0,0,1,3,10.74,37.38,37.38,0,0,0-5.36-9.07,18.48,18.48,0,0,0-3.64-3.29,16.07,16.07,0,0,0-2.06-1.17,12.56,12.56,0,0,1-2.66-1.72A13.55,13.55,0,0,1,98.94,124a23,23,0,0,1-1.68-5.49A30.35,30.35,0,0,1,97.25,107.41Z"/><path class="cls-6" d="M235.39,111.49a30.41,30.41,0,0,1-.57,11.07,23.5,23.5,0,0,1-1.95,5.4,13.73,13.73,0,0,1-3.81,4.74,12.73,12.73,0,0,1-2.74,1.59,14.52,14.52,0,0,0-2.12,1.07,18.19,18.19,0,0,0-3.8,3.1,36.74,36.74,0,0,0-5.8,8.79,20.44,20.44,0,0,1,3.56-10.58,17.32,17.32,0,0,1,4.12-4.21,16.29,16.29,0,0,1,2.63-1.51c.45-.22.66-.36,1-.54a3.33,3.33,0,0,0,.9-.61,12.55,12.55,0,0,0,3-3.54,29.75,29.75,0,0,0,2.25-4.56A106.12,106.12,0,0,0,235.39,111.49Z"/><ellipse class="cls-7" cx="122.57" cy="96.58" rx="2.16" ry="5.22" transform="translate(22.96 216.7) rotate(-88.57)"/><ellipse class="cls-7" cx="212.1" cy="97.4" rx="2.16" ry="5.22" transform="translate(109.43 307) rotate(-88.57)"/><path class="cls-4" d="M136.67,65A23,23,0,0,1,148,68.39a3.06,3.06,0,0,1,.63,4.68l.08-.08-.39.42a3,3,0,0,1-3.8.57,15.54,15.54,0,0,0-16.2-.33,3.09,3.09,0,0,1-4-.8l-.26-.34A3.08,3.08,0,0,1,125,68,22.18,22.18,0,0,1,136.67,65Z"/><path class="cls-4" d="M197.85,67.38a22.92,22.92,0,0,1,11.35,3.41,3.06,3.06,0,0,1,.63,4.69l.08-.08-.38.42a3,3,0,0,1-3.81.56,15.53,15.53,0,0,0-16.19-.32,3.12,3.12,0,0,1-4-.8l-.25-.35a3.07,3.07,0,0,1,1-4.51A22.24,22.24,0,0,1,197.85,67.38Z"/><path class="cls-4" d="M144.63,125.83a35.33,35.33,0,0,0-2.77,5.54,13.26,13.26,0,0,0-1,5.38,14.11,14.11,0,0,0,1.34,5.31c.35.91.91,1.75,1.35,2.7a30.39,30.39,0,0,1,1.61,2.8,21.47,21.47,0,0,1-2.9-1.66,17.7,17.7,0,0,1-2.41-2.41,11.4,11.4,0,0,1-2.49-6.62,11.18,11.18,0,0,1,2-6.79A11.81,11.81,0,0,1,144.63,125.83Z"/><path class="cls-4" d="M186.55,126.48a11.79,11.79,0,0,1,5,4.5,11.27,11.27,0,0,1,1.69,6.89,11.46,11.46,0,0,1-2.82,6.49,17.5,17.5,0,0,1-2.53,2.28,20.84,20.84,0,0,1-3,1.51c.55-1,1.17-1.85,1.75-2.71s1.09-1.74,1.49-2.63a14.33,14.33,0,0,0,1.6-5.24,13.54,13.54,0,0,0-.68-5.42A36.16,36.16,0,0,0,186.55,126.48Z"/><path class="cls-4" d="M237.82,344.53l-2.1-2.79c9-6.79,11.07-13.13,11.55-15.84a1.76,1.76,0,0,1,1.63-1.46h0a1.75,1.75,0,0,1,1.82,2C250.13,329.92,247.7,337.07,237.82,344.53Z"/><path class="cls-4" d="M242.27,349.46l-.6-3.43c12.18-2.13,15.73-10.52,16.69-13.94a1.73,1.73,0,0,1,1.89-1.23h0a1.72,1.72,0,0,1,1.43,2.19C260.44,337.26,256.09,347.05,242.27,349.46Z"/><path class="cls-4" d="M167.52,51.12a21.6,21.6,0,0,1,1.34,5.05,35.58,35.58,0,0,1,.35,5,34,34,0,0,1-.4,5,20.91,20.91,0,0,1-1.4,5,20.5,20.5,0,0,1-1.35-5,34.51,34.51,0,0,1,.06-10.08A21.16,21.16,0,0,1,167.52,51.12Z"/><circle class="cls-4" cx="165.1" cy="185.17" r="4.94"/><path class="cls-4" d="M172.51,205.27c-3.13-1.55-5.29-5.29-6.76-9.2a1.75,1.75,0,0,0-3-.48,49.12,49.12,0,0,1-7.41,7.18,1.74,1.74,0,0,1-2.5-.36h0a1.74,1.74,0,0,1,.33-2.38c2.72-2.16,8.83-7.44,10-12.27a2,2,0,0,1,2-1.52,2,2,0,0,1,1.89,1.59c1.18,5.81,3.67,12.65,7,14.32a1.72,1.72,0,0,1,.92,1.78h0A1.75,1.75,0,0,1,172.51,205.27Z"/><path class="cls-4" d="M166,130.64a16.88,16.88,0,0,0,1.26,4.26,3.37,3.37,0,0,0,2.25,1.86,5.21,5.21,0,0,0,3.26-.11,8.14,8.14,0,0,0,3.28-2.65,5.32,5.32,0,0,1-1.78,4.95,6.16,6.16,0,0,1-5.7,1.17,7.36,7.36,0,0,1-1.45-.62,5.3,5.3,0,0,1-2.5-3.87A6.74,6.74,0,0,1,166,130.64Z"/><path class="cls-4" d="M165.71,130.64a6.77,6.77,0,0,1,1.12,5,5.16,5.16,0,0,1-1.38,2.74,5.54,5.54,0,0,1-1.3,1,7.22,7.22,0,0,1-1.49.54,6.17,6.17,0,0,1-5.64-1.45,5.31,5.31,0,0,1-1.52-5,8.19,8.19,0,0,0,3.14,2.81,5.22,5.22,0,0,0,3.25.27,3.41,3.41,0,0,0,2.34-1.74A17.67,17.67,0,0,0,165.71,130.64Z"/><path class="cls-4" d="M78.86,76.27C77.63,74.46,48.82,31.45,71,6l.14-.14c.82-.76,20.65-18.2,58,18.22l-2.43,2.5c-33.87-33-52-19.16-53.21-18.2-20.26,23.47,7.9,65.53,8.19,66Z"/><path class="cls-4" d="M94.08,47.75c0-.16-.39-4.32-4.48-25.2-1.24-6.3-3.65-10.33-7.18-12-5-2.34-10.84.79-10.9.82L69.83,8.32c.3-.16,7.42-4,14-.93,4.61,2.15,7.69,7,9.15,14.49,4.18,21.3,4.52,25.45,4.54,25.61Z"/><path class="cls-4" d="M241.35,54.85l-2.88-2.79c0-.16.56-4.28,5.8-25.35,1.83-7.38,5.15-12.1,9.86-14,6.77-2.75,13.69,1.45,14,1.63l-1.84,3s-5.73-3.45-10.84-1.36c-3.61,1.48-6.23,5.39-7.78,11.62C242.52,48.2,241.37,54.68,241.35,54.85Z"/><path class="cls-4" d="M253.89,81.59l-2.85-2a101.9,101.9,0,0,0,14.5-31,54.4,54.4,0,0,0,.32-29.15c-1.59-5.73-3.81-10-6.61-12.71Q255.7,3.33,249.07,3.5c-9.73.28-21.21,6.56-26.68,12.47-8.59,9.29-10.33,11.86-10.4,12L209.07,26c.07-.11,1.83-2.76,10.76-12.42C226.75,6.13,239.27.29,249,0c5.29-.15,9.68,1.31,12.7,4.23,3.26,3.14,5.8,7.94,7.56,14.29a57.89,57.89,0,0,1-.33,31A105.27,105.27,0,0,1,253.89,81.59Z"/><path class="cls-4" d="M257.78,26.55c-1.79,5.07-5.57,9-9.27,12.72l1.39,1.46c2.36-2.39,6.15-.7,6.59,2.44.49,3.49-2.65,6-5.87,6.15-.87.06-1.56,1.42-.55,1.87a5.69,5.69,0,0,1,3.15,6.94,1,1,0,0,0,1.93.59,7.66,7.66,0,0,0-4-9.24l-.56,1.86c4.69-.27,9-4.1,7.79-9.09-1-4.37-6.59-6.29-9.85-3-.91.92.48,2.39,1.39,1.46,4-4,7.91-8.18,9.81-13.6.44-1.22-1.5-1.8-1.93-.58Z"/><path class="cls-4" d="M75.28,23.78c1.64,5.51,5.37,9.87,9.12,14.07.87,1,2.33-.42,1.47-1.39-3.09-3.46-8.75-1.83-10,2.49-1.41,4.93,2.66,9,7.33,9.47l-.47-1.89a7.68,7.68,0,0,0-4.48,9,1,1,0,0,0,2-.49,5.7,5.7,0,0,1,3.5-6.78c1-.4.41-1.79-.46-1.89-3.21-.35-6.22-3-5.55-6.44.6-3.11,4.46-4.61,6.69-2.11l1.47-1.39c-3.51-3.93-7.1-8-8.63-13.17-.37-1.24-2.33-.76-2,.49Z"/><path class="cls-4" d="M159.11,139.35s5.25,15.23,12.74.39l-5.78-3.67Z"/><circle class="cls-8" cx="316.25" cy="72.33" r="26.07"/><rect class="cls-9" x="304.58" y="101.9" width="23.34" height="3.93"/><rect class="cls-9" x="304.5" y="107.28" width="23.34" height="3.93"/><rect class="cls-9" x="305.53" y="111.21" width="20.47" height="3.93"/><rect class="cls-9" x="309.81" y="115.14" width="13.34" height="4.82"/><path class="cls-4" d="M307.52,100.46H313c-.35-1.57-.7-3.11-1.06-4.65-1.11-4.74-2.23-9.47-3.33-14.21-.22-.92-.56-1.63-1.65-1.84-.33-.06-.74-.71-.75-1.1,0-.64.5-1,1.16-1a3.24,3.24,0,0,1,2.41,1.35c.31.4.58.83.88,1.23.73,1,1.29,1,2,0,.33-.42.61-.88.95-1.29a3.07,3.07,0,0,1,5.09,0c.39.49.71,1,1.11,1.51.54.64,1.09.63,1.63,0a8.86,8.86,0,0,1,1.07-1.41,8.43,8.43,0,0,1,2.2-1.37,1.07,1.07,0,1,1,.42,2.08c-.88.14-1.2.8-1.37,1.55q-1.18,5.25-2.35,10.51c-.64,2.83-1.28,5.66-1.93,8.56h5.37c.25-1.71.37-3.4.77-5a16.37,16.37,0,0,1,4.87-8.14,21,21,0,0,0,6.18-11c2.47-11.07-5.25-22.68-16.42-24.65a20.69,20.69,0,0,0-16.45,3.73c-.76.55-1.39.54-1.8,0s-.22-1.13.54-1.71c13.22-10,32.89-2.59,36.16,13.65a22.28,22.28,0,0,1-6.54,21.34,15.64,15.64,0,0,0-5,11,1,1,0,0,0,.76,1.15,3.41,3.41,0,0,1,1.25,5.51,1,1,0,0,0-.25,1.14,3.29,3.29,0,0,1-.74,3.55A.85.85,0,0,0,328,112a3.4,3.4,0,0,1-2.42,4.52,1.14,1.14,0,0,0-.63.57,7.24,7.24,0,0,1-7.24,5c-1.07,0-2.14,0-3.21,0a7.27,7.27,0,0,1-6.84-4.81,1.31,1.31,0,0,0-.68-.74,3.39,3.39,0,0,1-2.43-4.51,1,1,0,0,0-.25-1.15,3.26,3.26,0,0,1-.69-3.48,1,1,0,0,0-.24-1.14,3.39,3.39,0,0,1,1.4-5.57.78.78,0,0,0,.6-.91,14.24,14.24,0,0,0-4.45-10.53,23.31,23.31,0,0,1-7.37-13.78,22.6,22.6,0,0,1,2.17-13.67c.47-.94,1-1.21,1.64-.88s.72.9.27,1.86a20.45,20.45,0,0,0,1.17,20.62,19.63,19.63,0,0,0,3.11,3.76,17.09,17.09,0,0,1,5.59,12.75C307.48,100.07,307.5,100.24,307.52,100.46Zm9.77,0c1.3-5.77,2.58-11.5,3.89-17.3a3.55,3.55,0,0,1-3.39-1.72c-.21-.32-.43-.64-.67-.95-.68-.88-1.24-.89-1.92,0-.15.19-.28.38-.41.58a3.76,3.76,0,0,1-3.63,2.12c1.37,5.84,2.71,11.57,4.06,17.3Zm-1,2.17c-3.38,0-6.77,0-10.15,0-1.08,0-1.54.39-1.53,1.28s.48,1.21,1.5,1.21H326.4c1.07,0,1.54-.4,1.52-1.28s-.46-1.21-1.5-1.21C323,102.64,319.65,102.65,316.26,102.65Zm0,7.13c3.14,0,6.29,0,9.44,0,.87,0,1.27-.43,1.27-1.25a1.11,1.11,0,0,0-1.28-1.24q-9.44,0-18.88,0a1.17,1.17,0,0,0-1.25,1.51c.13.83.71,1,1.44,1Zm-.05,4.64c2.79,0,5.59,0,8.38,0,.7,0,1.23-.19,1.41-.93.24-.94-.35-1.58-1.47-1.58H308.05c-1.08,0-1.57.39-1.58,1.24s.47,1.26,1.55,1.26Zm6.54,2.17H309.81a4.72,4.72,0,0,0,4.45,3.34c1.33,0,2.66,0,4,0A4.88,4.88,0,0,0,322.75,116.59Z"/><path class="cls-4" d="M299.1,68.85c-.54,0-1-.66-.77-1.45A18.59,18.59,0,0,1,313,53.85c.9-.17,1.5.1,1.63.76s-.29,1.14-1.19,1.33c-6.58,1.4-10.93,5.27-12.95,11.71C300.29,68.27,300.09,68.86,299.1,68.85Z"/><path class="cls-4" d="M286.89,42.86a5.54,5.54,0,0,1,.91.59c2.09,2.07,4.16,4.15,6.24,6.22.51.51.68,1.08.13,1.64s-1.12.4-1.63-.11c-2.1-2.1-4.21-4.17-6.27-6.31a1.56,1.56,0,0,1-.26-1.27C286.08,43.33,286.56,43.13,286.89,42.86Z"/><path class="cls-4" d="M345.63,42.9c.29.21.7.35.81.61a2,2,0,0,1,0,1.16c-.07.25-.37.44-.58.65l-5.4,5.41c-.19.19-.37.38-.57.56a1,1,0,0,1-1.57,0,1,1,0,0,1,.07-1.5q3.19-3.22,6.41-6.41A4,4,0,0,1,345.63,42.9Z"/><path class="cls-4" d="M317.32,37.93c0,1.27,0,2.54,0,3.81,0,.83-.46,1.38-1.11,1.31s-1-.58-1-1.31c0-2.6,0-5.21,0-7.81,0-.87.4-1.35,1.06-1.35s1.06.48,1.07,1.35C317.33,35.26,317.32,36.59,317.32,37.93Z"/><path class="cls-4" d="M280.66,72.33h3.92c.84,0,1.39.45,1.32,1.1s-.58,1-1.3,1h-7.85c-.84,0-1.37-.45-1.31-1.11s.57-1,1.3-1C278,72.34,279.35,72.33,280.66,72.33Z"/><path class="cls-4" d="M351.87,72.33c1.31,0,2.61,0,3.92,0,.73,0,1.26.29,1.27,1.06s-.51,1.08-1.24,1.08h-7.93c-.73,0-1.22-.31-1.28-1.07s.48-1.07,1.34-1.07Z"/><path class="cls-4" d="M299.86,71.76c0,.91-.43,1.43-1.12,1.39s-1-.56-1-1.5.47-1.43,1.14-1.39S299.88,70.79,299.86,71.76Z"/><path class="cls-1" d="M155.19,249.2,151.26,234l2.7.08,2.75,11.41h.1l3.7-11.21,2.36.08,3.22,11.41h.08l3.4-11.21,2.71.08-4.84,14.91-2.63-.08-3.2-11.64h-.07l-3.71,11.43Z"/><path class="cls-1" d="M173.64,249,174.1,234l6.93.22a5.56,5.56,0,0,1,3.85,1.37,4.4,4.4,0,0,1,1.28,3.48,4.46,4.46,0,0,1-1.49,3.4,5.59,5.59,0,0,1-3.93,1.14l-4.34-.13-.18,5.64Zm2.82-7.78,4.2.13a3,3,0,0,0,2.14-.61,2.66,2.66,0,0,0,.11-3.65,3.08,3.08,0,0,0-2.1-.72l-4.2-.13Z"/></g></g></svg>